M48
METRIC,TZ
T1C0.122
T2C1.000
%
G90
G05
T1
X25933Y7260
X25933Y6770
X25933Y6280
X25933Y5790
X25933Y5300
X25933Y4810
X25933Y4320
X25933Y3830
X25933Y3340
X25933Y2850
X26423Y7260
X26423Y6770
X26423Y6280
X26423Y5790
X26423Y5300
X26423Y4810
X26423Y4320
X26423Y3830
X26423Y3340
X26423Y2850
X26913Y7260
X26913Y6770
X26913Y6280
X26913Y5790
X26913Y5300
X26913Y4810
X26913Y4320
X26913Y3830
X26913Y3340
X26913Y2850
X27403Y7260
X27403Y6770
X27403Y6280
X27403Y5790
X27403Y5300
X27403Y4810
X27403Y4320
X27403Y3830
X27403Y3340
X27403Y2850
X27893Y7260
X27893Y6770
X27893Y6280
X27893Y5790
X27893Y5300
X27893Y4810
X27893Y4320
X27893Y3830
X27893Y3340
X27893Y2850
X28383Y7260
X28383Y6770
X28383Y6280
X28383Y5790
X28383Y5300
X28383Y4810
X28383Y4320
X28383Y3830
X28383Y3340
X28383Y2850
X28873Y7260
X28873Y6770
X28873Y6280
X28873Y5790
X28873Y5300
X28873Y4810
X28873Y4320
X28873Y3830
X28873Y3340
X28873Y2850
X29363Y7260
X29363Y6770
X29363Y6280
X29363Y5790
X29363Y5300
X29363Y4810
X29363Y4320
X29363Y3830
X29363Y3340
X29363Y2850
X29853Y7260
X29853Y6770
X29853Y6280
X29853Y5790
X29853Y5300
X29853Y4810
X29853Y4320
X29853Y3830
X29853Y3340
X29853Y2850
X30343Y7260
X30343Y6770
X30343Y6280
X30343Y5790
X30343Y5300
X30343Y4810
X30343Y4320
X30343Y3830
X30343Y3340
X30343Y2850
T2
X48285Y30632
X53285Y30632
T0
M30
