G04 #@! TF.GenerationSoftware,KiCad,Pcbnew,(5.1.9)-1*
G04 #@! TF.CreationDate,2022-02-07T19:04:32+01:00*
G04 #@! TF.ProjectId,AmplificadorV2,416d706c-6966-4696-9361-646f7256322e,rev?*
G04 #@! TF.SameCoordinates,Original*
G04 #@! TF.FileFunction,Copper,L1,Top*
G04 #@! TF.FilePolarity,Positive*
%FSLAX46Y46*%
G04 Gerber Fmt 4.6, Leading zero omitted, Abs format (unit mm)*
G04 Created by KiCad (PCBNEW (5.1.9)-1) date 2022-02-07 19:04:32*
%MOMM*%
%LPD*%
G01*
G04 APERTURE LIST*
G04 #@! TA.AperFunction,NonConductor*
%ADD10C,0.010000*%
G04 #@! TD*
G04 #@! TA.AperFunction,NonConductor*
%ADD11C,0.001000*%
G04 #@! TD*
G04 #@! TA.AperFunction,NonConductor*
%ADD12C,0.000100*%
G04 #@! TD*
G04 #@! TA.AperFunction,NonConductor*
%ADD13C,0.000010*%
G04 #@! TD*
G04 #@! TA.AperFunction,NonConductor*
%ADD14C,0.100000*%
G04 #@! TD*
G04 #@! TA.AperFunction,SMDPad,CuDef*
%ADD15R,5.080000X1.500000*%
G04 #@! TD*
G04 #@! TA.AperFunction,ComponentPad*
%ADD16C,2.000000*%
G04 #@! TD*
G04 #@! TA.AperFunction,ComponentPad*
%ADD17R,2.000000X2.000000*%
G04 #@! TD*
G04 #@! TA.AperFunction,ComponentPad*
%ADD18C,0.245000*%
G04 #@! TD*
G04 #@! TA.AperFunction,SMDPad,CuDef*
%ADD19R,0.490000X0.490000*%
G04 #@! TD*
G04 #@! TA.AperFunction,SMDPad,CuDef*
%ADD20R,0.500000X1.450000*%
G04 #@! TD*
G04 #@! TA.AperFunction,SMDPad,CuDef*
%ADD21R,1.450000X0.500000*%
G04 #@! TD*
G04 #@! TA.AperFunction,Conductor*
%ADD22C,4.572000*%
G04 #@! TD*
G04 #@! TA.AperFunction,Conductor*
%ADD23C,1.524000*%
G04 #@! TD*
G04 #@! TA.AperFunction,Conductor*
%ADD24C,3.048000*%
G04 #@! TD*
G04 #@! TA.AperFunction,Conductor*
%ADD25C,0.254000*%
G04 #@! TD*
G04 #@! TA.AperFunction,Conductor*
%ADD26C,0.100000*%
G04 #@! TD*
G04 APERTURE END LIST*
D10*
G36*
X4953000Y-10541000D02*
G01*
X4978400Y-16078200D01*
X-2844800Y-16078200D01*
X-2844800Y-10515600D01*
X4953000Y-10541000D01*
G37*
X4953000Y-10541000D02*
X4978400Y-16078200D01*
X-2844800Y-16078200D01*
X-2844800Y-10515600D01*
X4953000Y-10541000D01*
G36*
X50317400Y-9448800D02*
G01*
X50342800Y-14986000D01*
X42519600Y-14986000D01*
X42519600Y-9423400D01*
X50317400Y-9448800D01*
G37*
X50317400Y-9448800D02*
X50342800Y-14986000D01*
X42519600Y-14986000D01*
X42519600Y-9423400D01*
X50317400Y-9448800D01*
D11*
G36*
X42519600Y-5816600D02*
G01*
X40792400Y-5816600D01*
X40792400Y-4292600D01*
X42519600Y-4292600D01*
X42519600Y-5816600D01*
G37*
X42519600Y-5816600D02*
X40792400Y-5816600D01*
X40792400Y-4292600D01*
X42519600Y-4292600D01*
X42519600Y-5816600D01*
D12*
G36*
X44043600Y-6654800D02*
G01*
X42519600Y-6654800D01*
X42519600Y-4292600D01*
X44043600Y-4292600D01*
X44043600Y-6654800D01*
G37*
X44043600Y-6654800D02*
X42519600Y-6654800D01*
X42519600Y-4292600D01*
X44043600Y-4292600D01*
X44043600Y-6654800D01*
D11*
G36*
X29692600Y660400D02*
G01*
X28168600Y660400D01*
X28194000Y2032000D01*
X29692600Y2032000D01*
X29692600Y660400D01*
G37*
X29692600Y660400D02*
X28168600Y660400D01*
X28194000Y2032000D01*
X29692600Y2032000D01*
X29692600Y660400D01*
G36*
X27406600Y-6324600D02*
G01*
X25501600Y-6324600D01*
X25501600Y-4800600D01*
X27406600Y-4800600D01*
X27406600Y-6324600D01*
G37*
X27406600Y-6324600D02*
X25501600Y-6324600D01*
X25501600Y-4800600D01*
X27406600Y-4800600D01*
X27406600Y-6324600D01*
G36*
X27406600Y-4800600D02*
G01*
X25882600Y-4800600D01*
X25882600Y-2895600D01*
X27406600Y-2895600D01*
X27406600Y-4800600D01*
G37*
X27406600Y-4800600D02*
X25882600Y-4800600D01*
X25882600Y-2895600D01*
X27406600Y-2895600D01*
X27406600Y-4800600D01*
G36*
X27406600Y304800D02*
G01*
X25882600Y304800D01*
X25882600Y2006600D01*
X27406600Y2006600D01*
X27406600Y304800D01*
G37*
X27406600Y304800D02*
X25882600Y304800D01*
X25882600Y2006600D01*
X27406600Y2006600D01*
X27406600Y304800D01*
D10*
G36*
X4318000Y28346400D02*
G01*
X-8496300Y28321000D01*
X-8470900Y33909000D01*
X4318000Y33909000D01*
X4318000Y28346400D01*
G37*
X4318000Y28346400D02*
X-8496300Y28321000D01*
X-8470900Y33909000D01*
X4318000Y33909000D01*
X4318000Y28346400D01*
D11*
G36*
X8864600Y23215600D02*
G01*
X6248400Y23215600D01*
X6248400Y24739600D01*
X8864600Y24739600D01*
X8864600Y23215600D01*
G37*
X8864600Y23215600D02*
X6248400Y23215600D01*
X6248400Y24739600D01*
X8864600Y24739600D01*
X8864600Y23215600D01*
D10*
G36*
X27406600Y23241000D02*
G01*
X23698200Y23241000D01*
X23698200Y24739600D01*
X27406600Y24739600D01*
X27406600Y23241000D01*
G37*
X27406600Y23241000D02*
X23698200Y23241000D01*
X23698200Y24739600D01*
X27406600Y24739600D01*
X27406600Y23241000D01*
G36*
X27990800Y8102600D02*
G01*
X25882600Y8102600D01*
X25882600Y9550400D01*
X27990800Y9550400D01*
X27990800Y8102600D01*
G37*
X27990800Y8102600D02*
X25882600Y8102600D01*
X25882600Y9550400D01*
X27990800Y9550400D01*
X27990800Y8102600D01*
G36*
X49606200Y27432000D02*
G01*
X35255200Y27457400D01*
X35255200Y33020000D01*
X49631600Y33020000D01*
X49606200Y27432000D01*
G37*
X49606200Y27432000D02*
X35255200Y27457400D01*
X35255200Y33020000D01*
X49631600Y33020000D01*
X49606200Y27432000D01*
D12*
G36*
X36779200Y25958800D02*
G01*
X35915600Y25958800D01*
X35890200Y27482800D01*
X36779200Y27482800D01*
X36779200Y25958800D01*
G37*
X36779200Y25958800D02*
X35915600Y25958800D01*
X35890200Y27482800D01*
X36779200Y27482800D01*
X36779200Y25958800D01*
D13*
G36*
X32689800Y26670000D02*
G01*
X31165800Y26670000D01*
X31165800Y27482800D01*
X32689800Y27482800D01*
X32689800Y26670000D01*
G37*
X32689800Y26670000D02*
X31165800Y26670000D01*
X31165800Y27482800D01*
X32689800Y27482800D01*
X32689800Y26670000D01*
D11*
G36*
X59893200Y4343400D02*
G01*
X58750200Y4343400D01*
X58750200Y5867400D01*
X59893200Y5867400D01*
X59893200Y4343400D01*
G37*
X59893200Y4343400D02*
X58750200Y4343400D01*
X58750200Y5867400D01*
X59893200Y5867400D01*
X59893200Y4343400D01*
G36*
X40462200Y4343400D02*
G01*
X39192200Y4343400D01*
X39192200Y5867400D01*
X40462200Y5867400D01*
X40462200Y4343400D01*
G37*
X40462200Y4343400D02*
X39192200Y4343400D01*
X39192200Y5867400D01*
X40462200Y5867400D01*
X40462200Y4343400D01*
G36*
X38811200Y2819400D02*
G01*
X35229800Y2819400D01*
X35229800Y7391400D01*
X38811200Y7391400D01*
X38811200Y2819400D01*
G37*
X38811200Y2819400D02*
X35229800Y2819400D01*
X35229800Y7391400D01*
X38811200Y7391400D01*
X38811200Y2819400D01*
D10*
G36*
X-3784600Y3530600D02*
G01*
X-6883400Y3530600D01*
X-6883400Y6578600D01*
X-3784600Y6578600D01*
X-3784600Y3530600D01*
G37*
X-3784600Y3530600D02*
X-6883400Y3530600D01*
X-6883400Y6578600D01*
X-3784600Y6578600D01*
X-3784600Y3530600D01*
D14*
G36*
X3810000Y3581400D02*
G01*
X736600Y3581400D01*
X736600Y6527800D01*
X3810000Y6527800D01*
X3810000Y3581400D01*
G37*
X3810000Y3581400D02*
X736600Y3581400D01*
X736600Y6527800D01*
X3810000Y6527800D01*
X3810000Y3581400D01*
G36*
X25120600Y4368800D02*
G01*
X24130000Y4368800D01*
X24130000Y5791200D01*
X25120600Y5791200D01*
X25120600Y4368800D01*
G37*
X25120600Y4368800D02*
X24130000Y4368800D01*
X24130000Y5791200D01*
X25120600Y5791200D01*
X25120600Y4368800D01*
G36*
X33350200Y2870200D02*
G01*
X31216600Y2870200D01*
X31216600Y7340600D01*
X33350200Y7340600D01*
X33350200Y2870200D01*
G37*
X33350200Y2870200D02*
X31216600Y2870200D01*
X31216600Y7340600D01*
X33350200Y7340600D01*
X33350200Y2870200D01*
G04 #@! TA.AperFunction,SMDPad,CuDef*
G36*
G01*
X4204800Y24602600D02*
X4204800Y23352600D01*
G75*
G02*
X3954800Y23102600I-250000J0D01*
G01*
X3154800Y23102600D01*
G75*
G02*
X2904800Y23352600I0J250000D01*
G01*
X2904800Y24602600D01*
G75*
G02*
X3154800Y24852600I250000J0D01*
G01*
X3954800Y24852600D01*
G75*
G02*
X4204800Y24602600I0J-250000D01*
G01*
G37*
G04 #@! TD.AperFunction*
G04 #@! TA.AperFunction,SMDPad,CuDef*
G36*
G01*
X7304800Y24602600D02*
X7304800Y23352600D01*
G75*
G02*
X7054800Y23102600I-250000J0D01*
G01*
X6254800Y23102600D01*
G75*
G02*
X6004800Y23352600I0J250000D01*
G01*
X6004800Y24602600D01*
G75*
G02*
X6254800Y24852600I250000J0D01*
G01*
X7054800Y24852600D01*
G75*
G02*
X7304800Y24602600I0J-250000D01*
G01*
G37*
G04 #@! TD.AperFunction*
G04 #@! TA.AperFunction,SMDPad,CuDef*
G36*
G01*
X4789000Y-4937600D02*
X4789000Y-6187600D01*
G75*
G02*
X4539000Y-6437600I-250000J0D01*
G01*
X3739000Y-6437600D01*
G75*
G02*
X3489000Y-6187600I0J250000D01*
G01*
X3489000Y-4937600D01*
G75*
G02*
X3739000Y-4687600I250000J0D01*
G01*
X4539000Y-4687600D01*
G75*
G02*
X4789000Y-4937600I0J-250000D01*
G01*
G37*
G04 #@! TD.AperFunction*
G04 #@! TA.AperFunction,SMDPad,CuDef*
G36*
G01*
X7889000Y-4937600D02*
X7889000Y-6187600D01*
G75*
G02*
X7639000Y-6437600I-250000J0D01*
G01*
X6839000Y-6437600D01*
G75*
G02*
X6589000Y-6187600I0J250000D01*
G01*
X6589000Y-4937600D01*
G75*
G02*
X6839000Y-4687600I250000J0D01*
G01*
X7639000Y-4687600D01*
G75*
G02*
X7889000Y-4937600I0J-250000D01*
G01*
G37*
G04 #@! TD.AperFunction*
D15*
X57302400Y5105400D03*
X57302400Y9355400D03*
X57302400Y855400D03*
X-12676200Y5105400D03*
X-12776200Y855400D03*
X-12776200Y9355400D03*
D16*
X53285400Y30632400D03*
D17*
X48285400Y30632400D03*
G04 #@! TA.AperFunction,SMDPad,CuDef*
G36*
G01*
X42713900Y3712500D02*
X43188900Y3712500D01*
G75*
G02*
X43426400Y3475000I0J-237500D01*
G01*
X43426400Y2875000D01*
G75*
G02*
X43188900Y2637500I-237500J0D01*
G01*
X42713900Y2637500D01*
G75*
G02*
X42476400Y2875000I0J237500D01*
G01*
X42476400Y3475000D01*
G75*
G02*
X42713900Y3712500I237500J0D01*
G01*
G37*
G04 #@! TD.AperFunction*
G04 #@! TA.AperFunction,SMDPad,CuDef*
G36*
G01*
X42713900Y5437500D02*
X43188900Y5437500D01*
G75*
G02*
X43426400Y5200000I0J-237500D01*
G01*
X43426400Y4600000D01*
G75*
G02*
X43188900Y4362500I-237500J0D01*
G01*
X42713900Y4362500D01*
G75*
G02*
X42476400Y4600000I0J237500D01*
G01*
X42476400Y5200000D01*
G75*
G02*
X42713900Y5437500I237500J0D01*
G01*
G37*
G04 #@! TD.AperFunction*
G04 #@! TA.AperFunction,SMDPad,CuDef*
G36*
G01*
X39077900Y5005400D02*
X39077900Y5205400D01*
G75*
G02*
X39177900Y5305400I100000J0D01*
G01*
X39612900Y5305400D01*
G75*
G02*
X39712900Y5205400I0J-100000D01*
G01*
X39712900Y5005400D01*
G75*
G02*
X39612900Y4905400I-100000J0D01*
G01*
X39177900Y4905400D01*
G75*
G02*
X39077900Y5005400I0J100000D01*
G01*
G37*
G04 #@! TD.AperFunction*
G04 #@! TA.AperFunction,SMDPad,CuDef*
G36*
G01*
X38262900Y5005400D02*
X38262900Y5205400D01*
G75*
G02*
X38362900Y5305400I100000J0D01*
G01*
X38797900Y5305400D01*
G75*
G02*
X38897900Y5205400I0J-100000D01*
G01*
X38897900Y5005400D01*
G75*
G02*
X38797900Y4905400I-100000J0D01*
G01*
X38362900Y4905400D01*
G75*
G02*
X38262900Y5005400I0J100000D01*
G01*
G37*
G04 #@! TD.AperFunction*
G04 #@! TA.AperFunction,SMDPad,CuDef*
G36*
G01*
X38304800Y2653200D02*
X38504800Y2653200D01*
G75*
G02*
X38604800Y2553200I0J-100000D01*
G01*
X38604800Y2118200D01*
G75*
G02*
X38504800Y2018200I-100000J0D01*
G01*
X38304800Y2018200D01*
G75*
G02*
X38204800Y2118200I0J100000D01*
G01*
X38204800Y2553200D01*
G75*
G02*
X38304800Y2653200I100000J0D01*
G01*
G37*
G04 #@! TD.AperFunction*
G04 #@! TA.AperFunction,SMDPad,CuDef*
G36*
G01*
X38304800Y3468200D02*
X38504800Y3468200D01*
G75*
G02*
X38604800Y3368200I0J-100000D01*
G01*
X38604800Y2933200D01*
G75*
G02*
X38504800Y2833200I-100000J0D01*
G01*
X38304800Y2833200D01*
G75*
G02*
X38204800Y2933200I0J100000D01*
G01*
X38204800Y3368200D01*
G75*
G02*
X38304800Y3468200I100000J0D01*
G01*
G37*
G04 #@! TD.AperFunction*
G04 #@! TA.AperFunction,SMDPad,CuDef*
G36*
G01*
X52245700Y-14823201D02*
X52245700Y-13523199D01*
G75*
G02*
X52495699Y-13273200I249999J0D01*
G01*
X53320701Y-13273200D01*
G75*
G02*
X53570700Y-13523199I0J-249999D01*
G01*
X53570700Y-14823201D01*
G75*
G02*
X53320701Y-15073200I-249999J0D01*
G01*
X52495699Y-15073200D01*
G75*
G02*
X52245700Y-14823201I0J249999D01*
G01*
G37*
G04 #@! TD.AperFunction*
G04 #@! TA.AperFunction,SMDPad,CuDef*
G36*
G01*
X49120700Y-14823201D02*
X49120700Y-13523199D01*
G75*
G02*
X49370699Y-13273200I249999J0D01*
G01*
X50195701Y-13273200D01*
G75*
G02*
X50445700Y-13523199I0J-249999D01*
G01*
X50445700Y-14823201D01*
G75*
G02*
X50195701Y-15073200I-249999J0D01*
G01*
X49370699Y-15073200D01*
G75*
G02*
X49120700Y-14823201I0J249999D01*
G01*
G37*
G04 #@! TD.AperFunction*
G04 #@! TA.AperFunction,SMDPad,CuDef*
G36*
G01*
X51100700Y-12912100D02*
X51100700Y-12437100D01*
G75*
G02*
X51338200Y-12199600I237500J0D01*
G01*
X51938200Y-12199600D01*
G75*
G02*
X52175700Y-12437100I0J-237500D01*
G01*
X52175700Y-12912100D01*
G75*
G02*
X51938200Y-13149600I-237500J0D01*
G01*
X51338200Y-13149600D01*
G75*
G02*
X51100700Y-12912100I0J237500D01*
G01*
G37*
G04 #@! TD.AperFunction*
G04 #@! TA.AperFunction,SMDPad,CuDef*
G36*
G01*
X49375700Y-12912100D02*
X49375700Y-12437100D01*
G75*
G02*
X49613200Y-12199600I237500J0D01*
G01*
X50213200Y-12199600D01*
G75*
G02*
X50450700Y-12437100I0J-237500D01*
G01*
X50450700Y-12912100D01*
G75*
G02*
X50213200Y-13149600I-237500J0D01*
G01*
X49613200Y-13149600D01*
G75*
G02*
X49375700Y-12912100I0J237500D01*
G01*
G37*
G04 #@! TD.AperFunction*
G04 #@! TA.AperFunction,SMDPad,CuDef*
G36*
G01*
X9997201Y-3011600D02*
X8697199Y-3011600D01*
G75*
G02*
X8447200Y-2761601I0J249999D01*
G01*
X8447200Y-1936599D01*
G75*
G02*
X8697199Y-1686600I249999J0D01*
G01*
X9997201Y-1686600D01*
G75*
G02*
X10247200Y-1936599I0J-249999D01*
G01*
X10247200Y-2761601D01*
G75*
G02*
X9997201Y-3011600I-249999J0D01*
G01*
G37*
G04 #@! TD.AperFunction*
G04 #@! TA.AperFunction,SMDPad,CuDef*
G36*
G01*
X9997201Y-6136600D02*
X8697199Y-6136600D01*
G75*
G02*
X8447200Y-5886601I0J249999D01*
G01*
X8447200Y-5061599D01*
G75*
G02*
X8697199Y-4811600I249999J0D01*
G01*
X9997201Y-4811600D01*
G75*
G02*
X10247200Y-5061599I0J-249999D01*
G01*
X10247200Y-5886601D01*
G75*
G02*
X9997201Y-6136600I-249999J0D01*
G01*
G37*
G04 #@! TD.AperFunction*
G04 #@! TA.AperFunction,SMDPad,CuDef*
G36*
G01*
X12245400Y-4397400D02*
X11935400Y-4397400D01*
G75*
G02*
X11780400Y-4242400I0J155000D01*
G01*
X11780400Y-3817400D01*
G75*
G02*
X11935400Y-3662400I155000J0D01*
G01*
X12245400Y-3662400D01*
G75*
G02*
X12400400Y-3817400I0J-155000D01*
G01*
X12400400Y-4242400D01*
G75*
G02*
X12245400Y-4397400I-155000J0D01*
G01*
G37*
G04 #@! TD.AperFunction*
G04 #@! TA.AperFunction,SMDPad,CuDef*
G36*
G01*
X12245400Y-5532400D02*
X11935400Y-5532400D01*
G75*
G02*
X11780400Y-5377400I0J155000D01*
G01*
X11780400Y-4952400D01*
G75*
G02*
X11935400Y-4797400I155000J0D01*
G01*
X12245400Y-4797400D01*
G75*
G02*
X12400400Y-4952400I0J-155000D01*
G01*
X12400400Y-5377400D01*
G75*
G02*
X12245400Y-5532400I-155000J0D01*
G01*
G37*
G04 #@! TD.AperFunction*
G04 #@! TA.AperFunction,SMDPad,CuDef*
G36*
G01*
X10549900Y25395900D02*
X10074900Y25395900D01*
G75*
G02*
X9837400Y25633400I0J237500D01*
G01*
X9837400Y26233400D01*
G75*
G02*
X10074900Y26470900I237500J0D01*
G01*
X10549900Y26470900D01*
G75*
G02*
X10787400Y26233400I0J-237500D01*
G01*
X10787400Y25633400D01*
G75*
G02*
X10549900Y25395900I-237500J0D01*
G01*
G37*
G04 #@! TD.AperFunction*
G04 #@! TA.AperFunction,SMDPad,CuDef*
G36*
G01*
X10549900Y23670900D02*
X10074900Y23670900D01*
G75*
G02*
X9837400Y23908400I0J237500D01*
G01*
X9837400Y24508400D01*
G75*
G02*
X10074900Y24745900I237500J0D01*
G01*
X10549900Y24745900D01*
G75*
G02*
X10787400Y24508400I0J-237500D01*
G01*
X10787400Y23908400D01*
G75*
G02*
X10549900Y23670900I-237500J0D01*
G01*
G37*
G04 #@! TD.AperFunction*
G04 #@! TA.AperFunction,SMDPad,CuDef*
G36*
G01*
X40764400Y27045500D02*
X41074400Y27045500D01*
G75*
G02*
X41229400Y26890500I0J-155000D01*
G01*
X41229400Y26465500D01*
G75*
G02*
X41074400Y26310500I-155000J0D01*
G01*
X40764400Y26310500D01*
G75*
G02*
X40609400Y26465500I0J155000D01*
G01*
X40609400Y26890500D01*
G75*
G02*
X40764400Y27045500I155000J0D01*
G01*
G37*
G04 #@! TD.AperFunction*
G04 #@! TA.AperFunction,SMDPad,CuDef*
G36*
G01*
X40764400Y28180500D02*
X41074400Y28180500D01*
G75*
G02*
X41229400Y28025500I0J-155000D01*
G01*
X41229400Y27600500D01*
G75*
G02*
X41074400Y27445500I-155000J0D01*
G01*
X40764400Y27445500D01*
G75*
G02*
X40609400Y27600500I0J155000D01*
G01*
X40609400Y28025500D01*
G75*
G02*
X40764400Y28180500I155000J0D01*
G01*
G37*
G04 #@! TD.AperFunction*
G04 #@! TA.AperFunction,SMDPad,CuDef*
G36*
G01*
X42507700Y-10162600D02*
X42507700Y-9852600D01*
G75*
G02*
X42662700Y-9697600I155000J0D01*
G01*
X43087700Y-9697600D01*
G75*
G02*
X43242700Y-9852600I0J-155000D01*
G01*
X43242700Y-10162600D01*
G75*
G02*
X43087700Y-10317600I-155000J0D01*
G01*
X42662700Y-10317600D01*
G75*
G02*
X42507700Y-10162600I0J155000D01*
G01*
G37*
G04 #@! TD.AperFunction*
G04 #@! TA.AperFunction,SMDPad,CuDef*
G36*
G01*
X41372700Y-10162600D02*
X41372700Y-9852600D01*
G75*
G02*
X41527700Y-9697600I155000J0D01*
G01*
X41952700Y-9697600D01*
G75*
G02*
X42107700Y-9852600I0J-155000D01*
G01*
X42107700Y-10162600D01*
G75*
G02*
X41952700Y-10317600I-155000J0D01*
G01*
X41527700Y-10317600D01*
G75*
G02*
X41372700Y-10162600I0J155000D01*
G01*
G37*
G04 #@! TD.AperFunction*
G04 #@! TA.AperFunction,SMDPad,CuDef*
G36*
G01*
X25454000Y21084600D02*
X25454000Y20774600D01*
G75*
G02*
X25299000Y20619600I-155000J0D01*
G01*
X24874000Y20619600D01*
G75*
G02*
X24719000Y20774600I0J155000D01*
G01*
X24719000Y21084600D01*
G75*
G02*
X24874000Y21239600I155000J0D01*
G01*
X25299000Y21239600D01*
G75*
G02*
X25454000Y21084600I0J-155000D01*
G01*
G37*
G04 #@! TD.AperFunction*
G04 #@! TA.AperFunction,SMDPad,CuDef*
G36*
G01*
X26589000Y21084600D02*
X26589000Y20774600D01*
G75*
G02*
X26434000Y20619600I-155000J0D01*
G01*
X26009000Y20619600D01*
G75*
G02*
X25854000Y20774600I0J155000D01*
G01*
X25854000Y21084600D01*
G75*
G02*
X26009000Y21239600I155000J0D01*
G01*
X26434000Y21239600D01*
G75*
G02*
X26589000Y21084600I0J-155000D01*
G01*
G37*
G04 #@! TD.AperFunction*
G04 #@! TA.AperFunction,SMDPad,CuDef*
G36*
G01*
X11610400Y25159500D02*
X11300400Y25159500D01*
G75*
G02*
X11145400Y25314500I0J155000D01*
G01*
X11145400Y25739500D01*
G75*
G02*
X11300400Y25894500I155000J0D01*
G01*
X11610400Y25894500D01*
G75*
G02*
X11765400Y25739500I0J-155000D01*
G01*
X11765400Y25314500D01*
G75*
G02*
X11610400Y25159500I-155000J0D01*
G01*
G37*
G04 #@! TD.AperFunction*
G04 #@! TA.AperFunction,SMDPad,CuDef*
G36*
G01*
X11610400Y24024500D02*
X11300400Y24024500D01*
G75*
G02*
X11145400Y24179500I0J155000D01*
G01*
X11145400Y24604500D01*
G75*
G02*
X11300400Y24759500I155000J0D01*
G01*
X11610400Y24759500D01*
G75*
G02*
X11765400Y24604500I0J-155000D01*
G01*
X11765400Y24179500D01*
G75*
G02*
X11610400Y24024500I-155000J0D01*
G01*
G37*
G04 #@! TD.AperFunction*
G04 #@! TA.AperFunction,SMDPad,CuDef*
G36*
G01*
X50813500Y-11712000D02*
X50813500Y-11402000D01*
G75*
G02*
X50968500Y-11247000I155000J0D01*
G01*
X51393500Y-11247000D01*
G75*
G02*
X51548500Y-11402000I0J-155000D01*
G01*
X51548500Y-11712000D01*
G75*
G02*
X51393500Y-11867000I-155000J0D01*
G01*
X50968500Y-11867000D01*
G75*
G02*
X50813500Y-11712000I0J155000D01*
G01*
G37*
G04 #@! TD.AperFunction*
G04 #@! TA.AperFunction,SMDPad,CuDef*
G36*
G01*
X49678500Y-11712000D02*
X49678500Y-11402000D01*
G75*
G02*
X49833500Y-11247000I155000J0D01*
G01*
X50258500Y-11247000D01*
G75*
G02*
X50413500Y-11402000I0J-155000D01*
G01*
X50413500Y-11712000D01*
G75*
G02*
X50258500Y-11867000I-155000J0D01*
G01*
X49833500Y-11867000D01*
G75*
G02*
X49678500Y-11712000I0J155000D01*
G01*
G37*
G04 #@! TD.AperFunction*
G04 #@! TA.AperFunction,SMDPad,CuDef*
G36*
G01*
X32709700Y20729000D02*
X32709700Y20419000D01*
G75*
G02*
X32554700Y20264000I-155000J0D01*
G01*
X32129700Y20264000D01*
G75*
G02*
X31974700Y20419000I0J155000D01*
G01*
X31974700Y20729000D01*
G75*
G02*
X32129700Y20884000I155000J0D01*
G01*
X32554700Y20884000D01*
G75*
G02*
X32709700Y20729000I0J-155000D01*
G01*
G37*
G04 #@! TD.AperFunction*
G04 #@! TA.AperFunction,SMDPad,CuDef*
G36*
G01*
X33844700Y20729000D02*
X33844700Y20419000D01*
G75*
G02*
X33689700Y20264000I-155000J0D01*
G01*
X33264700Y20264000D01*
G75*
G02*
X33109700Y20419000I0J155000D01*
G01*
X33109700Y20729000D01*
G75*
G02*
X33264700Y20884000I155000J0D01*
G01*
X33689700Y20884000D01*
G75*
G02*
X33844700Y20729000I0J-155000D01*
G01*
G37*
G04 #@! TD.AperFunction*
G04 #@! TA.AperFunction,SMDPad,CuDef*
G36*
G01*
X11159500Y-4120000D02*
X10684500Y-4120000D01*
G75*
G02*
X10447000Y-3882500I0J237500D01*
G01*
X10447000Y-3282500D01*
G75*
G02*
X10684500Y-3045000I237500J0D01*
G01*
X11159500Y-3045000D01*
G75*
G02*
X11397000Y-3282500I0J-237500D01*
G01*
X11397000Y-3882500D01*
G75*
G02*
X11159500Y-4120000I-237500J0D01*
G01*
G37*
G04 #@! TD.AperFunction*
G04 #@! TA.AperFunction,SMDPad,CuDef*
G36*
G01*
X11159500Y-5845000D02*
X10684500Y-5845000D01*
G75*
G02*
X10447000Y-5607500I0J237500D01*
G01*
X10447000Y-5007500D01*
G75*
G02*
X10684500Y-4770000I237500J0D01*
G01*
X11159500Y-4770000D01*
G75*
G02*
X11397000Y-5007500I0J-237500D01*
G01*
X11397000Y-5607500D01*
G75*
G02*
X11159500Y-5845000I-237500J0D01*
G01*
G37*
G04 #@! TD.AperFunction*
G04 #@! TA.AperFunction,SMDPad,CuDef*
G36*
G01*
X41748700Y26700600D02*
X42223700Y26700600D01*
G75*
G02*
X42461200Y26463100I0J-237500D01*
G01*
X42461200Y25863100D01*
G75*
G02*
X42223700Y25625600I-237500J0D01*
G01*
X41748700Y25625600D01*
G75*
G02*
X41511200Y25863100I0J237500D01*
G01*
X41511200Y26463100D01*
G75*
G02*
X41748700Y26700600I237500J0D01*
G01*
G37*
G04 #@! TD.AperFunction*
G04 #@! TA.AperFunction,SMDPad,CuDef*
G36*
G01*
X41748700Y28425600D02*
X42223700Y28425600D01*
G75*
G02*
X42461200Y28188100I0J-237500D01*
G01*
X42461200Y27588100D01*
G75*
G02*
X42223700Y27350600I-237500J0D01*
G01*
X41748700Y27350600D01*
G75*
G02*
X41511200Y27588100I0J237500D01*
G01*
X41511200Y28188100D01*
G75*
G02*
X41748700Y28425600I237500J0D01*
G01*
G37*
G04 #@! TD.AperFunction*
G04 #@! TA.AperFunction,SMDPad,CuDef*
G36*
G01*
X43571399Y25643000D02*
X44871401Y25643000D01*
G75*
G02*
X45121400Y25393001I0J-249999D01*
G01*
X45121400Y24567999D01*
G75*
G02*
X44871401Y24318000I-249999J0D01*
G01*
X43571399Y24318000D01*
G75*
G02*
X43321400Y24567999I0J249999D01*
G01*
X43321400Y25393001D01*
G75*
G02*
X43571399Y25643000I249999J0D01*
G01*
G37*
G04 #@! TD.AperFunction*
G04 #@! TA.AperFunction,SMDPad,CuDef*
G36*
G01*
X43571399Y28768000D02*
X44871401Y28768000D01*
G75*
G02*
X45121400Y28518001I0J-249999D01*
G01*
X45121400Y27692999D01*
G75*
G02*
X44871401Y27443000I-249999J0D01*
G01*
X43571399Y27443000D01*
G75*
G02*
X43321400Y27692999I0J249999D01*
G01*
X43321400Y28518001D01*
G75*
G02*
X43571399Y28768000I249999J0D01*
G01*
G37*
G04 #@! TD.AperFunction*
G04 #@! TA.AperFunction,SMDPad,CuDef*
G36*
G01*
X9514601Y26554000D02*
X8214599Y26554000D01*
G75*
G02*
X7964600Y26803999I0J249999D01*
G01*
X7964600Y27629001D01*
G75*
G02*
X8214599Y27879000I249999J0D01*
G01*
X9514601Y27879000D01*
G75*
G02*
X9764600Y27629001I0J-249999D01*
G01*
X9764600Y26803999D01*
G75*
G02*
X9514601Y26554000I-249999J0D01*
G01*
G37*
G04 #@! TD.AperFunction*
G04 #@! TA.AperFunction,SMDPad,CuDef*
G36*
G01*
X9514601Y23429000D02*
X8214599Y23429000D01*
G75*
G02*
X7964600Y23678999I0J249999D01*
G01*
X7964600Y24504001D01*
G75*
G02*
X8214599Y24754000I249999J0D01*
G01*
X9514601Y24754000D01*
G75*
G02*
X9764600Y24504001I0J-249999D01*
G01*
X9764600Y23678999D01*
G75*
G02*
X9514601Y23429000I-249999J0D01*
G01*
G37*
G04 #@! TD.AperFunction*
D18*
X30343400Y2849600D03*
X30343400Y3339600D03*
X30343400Y3829600D03*
X30343400Y4319600D03*
X30343400Y4809600D03*
X30343400Y5299600D03*
X30343400Y5789600D03*
X30343400Y6279600D03*
X30343400Y6769600D03*
X30343400Y7259600D03*
X29853400Y2849600D03*
X29853400Y3339600D03*
X29853400Y3829600D03*
X29853400Y4319600D03*
X29853400Y4809600D03*
X29853400Y5299600D03*
X29853400Y5789600D03*
X29853400Y6279600D03*
X29853400Y6769600D03*
X29853400Y7259600D03*
X29363400Y2849600D03*
X29363400Y3339600D03*
X29363400Y3829600D03*
X29363400Y4319600D03*
X29363400Y4809600D03*
X29363400Y5299600D03*
X29363400Y5789600D03*
X29363400Y6279600D03*
X29363400Y6769600D03*
X29363400Y7259600D03*
X28873400Y2849600D03*
X28873400Y3339600D03*
X28873400Y3829600D03*
X28873400Y4319600D03*
X28873400Y4809600D03*
X28873400Y5299600D03*
X28873400Y5789600D03*
X28873400Y6279600D03*
X28873400Y6769600D03*
X28873400Y7259600D03*
X28383400Y2849600D03*
X28383400Y3339600D03*
X28383400Y3829600D03*
X28383400Y4319600D03*
X28383400Y4809600D03*
X28383400Y5299600D03*
X28383400Y5789600D03*
X28383400Y6279600D03*
X28383400Y6769600D03*
X28383400Y7259600D03*
X27893400Y2849600D03*
X27893400Y3339600D03*
X27893400Y3829600D03*
X27893400Y4319600D03*
X27893400Y4809600D03*
X27893400Y5299600D03*
X27893400Y5789600D03*
X27893400Y6279600D03*
X27893400Y6769600D03*
X27893400Y7259600D03*
X27403400Y2849600D03*
X27403400Y3339600D03*
X27403400Y3829600D03*
X27403400Y4319600D03*
X27403400Y4809600D03*
X27403400Y5299600D03*
X27403400Y5789600D03*
X27403400Y6279600D03*
X27403400Y6769600D03*
X27403400Y7259600D03*
X26913400Y2849600D03*
X26913400Y3339600D03*
X26913400Y3829600D03*
X26913400Y4319600D03*
X26913400Y4809600D03*
X26913400Y5299600D03*
X26913400Y5789600D03*
X26913400Y6279600D03*
X26913400Y6769600D03*
X26913400Y7259600D03*
X26423400Y2849600D03*
X26423400Y3339600D03*
X26423400Y3829600D03*
X26423400Y4319600D03*
X26423400Y4809600D03*
X26423400Y5299600D03*
X26423400Y5789600D03*
X26423400Y6279600D03*
X26423400Y6769600D03*
X26423400Y7259600D03*
X25933400Y2849600D03*
X25933400Y3339600D03*
X25933400Y3829600D03*
X25933400Y4319600D03*
X25933400Y4809600D03*
X25933400Y5299600D03*
X25933400Y5789600D03*
X25933400Y6279600D03*
X25933400Y6769600D03*
X25933400Y7259600D03*
D19*
X30343400Y2849600D03*
X30343400Y3339600D03*
X30343400Y3829600D03*
X30343400Y4319600D03*
X30343400Y4809600D03*
X30343400Y5299600D03*
X30343400Y5789600D03*
X30343400Y6279600D03*
X30343400Y6769600D03*
X30343400Y7259600D03*
X29853400Y2849600D03*
X29853400Y3339600D03*
X29853400Y3829600D03*
X29853400Y4319600D03*
X29853400Y4809600D03*
X29853400Y5299600D03*
X29853400Y5789600D03*
X29853400Y6279600D03*
X29853400Y6769600D03*
X29853400Y7259600D03*
X29363400Y2849600D03*
X29363400Y3339600D03*
X29363400Y3829600D03*
X29363400Y4319600D03*
X29363400Y4809600D03*
X29363400Y5299600D03*
X29363400Y5789600D03*
X29363400Y6279600D03*
X29363400Y6769600D03*
X29363400Y7259600D03*
X28873400Y2849600D03*
X28873400Y3339600D03*
X28873400Y3829600D03*
X28873400Y4319600D03*
X28873400Y4809600D03*
X28873400Y5299600D03*
X28873400Y5789600D03*
X28873400Y6279600D03*
X28873400Y6769600D03*
X28873400Y7259600D03*
X28383400Y2849600D03*
X28383400Y3339600D03*
X28383400Y3829600D03*
X28383400Y4319600D03*
X28383400Y4809600D03*
X28383400Y5299600D03*
X28383400Y5789600D03*
X28383400Y6279600D03*
X28383400Y6769600D03*
X28383400Y7259600D03*
X27893400Y2849600D03*
X27893400Y3339600D03*
X27893400Y3829600D03*
X27893400Y4319600D03*
X27893400Y4809600D03*
X27893400Y5299600D03*
X27893400Y5789600D03*
X27893400Y6279600D03*
X27893400Y6769600D03*
X27893400Y7259600D03*
X27403400Y2849600D03*
X27403400Y3339600D03*
X27403400Y3829600D03*
X27403400Y4319600D03*
X27403400Y4809600D03*
X27403400Y5299600D03*
X27403400Y5789600D03*
X27403400Y6279600D03*
X27403400Y6769600D03*
X27403400Y7259600D03*
X26913400Y2849600D03*
X26913400Y3339600D03*
X26913400Y3829600D03*
X26913400Y4319600D03*
X26913400Y4809600D03*
X26913400Y5299600D03*
X26913400Y5789600D03*
X26913400Y6279600D03*
X26913400Y6769600D03*
X26913400Y7259600D03*
X26423400Y2849600D03*
X26423400Y3339600D03*
X26423400Y3829600D03*
X26423400Y4319600D03*
X26423400Y4809600D03*
X26423400Y5299600D03*
X26423400Y5789600D03*
X26423400Y6279600D03*
X26423400Y6769600D03*
X26423400Y7259600D03*
X25933400Y2849600D03*
X25933400Y3339600D03*
X25933400Y3829600D03*
X25933400Y4319600D03*
X25933400Y4809600D03*
X25933400Y5299600D03*
X25933400Y5789600D03*
X25933400Y6279600D03*
X25933400Y6769600D03*
X25933400Y7259600D03*
D20*
X26138400Y8829600D03*
X26938400Y8829600D03*
X27738400Y8829600D03*
X28538400Y8829600D03*
X29338400Y8829600D03*
X30138400Y8829600D03*
D21*
X31913400Y7054600D03*
X31913400Y6254600D03*
X31913400Y5454600D03*
X31913400Y4654600D03*
X31913400Y3854600D03*
X31913400Y3054600D03*
D20*
X30138400Y1279600D03*
X29338400Y1279600D03*
X28538400Y1279600D03*
X27738400Y1279600D03*
X26938400Y1279600D03*
X26138400Y1279600D03*
D21*
X24363400Y3054600D03*
X24363400Y3854600D03*
X24363400Y4654600D03*
X24363400Y5454600D03*
X24363400Y6254600D03*
X24363400Y7054600D03*
D22*
X33451800Y5105400D02*
X36260000Y5105400D01*
D23*
X39928800Y5105400D02*
X59000000Y5105400D01*
X31927800Y26720800D02*
X36000000Y26720800D01*
X31927800Y6908800D02*
X31927800Y26720800D01*
X7300000Y-5562600D02*
X26644600Y-5562600D01*
X26644600Y1244600D02*
X26644600Y-3810000D01*
X26644600Y23977600D02*
X7300000Y23977600D01*
X26644600Y9525000D02*
X26644600Y23500000D01*
X46748300Y30632400D02*
X44221400Y28105500D01*
X48285400Y30632400D02*
X46748300Y30632400D01*
X4113600Y-5435600D02*
X4113600Y-10458000D01*
X3554800Y23977600D02*
X3554800Y29000000D01*
X43282800Y-5054600D02*
X43282800Y-10077000D01*
X41000000Y-5054600D02*
X28930600Y-5054600D01*
X28930600Y1270000D02*
X28930600Y-4500000D01*
X-6883400Y5105400D02*
X-12213400Y5105400D01*
X24333200Y5080000D02*
X2997200Y5080000D01*
D24*
X2565400Y5054600D02*
X-5400000Y5054600D01*
D25*
X-12291855Y3508400D02*
X-7721223Y3508400D01*
X-7715689Y3451958D01*
X-7708521Y3373200D01*
X-7707689Y3370375D01*
X-7707402Y3367443D01*
X-7684541Y3291722D01*
X-7662234Y3215930D01*
X-7660871Y3213323D01*
X-7660019Y3210501D01*
X-7622884Y3140660D01*
X-7586282Y3070647D01*
X-7584437Y3068353D01*
X-7583054Y3065751D01*
X-7533078Y3004474D01*
X-7483557Y2942883D01*
X-7481301Y2940990D01*
X-7479439Y2938707D01*
X-7418481Y2888278D01*
X-7357972Y2837505D01*
X-7355395Y2836088D01*
X-7353122Y2834208D01*
X-7283551Y2796591D01*
X-7214311Y2758526D01*
X-7211502Y2757635D01*
X-7208913Y2756235D01*
X-7133445Y2732874D01*
X-7058046Y2708956D01*
X-7055117Y2708627D01*
X-7052305Y2707757D01*
X-6973667Y2699492D01*
X-6895128Y2690682D01*
X-6889478Y2690642D01*
X-6889264Y2690620D01*
X-6889050Y2690640D01*
X-6883400Y2690600D01*
X-3784600Y2690600D01*
X-3733607Y2695600D01*
X2681288Y2695600D01*
X2689411Y2696400D01*
X3810000Y2696400D01*
X3892911Y2704530D01*
X3975832Y2712076D01*
X3978809Y2712952D01*
X3981897Y2713255D01*
X4061578Y2737312D01*
X4141527Y2760842D01*
X4144280Y2762281D01*
X4147247Y2763177D01*
X4220777Y2802274D01*
X4294593Y2840864D01*
X4297009Y2842807D01*
X4299752Y2844265D01*
X4364333Y2896936D01*
X4429202Y2949092D01*
X4431196Y2951469D01*
X4433601Y2953430D01*
X4486697Y3017612D01*
X4540225Y3081404D01*
X4541719Y3084122D01*
X4543698Y3086514D01*
X4583302Y3159761D01*
X4623435Y3232761D01*
X4624374Y3235721D01*
X4625849Y3238449D01*
X4650460Y3317956D01*
X4675661Y3397398D01*
X4676007Y3400484D01*
X4676924Y3403446D01*
X4685285Y3483000D01*
X22811337Y3483000D01*
X22814134Y3454600D01*
X22799360Y3304600D01*
X22799360Y2804600D01*
X22815482Y2640911D01*
X22863228Y2483513D01*
X22940764Y2338454D01*
X23045109Y2211309D01*
X23172254Y2106964D01*
X23317313Y2029428D01*
X23474711Y1981682D01*
X23638400Y1965560D01*
X25047100Y1965560D01*
X25047100Y304800D01*
X25047600Y299699D01*
X25047601Y-2880192D01*
X25047181Y-2883935D01*
X25047142Y-2889558D01*
X25047120Y-2889767D01*
X25047139Y-2889976D01*
X25047100Y-2895600D01*
X25047100Y-3965600D01*
X13035400Y-3965600D01*
X13035400Y-3902898D01*
X12876652Y-3902898D01*
X13035400Y-3744150D01*
X13038472Y-3662400D01*
X13026212Y-3537918D01*
X12989902Y-3418220D01*
X12930937Y-3307906D01*
X12851585Y-3211215D01*
X12754894Y-3131863D01*
X12644580Y-3072898D01*
X12524882Y-3036588D01*
X12400400Y-3024328D01*
X12376150Y-3027400D01*
X12217400Y-3186150D01*
X12217400Y-3902900D01*
X12237400Y-3902900D01*
X12237400Y-3958360D01*
X12033100Y-3958360D01*
X12032000Y-3868250D01*
X11963400Y-3799650D01*
X11963400Y-3365350D01*
X12032000Y-3296750D01*
X12035072Y-3045000D01*
X12022812Y-2920518D01*
X11986502Y-2800820D01*
X11927537Y-2690506D01*
X11848185Y-2593815D01*
X11751494Y-2514463D01*
X11641180Y-2455498D01*
X11521482Y-2419188D01*
X11397000Y-2406928D01*
X11207750Y-2410000D01*
X11049000Y-2568750D01*
X11049000Y-3455500D01*
X11179589Y-3455500D01*
X11154588Y-3537918D01*
X11142328Y-3662400D01*
X11144098Y-3709500D01*
X11049000Y-3709500D01*
X11049000Y-3729500D01*
X10795000Y-3729500D01*
X10795000Y-3709500D01*
X10775000Y-3709500D01*
X10775000Y-3455500D01*
X10795000Y-3455500D01*
X10795000Y-3333798D01*
X10836702Y-3255780D01*
X10873012Y-3136082D01*
X10885272Y-3011600D01*
X10882200Y-2634850D01*
X10723450Y-2476100D01*
X10702350Y-2476100D01*
X10636250Y-2410000D01*
X10447000Y-2406928D01*
X10322518Y-2419188D01*
X10202820Y-2455498D01*
X10164277Y-2476100D01*
X9474200Y-2476100D01*
X9474200Y-3487850D01*
X9632950Y-3646600D01*
X9812000Y-3647495D01*
X9812000Y-3709502D01*
X9970748Y-3709502D01*
X9812000Y-3868250D01*
X9810812Y-3965600D01*
X8119633Y-3965600D01*
X8055758Y-3931458D01*
X7851461Y-3869486D01*
X7639000Y-3848560D01*
X6839000Y-3848560D01*
X6626539Y-3869486D01*
X6422242Y-3931458D01*
X6233962Y-4032096D01*
X6068932Y-4167532D01*
X5933496Y-4332562D01*
X5832858Y-4520842D01*
X5770886Y-4725139D01*
X5749960Y-4937600D01*
X5749960Y-5170901D01*
X5726107Y-5249533D01*
X5710600Y-5406980D01*
X5710600Y-5357145D01*
X5687493Y-5122533D01*
X5626428Y-4921230D01*
X5607114Y-4725139D01*
X5545142Y-4520842D01*
X5444504Y-4332562D01*
X5309068Y-4167532D01*
X5144038Y-4032096D01*
X4955758Y-3931458D01*
X4751461Y-3869486D01*
X4539000Y-3848560D01*
X4293181Y-3848560D01*
X4113600Y-3830873D01*
X3934018Y-3848560D01*
X3739000Y-3848560D01*
X3526539Y-3869486D01*
X3322242Y-3931458D01*
X3133962Y-4032096D01*
X2968932Y-4167532D01*
X2833496Y-4332562D01*
X2732858Y-4520842D01*
X2670886Y-4725139D01*
X2668255Y-4751847D01*
X2631026Y-4821499D01*
X2539707Y-5122534D01*
X2516600Y-5357146D01*
X2516601Y-9693059D01*
X-2842064Y-9675604D01*
X-2922107Y-9683190D01*
X-3002200Y-9690479D01*
X-3003708Y-9690923D01*
X-3005272Y-9691071D01*
X-3082468Y-9714103D01*
X-3159470Y-9736766D01*
X-3160857Y-9737491D01*
X-3162368Y-9737942D01*
X-3233620Y-9775531D01*
X-3304753Y-9812718D01*
X-3305977Y-9813702D01*
X-3307368Y-9814436D01*
X-3369862Y-9865067D01*
X-3432517Y-9915443D01*
X-3433527Y-9916647D01*
X-3434748Y-9917636D01*
X-3486256Y-9979487D01*
X-3537895Y-10041028D01*
X-3538650Y-10042402D01*
X-3539658Y-10043612D01*
X-3578191Y-10114326D01*
X-3616874Y-10184689D01*
X-3617349Y-10186185D01*
X-3618101Y-10187566D01*
X-3642100Y-10264212D01*
X-3666444Y-10340954D01*
X-3666620Y-10342520D01*
X-3667088Y-10344016D01*
X-3675745Y-10423872D01*
X-3684718Y-10503872D01*
X-3684739Y-10506841D01*
X-3684756Y-10507000D01*
X-3684741Y-10507170D01*
X-3684800Y-10515600D01*
X-3684800Y-16078200D01*
X-3677089Y-16156842D01*
X-3669921Y-16235600D01*
X-3669089Y-16238425D01*
X-3668802Y-16241357D01*
X-3645941Y-16317078D01*
X-3623634Y-16392870D01*
X-3622271Y-16395477D01*
X-3621419Y-16398299D01*
X-3584284Y-16468140D01*
X-3547682Y-16538153D01*
X-3545837Y-16540447D01*
X-3544454Y-16543049D01*
X-3494478Y-16604326D01*
X-3444957Y-16665917D01*
X-3442701Y-16667810D01*
X-3440839Y-16670093D01*
X-3379881Y-16720522D01*
X-3319372Y-16771295D01*
X-3316795Y-16772712D01*
X-3314522Y-16774592D01*
X-3244951Y-16812209D01*
X-3195156Y-16839584D01*
X-14991225Y-16843515D01*
X-15017372Y-3011600D01*
X7809128Y-3011600D01*
X7821388Y-3136082D01*
X7857698Y-3255780D01*
X7916663Y-3366094D01*
X7996015Y-3462785D01*
X8092706Y-3542137D01*
X8203020Y-3601102D01*
X8322718Y-3637412D01*
X8447200Y-3649672D01*
X9061450Y-3646600D01*
X9220200Y-3487850D01*
X9220200Y-2476100D01*
X7970950Y-2476100D01*
X7812200Y-2634850D01*
X7809128Y-3011600D01*
X-15017372Y-3011600D01*
X-15019876Y-1686600D01*
X7809128Y-1686600D01*
X7812200Y-2063350D01*
X7970950Y-2222100D01*
X9220200Y-2222100D01*
X9220200Y-1210350D01*
X9474200Y-1210350D01*
X9474200Y-2222100D01*
X10723450Y-2222100D01*
X10882200Y-2063350D01*
X10885272Y-1686600D01*
X10873012Y-1562118D01*
X10836702Y-1442420D01*
X10777737Y-1332106D01*
X10698385Y-1235415D01*
X10601694Y-1156063D01*
X10491380Y-1097098D01*
X10371682Y-1060788D01*
X10247200Y-1048528D01*
X9632950Y-1051600D01*
X9474200Y-1210350D01*
X9220200Y-1210350D01*
X9061450Y-1051600D01*
X8447200Y-1048528D01*
X8322718Y-1060788D01*
X8203020Y-1097098D01*
X8092706Y-1156063D01*
X7996015Y-1235415D01*
X7916663Y-1332106D01*
X7857698Y-1442420D01*
X7821388Y-1562118D01*
X7809128Y-1686600D01*
X-15019876Y-1686600D01*
X-15022059Y-532271D01*
X-13061950Y-529600D01*
X-12903200Y-370850D01*
X-12903200Y728400D01*
X-12649200Y728400D01*
X-12649200Y-370850D01*
X-12490450Y-529600D01*
X-10236200Y-532672D01*
X-10111718Y-520412D01*
X-9992020Y-484102D01*
X-9881706Y-425137D01*
X-9785015Y-345785D01*
X-9705663Y-249094D01*
X-9646698Y-138780D01*
X-9610388Y-19082D01*
X-9598128Y105400D01*
X-9601200Y569650D01*
X-9759950Y728400D01*
X-12649200Y728400D01*
X-12903200Y728400D01*
X-12923200Y728400D01*
X-12923200Y982400D01*
X-12903200Y982400D01*
X-12903200Y2081650D01*
X-12649200Y2081650D01*
X-12649200Y982400D01*
X-9759950Y982400D01*
X-9601200Y1141150D01*
X-9598128Y1605400D01*
X-9610388Y1729882D01*
X-9646698Y1849580D01*
X-9705663Y1959894D01*
X-9785015Y2056585D01*
X-9881706Y2135937D01*
X-9992020Y2194902D01*
X-10111718Y2231212D01*
X-10236200Y2243472D01*
X-12490450Y2240400D01*
X-12649200Y2081650D01*
X-12903200Y2081650D01*
X-13061950Y2240400D01*
X-15027306Y2243078D01*
X-15029713Y3516360D01*
X-12372675Y3516360D01*
X-12291855Y3508400D01*
G04 #@! TA.AperFunction,Conductor*
D26*
G36*
X-12291855Y3508400D02*
G01*
X-7721223Y3508400D01*
X-7715689Y3451958D01*
X-7708521Y3373200D01*
X-7707689Y3370375D01*
X-7707402Y3367443D01*
X-7684541Y3291722D01*
X-7662234Y3215930D01*
X-7660871Y3213323D01*
X-7660019Y3210501D01*
X-7622884Y3140660D01*
X-7586282Y3070647D01*
X-7584437Y3068353D01*
X-7583054Y3065751D01*
X-7533078Y3004474D01*
X-7483557Y2942883D01*
X-7481301Y2940990D01*
X-7479439Y2938707D01*
X-7418481Y2888278D01*
X-7357972Y2837505D01*
X-7355395Y2836088D01*
X-7353122Y2834208D01*
X-7283551Y2796591D01*
X-7214311Y2758526D01*
X-7211502Y2757635D01*
X-7208913Y2756235D01*
X-7133445Y2732874D01*
X-7058046Y2708956D01*
X-7055117Y2708627D01*
X-7052305Y2707757D01*
X-6973667Y2699492D01*
X-6895128Y2690682D01*
X-6889478Y2690642D01*
X-6889264Y2690620D01*
X-6889050Y2690640D01*
X-6883400Y2690600D01*
X-3784600Y2690600D01*
X-3733607Y2695600D01*
X2681288Y2695600D01*
X2689411Y2696400D01*
X3810000Y2696400D01*
X3892911Y2704530D01*
X3975832Y2712076D01*
X3978809Y2712952D01*
X3981897Y2713255D01*
X4061578Y2737312D01*
X4141527Y2760842D01*
X4144280Y2762281D01*
X4147247Y2763177D01*
X4220777Y2802274D01*
X4294593Y2840864D01*
X4297009Y2842807D01*
X4299752Y2844265D01*
X4364333Y2896936D01*
X4429202Y2949092D01*
X4431196Y2951469D01*
X4433601Y2953430D01*
X4486697Y3017612D01*
X4540225Y3081404D01*
X4541719Y3084122D01*
X4543698Y3086514D01*
X4583302Y3159761D01*
X4623435Y3232761D01*
X4624374Y3235721D01*
X4625849Y3238449D01*
X4650460Y3317956D01*
X4675661Y3397398D01*
X4676007Y3400484D01*
X4676924Y3403446D01*
X4685285Y3483000D01*
X22811337Y3483000D01*
X22814134Y3454600D01*
X22799360Y3304600D01*
X22799360Y2804600D01*
X22815482Y2640911D01*
X22863228Y2483513D01*
X22940764Y2338454D01*
X23045109Y2211309D01*
X23172254Y2106964D01*
X23317313Y2029428D01*
X23474711Y1981682D01*
X23638400Y1965560D01*
X25047100Y1965560D01*
X25047100Y304800D01*
X25047600Y299699D01*
X25047601Y-2880192D01*
X25047181Y-2883935D01*
X25047142Y-2889558D01*
X25047120Y-2889767D01*
X25047139Y-2889976D01*
X25047100Y-2895600D01*
X25047100Y-3965600D01*
X13035400Y-3965600D01*
X13035400Y-3902898D01*
X12876652Y-3902898D01*
X13035400Y-3744150D01*
X13038472Y-3662400D01*
X13026212Y-3537918D01*
X12989902Y-3418220D01*
X12930937Y-3307906D01*
X12851585Y-3211215D01*
X12754894Y-3131863D01*
X12644580Y-3072898D01*
X12524882Y-3036588D01*
X12400400Y-3024328D01*
X12376150Y-3027400D01*
X12217400Y-3186150D01*
X12217400Y-3902900D01*
X12237400Y-3902900D01*
X12237400Y-3958360D01*
X12033100Y-3958360D01*
X12032000Y-3868250D01*
X11963400Y-3799650D01*
X11963400Y-3365350D01*
X12032000Y-3296750D01*
X12035072Y-3045000D01*
X12022812Y-2920518D01*
X11986502Y-2800820D01*
X11927537Y-2690506D01*
X11848185Y-2593815D01*
X11751494Y-2514463D01*
X11641180Y-2455498D01*
X11521482Y-2419188D01*
X11397000Y-2406928D01*
X11207750Y-2410000D01*
X11049000Y-2568750D01*
X11049000Y-3455500D01*
X11179589Y-3455500D01*
X11154588Y-3537918D01*
X11142328Y-3662400D01*
X11144098Y-3709500D01*
X11049000Y-3709500D01*
X11049000Y-3729500D01*
X10795000Y-3729500D01*
X10795000Y-3709500D01*
X10775000Y-3709500D01*
X10775000Y-3455500D01*
X10795000Y-3455500D01*
X10795000Y-3333798D01*
X10836702Y-3255780D01*
X10873012Y-3136082D01*
X10885272Y-3011600D01*
X10882200Y-2634850D01*
X10723450Y-2476100D01*
X10702350Y-2476100D01*
X10636250Y-2410000D01*
X10447000Y-2406928D01*
X10322518Y-2419188D01*
X10202820Y-2455498D01*
X10164277Y-2476100D01*
X9474200Y-2476100D01*
X9474200Y-3487850D01*
X9632950Y-3646600D01*
X9812000Y-3647495D01*
X9812000Y-3709502D01*
X9970748Y-3709502D01*
X9812000Y-3868250D01*
X9810812Y-3965600D01*
X8119633Y-3965600D01*
X8055758Y-3931458D01*
X7851461Y-3869486D01*
X7639000Y-3848560D01*
X6839000Y-3848560D01*
X6626539Y-3869486D01*
X6422242Y-3931458D01*
X6233962Y-4032096D01*
X6068932Y-4167532D01*
X5933496Y-4332562D01*
X5832858Y-4520842D01*
X5770886Y-4725139D01*
X5749960Y-4937600D01*
X5749960Y-5170901D01*
X5726107Y-5249533D01*
X5710600Y-5406980D01*
X5710600Y-5357145D01*
X5687493Y-5122533D01*
X5626428Y-4921230D01*
X5607114Y-4725139D01*
X5545142Y-4520842D01*
X5444504Y-4332562D01*
X5309068Y-4167532D01*
X5144038Y-4032096D01*
X4955758Y-3931458D01*
X4751461Y-3869486D01*
X4539000Y-3848560D01*
X4293181Y-3848560D01*
X4113600Y-3830873D01*
X3934018Y-3848560D01*
X3739000Y-3848560D01*
X3526539Y-3869486D01*
X3322242Y-3931458D01*
X3133962Y-4032096D01*
X2968932Y-4167532D01*
X2833496Y-4332562D01*
X2732858Y-4520842D01*
X2670886Y-4725139D01*
X2668255Y-4751847D01*
X2631026Y-4821499D01*
X2539707Y-5122534D01*
X2516600Y-5357146D01*
X2516601Y-9693059D01*
X-2842064Y-9675604D01*
X-2922107Y-9683190D01*
X-3002200Y-9690479D01*
X-3003708Y-9690923D01*
X-3005272Y-9691071D01*
X-3082468Y-9714103D01*
X-3159470Y-9736766D01*
X-3160857Y-9737491D01*
X-3162368Y-9737942D01*
X-3233620Y-9775531D01*
X-3304753Y-9812718D01*
X-3305977Y-9813702D01*
X-3307368Y-9814436D01*
X-3369862Y-9865067D01*
X-3432517Y-9915443D01*
X-3433527Y-9916647D01*
X-3434748Y-9917636D01*
X-3486256Y-9979487D01*
X-3537895Y-10041028D01*
X-3538650Y-10042402D01*
X-3539658Y-10043612D01*
X-3578191Y-10114326D01*
X-3616874Y-10184689D01*
X-3617349Y-10186185D01*
X-3618101Y-10187566D01*
X-3642100Y-10264212D01*
X-3666444Y-10340954D01*
X-3666620Y-10342520D01*
X-3667088Y-10344016D01*
X-3675745Y-10423872D01*
X-3684718Y-10503872D01*
X-3684739Y-10506841D01*
X-3684756Y-10507000D01*
X-3684741Y-10507170D01*
X-3684800Y-10515600D01*
X-3684800Y-16078200D01*
X-3677089Y-16156842D01*
X-3669921Y-16235600D01*
X-3669089Y-16238425D01*
X-3668802Y-16241357D01*
X-3645941Y-16317078D01*
X-3623634Y-16392870D01*
X-3622271Y-16395477D01*
X-3621419Y-16398299D01*
X-3584284Y-16468140D01*
X-3547682Y-16538153D01*
X-3545837Y-16540447D01*
X-3544454Y-16543049D01*
X-3494478Y-16604326D01*
X-3444957Y-16665917D01*
X-3442701Y-16667810D01*
X-3440839Y-16670093D01*
X-3379881Y-16720522D01*
X-3319372Y-16771295D01*
X-3316795Y-16772712D01*
X-3314522Y-16774592D01*
X-3244951Y-16812209D01*
X-3195156Y-16839584D01*
X-14991225Y-16843515D01*
X-15017372Y-3011600D01*
X7809128Y-3011600D01*
X7821388Y-3136082D01*
X7857698Y-3255780D01*
X7916663Y-3366094D01*
X7996015Y-3462785D01*
X8092706Y-3542137D01*
X8203020Y-3601102D01*
X8322718Y-3637412D01*
X8447200Y-3649672D01*
X9061450Y-3646600D01*
X9220200Y-3487850D01*
X9220200Y-2476100D01*
X7970950Y-2476100D01*
X7812200Y-2634850D01*
X7809128Y-3011600D01*
X-15017372Y-3011600D01*
X-15019876Y-1686600D01*
X7809128Y-1686600D01*
X7812200Y-2063350D01*
X7970950Y-2222100D01*
X9220200Y-2222100D01*
X9220200Y-1210350D01*
X9474200Y-1210350D01*
X9474200Y-2222100D01*
X10723450Y-2222100D01*
X10882200Y-2063350D01*
X10885272Y-1686600D01*
X10873012Y-1562118D01*
X10836702Y-1442420D01*
X10777737Y-1332106D01*
X10698385Y-1235415D01*
X10601694Y-1156063D01*
X10491380Y-1097098D01*
X10371682Y-1060788D01*
X10247200Y-1048528D01*
X9632950Y-1051600D01*
X9474200Y-1210350D01*
X9220200Y-1210350D01*
X9061450Y-1051600D01*
X8447200Y-1048528D01*
X8322718Y-1060788D01*
X8203020Y-1097098D01*
X8092706Y-1156063D01*
X7996015Y-1235415D01*
X7916663Y-1332106D01*
X7857698Y-1442420D01*
X7821388Y-1562118D01*
X7809128Y-1686600D01*
X-15019876Y-1686600D01*
X-15022059Y-532271D01*
X-13061950Y-529600D01*
X-12903200Y-370850D01*
X-12903200Y728400D01*
X-12649200Y728400D01*
X-12649200Y-370850D01*
X-12490450Y-529600D01*
X-10236200Y-532672D01*
X-10111718Y-520412D01*
X-9992020Y-484102D01*
X-9881706Y-425137D01*
X-9785015Y-345785D01*
X-9705663Y-249094D01*
X-9646698Y-138780D01*
X-9610388Y-19082D01*
X-9598128Y105400D01*
X-9601200Y569650D01*
X-9759950Y728400D01*
X-12649200Y728400D01*
X-12903200Y728400D01*
X-12923200Y728400D01*
X-12923200Y982400D01*
X-12903200Y982400D01*
X-12903200Y2081650D01*
X-12649200Y2081650D01*
X-12649200Y982400D01*
X-9759950Y982400D01*
X-9601200Y1141150D01*
X-9598128Y1605400D01*
X-9610388Y1729882D01*
X-9646698Y1849580D01*
X-9705663Y1959894D01*
X-9785015Y2056585D01*
X-9881706Y2135937D01*
X-9992020Y2194902D01*
X-10111718Y2231212D01*
X-10236200Y2243472D01*
X-12490450Y2240400D01*
X-12649200Y2081650D01*
X-12903200Y2081650D01*
X-13061950Y2240400D01*
X-15027306Y2243078D01*
X-15029713Y3516360D01*
X-12372675Y3516360D01*
X-12291855Y3508400D01*
G37*
G04 #@! TD.AperFunction*
D25*
X41841400Y3460750D02*
X42000150Y3302000D01*
X42824400Y3302000D01*
X42824400Y3322000D01*
X43078400Y3322000D01*
X43078400Y3302000D01*
X43902650Y3302000D01*
X44061400Y3460750D01*
X44061981Y3508400D01*
X58734800Y3508400D01*
X58738535Y3507981D01*
X58744158Y3507942D01*
X58744367Y3507920D01*
X58744576Y3507939D01*
X58750200Y3507900D01*
X59465736Y3507900D01*
X59468725Y2242963D01*
X57588150Y2240400D01*
X57429400Y2081650D01*
X57429400Y982400D01*
X57449400Y982400D01*
X57449400Y728400D01*
X57429400Y728400D01*
X57429400Y-370850D01*
X57588150Y-529600D01*
X59475283Y-532172D01*
X59513767Y-16818687D01*
X5332496Y-16836742D01*
X5370354Y-16816613D01*
X5441572Y-16778964D01*
X5442352Y-16778331D01*
X5443249Y-16777854D01*
X5506120Y-16726578D01*
X5568864Y-16675655D01*
X5569511Y-16674877D01*
X5570293Y-16674239D01*
X5622003Y-16611732D01*
X5673665Y-16549587D01*
X5674145Y-16548704D01*
X5674792Y-16547922D01*
X5713335Y-16476638D01*
X5751984Y-16405566D01*
X5752286Y-16404599D01*
X5752765Y-16403713D01*
X5776683Y-16326445D01*
X5800836Y-16249075D01*
X5800944Y-16248071D01*
X5801243Y-16247105D01*
X5809723Y-16166425D01*
X5818363Y-16086075D01*
X5818368Y-16084183D01*
X5818380Y-16084064D01*
X5818368Y-16083933D01*
X5818391Y-16074347D01*
X5792991Y-10537147D01*
X5785250Y-10461762D01*
X5778629Y-10386289D01*
X5776884Y-10380288D01*
X5776245Y-10374065D01*
X5753987Y-10301546D01*
X5732854Y-10228869D01*
X5729980Y-10223328D01*
X5728143Y-10217342D01*
X5710600Y-10184711D01*
X5710600Y-5718220D01*
X5726107Y-5875667D01*
X5749960Y-5954299D01*
X5749960Y-6187600D01*
X5770886Y-6400061D01*
X5832858Y-6604358D01*
X5933496Y-6792638D01*
X6068932Y-6957668D01*
X6233962Y-7093104D01*
X6422242Y-7193742D01*
X6626539Y-7255714D01*
X6839000Y-7276640D01*
X7639000Y-7276640D01*
X7851461Y-7255714D01*
X8055758Y-7193742D01*
X8119633Y-7159600D01*
X25486200Y-7159600D01*
X25489935Y-7160019D01*
X25495558Y-7160058D01*
X25495767Y-7160080D01*
X25495976Y-7160061D01*
X25501600Y-7160100D01*
X27406600Y-7160100D01*
X27484829Y-7152430D01*
X27563157Y-7145301D01*
X27565967Y-7144474D01*
X27568883Y-7144188D01*
X27644143Y-7121466D01*
X27719584Y-7099262D01*
X27722181Y-7097904D01*
X27724984Y-7097058D01*
X27794393Y-7060153D01*
X27864089Y-7023717D01*
X27866372Y-7021882D01*
X27868959Y-7020506D01*
X27929879Y-6970821D01*
X27991169Y-6921542D01*
X27993053Y-6919296D01*
X27995322Y-6917446D01*
X28045446Y-6856857D01*
X28095982Y-6796630D01*
X28097392Y-6794065D01*
X28099261Y-6791806D01*
X28136676Y-6722608D01*
X28174538Y-6653738D01*
X28175424Y-6650946D01*
X28176817Y-6648369D01*
X28200076Y-6573232D01*
X28223842Y-6498310D01*
X28224168Y-6495401D01*
X28225035Y-6492601D01*
X28225464Y-6488516D01*
X28316498Y-6537174D01*
X28617533Y-6628493D01*
X28852145Y-6651600D01*
X40777000Y-6651600D01*
X40780735Y-6652019D01*
X40786358Y-6652058D01*
X40786567Y-6652080D01*
X40786776Y-6652061D01*
X40792400Y-6652100D01*
X41684550Y-6652100D01*
X41684550Y-6654800D01*
X41685800Y-6667552D01*
X41685801Y-8858560D01*
X41527700Y-8858560D01*
X41333772Y-8877660D01*
X41147297Y-8934227D01*
X40975441Y-9026086D01*
X40824808Y-9149708D01*
X40701186Y-9300341D01*
X40609327Y-9472197D01*
X40552760Y-9658672D01*
X40533660Y-9852600D01*
X40533660Y-10162600D01*
X40552760Y-10356528D01*
X40609327Y-10543003D01*
X40701186Y-10714859D01*
X40824808Y-10865492D01*
X40975441Y-10989114D01*
X41147297Y-11080973D01*
X41333772Y-11137540D01*
X41527700Y-11156640D01*
X41679600Y-11156640D01*
X41679600Y-14986000D01*
X41687311Y-15064642D01*
X41694479Y-15143400D01*
X41695311Y-15146225D01*
X41695598Y-15149157D01*
X41718459Y-15224878D01*
X41740766Y-15300670D01*
X41742129Y-15303277D01*
X41742981Y-15306099D01*
X41780116Y-15375940D01*
X41816718Y-15445953D01*
X41818563Y-15448247D01*
X41819946Y-15450849D01*
X41869922Y-15512126D01*
X41919443Y-15573717D01*
X41921699Y-15575610D01*
X41923561Y-15577893D01*
X41984519Y-15628322D01*
X42045028Y-15679095D01*
X42047605Y-15680512D01*
X42049878Y-15682392D01*
X42119449Y-15720009D01*
X42188689Y-15758074D01*
X42191498Y-15758965D01*
X42194087Y-15760365D01*
X42269555Y-15783726D01*
X42344954Y-15807644D01*
X42347883Y-15807973D01*
X42350695Y-15808843D01*
X42429333Y-15817108D01*
X42507872Y-15825918D01*
X42513522Y-15825958D01*
X42513736Y-15825980D01*
X42513950Y-15825960D01*
X42519600Y-15826000D01*
X48947690Y-15826000D01*
X48953942Y-15829342D01*
X49158238Y-15891314D01*
X49370699Y-15912240D01*
X50195701Y-15912240D01*
X50408162Y-15891314D01*
X50612458Y-15829342D01*
X50800739Y-15728704D01*
X50965768Y-15593268D01*
X51101204Y-15428239D01*
X51201842Y-15239958D01*
X51252427Y-15073200D01*
X51607628Y-15073200D01*
X51619888Y-15197682D01*
X51656198Y-15317380D01*
X51715163Y-15427694D01*
X51794515Y-15524385D01*
X51891206Y-15603737D01*
X52001520Y-15662702D01*
X52121218Y-15699012D01*
X52245700Y-15711272D01*
X52622450Y-15708200D01*
X52781200Y-15549450D01*
X52781200Y-14300200D01*
X53035200Y-14300200D01*
X53035200Y-15549450D01*
X53193950Y-15708200D01*
X53570700Y-15711272D01*
X53695182Y-15699012D01*
X53814880Y-15662702D01*
X53925194Y-15603737D01*
X54021885Y-15524385D01*
X54101237Y-15427694D01*
X54160202Y-15317380D01*
X54196512Y-15197682D01*
X54208772Y-15073200D01*
X54205700Y-14458950D01*
X54046950Y-14300200D01*
X53035200Y-14300200D01*
X52781200Y-14300200D01*
X51769450Y-14300200D01*
X51610700Y-14458950D01*
X51607628Y-15073200D01*
X51252427Y-15073200D01*
X51263814Y-15035662D01*
X51284740Y-14823201D01*
X51284740Y-13785426D01*
X51352450Y-13784600D01*
X51511198Y-13625852D01*
X51511198Y-13784600D01*
X51610186Y-13784600D01*
X51610700Y-13887450D01*
X51769450Y-14046200D01*
X52781200Y-14046200D01*
X52781200Y-13341042D01*
X52801512Y-13274082D01*
X52813772Y-13149600D01*
X52810700Y-12960350D01*
X52781200Y-12930850D01*
X52781200Y-12796950D01*
X53035200Y-12796950D01*
X53035200Y-14046200D01*
X54046950Y-14046200D01*
X54205700Y-13887450D01*
X54208772Y-13273200D01*
X54196512Y-13148718D01*
X54160202Y-13029020D01*
X54101237Y-12918706D01*
X54021885Y-12822015D01*
X53925194Y-12742663D01*
X53814880Y-12683698D01*
X53695182Y-12647388D01*
X53570700Y-12635128D01*
X53193950Y-12638200D01*
X53035200Y-12796950D01*
X52781200Y-12796950D01*
X52622450Y-12638200D01*
X52245700Y-12635128D01*
X52121218Y-12647388D01*
X52001520Y-12683698D01*
X51891206Y-12742663D01*
X51819391Y-12801600D01*
X51765200Y-12801600D01*
X51765200Y-12821600D01*
X51511200Y-12821600D01*
X51511200Y-12801600D01*
X51491200Y-12801600D01*
X51491200Y-12547600D01*
X51511200Y-12547600D01*
X51511200Y-12503670D01*
X51548500Y-12505072D01*
X51672982Y-12492812D01*
X51765200Y-12464838D01*
X51765200Y-12547600D01*
X52651950Y-12547600D01*
X52810700Y-12388850D01*
X52813772Y-12199600D01*
X52801512Y-12075118D01*
X52765202Y-11955420D01*
X52706237Y-11845106D01*
X52626885Y-11748415D01*
X52530194Y-11669063D01*
X52419880Y-11610098D01*
X52300182Y-11573788D01*
X52175700Y-11561528D01*
X51923950Y-11564600D01*
X51804550Y-11684000D01*
X51471850Y-11684000D01*
X51352450Y-11564600D01*
X51252540Y-11563381D01*
X51252540Y-11402000D01*
X51233440Y-11208072D01*
X51176873Y-11021597D01*
X51164517Y-10998481D01*
X51163473Y-10770750D01*
X51308000Y-10770750D01*
X51308000Y-11430000D01*
X52024750Y-11430000D01*
X52183500Y-11271250D01*
X52186572Y-11247000D01*
X52174312Y-11122518D01*
X52138002Y-11002820D01*
X52079037Y-10892506D01*
X51999685Y-10795815D01*
X51902994Y-10716463D01*
X51792680Y-10657498D01*
X51672982Y-10621188D01*
X51548500Y-10608928D01*
X51466750Y-10612000D01*
X51308000Y-10770750D01*
X51163473Y-10770750D01*
X51157391Y-9444947D01*
X51149650Y-9369562D01*
X51143029Y-9294089D01*
X51141284Y-9288088D01*
X51140645Y-9281865D01*
X51118387Y-9209346D01*
X51097254Y-9136669D01*
X51094380Y-9131128D01*
X51092543Y-9125142D01*
X51056631Y-9058344D01*
X51021776Y-8991139D01*
X51017875Y-8986255D01*
X51014914Y-8980747D01*
X50966743Y-8922233D01*
X50919468Y-8863041D01*
X50914694Y-8859008D01*
X50910718Y-8854179D01*
X50852067Y-8806110D01*
X50794227Y-8757255D01*
X50788764Y-8754228D01*
X50783923Y-8750261D01*
X50717084Y-8714517D01*
X50650824Y-8677808D01*
X50644868Y-8675897D01*
X50639357Y-8672950D01*
X50566902Y-8650885D01*
X50494721Y-8627729D01*
X50488507Y-8627012D01*
X50482529Y-8625191D01*
X50407123Y-8617615D01*
X50331863Y-8608925D01*
X50320136Y-8608804D01*
X44879800Y-8591083D01*
X44879800Y-4976145D01*
X44878650Y-4964469D01*
X44878650Y-4292600D01*
X44870982Y-4214391D01*
X44863859Y-4136127D01*
X44863033Y-4133320D01*
X44862747Y-4130405D01*
X44840032Y-4055171D01*
X44817845Y-3979785D01*
X44816488Y-3977190D01*
X44815642Y-3974387D01*
X44778745Y-3904994D01*
X44742340Y-3835357D01*
X44740506Y-3833076D01*
X44739131Y-3830490D01*
X44689439Y-3769562D01*
X44640220Y-3708346D01*
X44637978Y-3706465D01*
X44636127Y-3704195D01*
X44575564Y-3654093D01*
X44515376Y-3603589D01*
X44512810Y-3602178D01*
X44510554Y-3600312D01*
X44441408Y-3562925D01*
X44372561Y-3525076D01*
X44369772Y-3524191D01*
X44367195Y-3522798D01*
X44292127Y-3499561D01*
X44217217Y-3475798D01*
X44214306Y-3475471D01*
X44211510Y-3474606D01*
X44133373Y-3466393D01*
X44055259Y-3457631D01*
X44049639Y-3457592D01*
X44049430Y-3457570D01*
X44049221Y-3457589D01*
X44043600Y-3457550D01*
X43360747Y-3457550D01*
X43282800Y-3449873D01*
X43204853Y-3457550D01*
X42534555Y-3457550D01*
X42531265Y-3457181D01*
X42525642Y-3457142D01*
X42525433Y-3457120D01*
X42525224Y-3457139D01*
X42519600Y-3457100D01*
X40792400Y-3457100D01*
X40787301Y-3457600D01*
X30527600Y-3457600D01*
X30527600Y-270730D01*
X30552089Y-268318D01*
X30709487Y-220572D01*
X30854546Y-143036D01*
X30981691Y-38691D01*
X31086036Y88454D01*
X31095093Y105400D01*
X54124328Y105400D01*
X54136588Y-19082D01*
X54172898Y-138780D01*
X54231863Y-249094D01*
X54311215Y-345785D01*
X54407906Y-425137D01*
X54518220Y-484102D01*
X54637918Y-520412D01*
X54762400Y-532672D01*
X57016650Y-529600D01*
X57175400Y-370850D01*
X57175400Y728400D01*
X54286150Y728400D01*
X54127400Y569650D01*
X54124328Y105400D01*
X31095093Y105400D01*
X31163572Y233513D01*
X31211318Y390911D01*
X31227440Y554600D01*
X31227440Y1965560D01*
X32638400Y1965560D01*
X32802089Y1981682D01*
X32813686Y1985200D01*
X33290353Y1985200D01*
X33298476Y1984400D01*
X35214400Y1984400D01*
X35218135Y1983981D01*
X35223758Y1983942D01*
X35223967Y1983920D01*
X35224176Y1983939D01*
X35229800Y1983900D01*
X37570611Y1983900D01*
X37576073Y1909398D01*
X37609380Y1788830D01*
X37665569Y1677076D01*
X37742480Y1578432D01*
X37837158Y1496688D01*
X37945964Y1434985D01*
X38064717Y1395695D01*
X38173050Y1383200D01*
X38331800Y1541950D01*
X38331800Y1983900D01*
X38477800Y1983900D01*
X38477800Y1541950D01*
X38636550Y1383200D01*
X38744883Y1395695D01*
X38863636Y1434985D01*
X38972442Y1496688D01*
X39067120Y1578432D01*
X39088146Y1605400D01*
X54124328Y1605400D01*
X54127400Y1141150D01*
X54286150Y982400D01*
X57175400Y982400D01*
X57175400Y2081650D01*
X57016650Y2240400D01*
X54762400Y2243472D01*
X54637918Y2231212D01*
X54518220Y2194902D01*
X54407906Y2135937D01*
X54311215Y2056585D01*
X54231863Y1959894D01*
X54172898Y1849580D01*
X54136588Y1729882D01*
X54124328Y1605400D01*
X39088146Y1605400D01*
X39144031Y1677076D01*
X39200220Y1788830D01*
X39233527Y1909398D01*
X39242673Y2034147D01*
X39239800Y2049950D01*
X39203531Y2086219D01*
X39268689Y2120283D01*
X39270972Y2122118D01*
X39273559Y2123494D01*
X39334479Y2173179D01*
X39395769Y2222458D01*
X39397653Y2224704D01*
X39399922Y2226554D01*
X39450046Y2287143D01*
X39500582Y2347370D01*
X39501992Y2349935D01*
X39503861Y2352194D01*
X39541276Y2421392D01*
X39579138Y2490262D01*
X39580024Y2493054D01*
X39581417Y2495631D01*
X39604676Y2570768D01*
X39625844Y2637500D01*
X41838328Y2637500D01*
X41850588Y2513018D01*
X41886898Y2393320D01*
X41945863Y2283006D01*
X42025215Y2186315D01*
X42121906Y2106963D01*
X42232220Y2047998D01*
X42351918Y2011688D01*
X42476400Y1999428D01*
X42665650Y2002500D01*
X42824400Y2161250D01*
X42824400Y3048000D01*
X43078400Y3048000D01*
X43078400Y2161250D01*
X43237150Y2002500D01*
X43426400Y1999428D01*
X43550882Y2011688D01*
X43670580Y2047998D01*
X43780894Y2106963D01*
X43877585Y2186315D01*
X43956937Y2283006D01*
X44015902Y2393320D01*
X44052212Y2513018D01*
X44064472Y2637500D01*
X44061400Y2889250D01*
X43902650Y3048000D01*
X43078400Y3048000D01*
X42824400Y3048000D01*
X42000150Y3048000D01*
X41841400Y2889250D01*
X41838328Y2637500D01*
X39625844Y2637500D01*
X39628442Y2645690D01*
X39628768Y2648599D01*
X39629635Y2651399D01*
X39637856Y2729611D01*
X39646619Y2807735D01*
X39646658Y2813358D01*
X39646680Y2813567D01*
X39646661Y2813776D01*
X39646700Y2819400D01*
X39646700Y3507900D01*
X40462200Y3507900D01*
X40467299Y3508400D01*
X41840819Y3508400D01*
X41841400Y3460750D01*
G04 #@! TA.AperFunction,Conductor*
D26*
G36*
X41841400Y3460750D02*
G01*
X42000150Y3302000D01*
X42824400Y3302000D01*
X42824400Y3322000D01*
X43078400Y3322000D01*
X43078400Y3302000D01*
X43902650Y3302000D01*
X44061400Y3460750D01*
X44061981Y3508400D01*
X58734800Y3508400D01*
X58738535Y3507981D01*
X58744158Y3507942D01*
X58744367Y3507920D01*
X58744576Y3507939D01*
X58750200Y3507900D01*
X59465736Y3507900D01*
X59468725Y2242963D01*
X57588150Y2240400D01*
X57429400Y2081650D01*
X57429400Y982400D01*
X57449400Y982400D01*
X57449400Y728400D01*
X57429400Y728400D01*
X57429400Y-370850D01*
X57588150Y-529600D01*
X59475283Y-532172D01*
X59513767Y-16818687D01*
X5332496Y-16836742D01*
X5370354Y-16816613D01*
X5441572Y-16778964D01*
X5442352Y-16778331D01*
X5443249Y-16777854D01*
X5506120Y-16726578D01*
X5568864Y-16675655D01*
X5569511Y-16674877D01*
X5570293Y-16674239D01*
X5622003Y-16611732D01*
X5673665Y-16549587D01*
X5674145Y-16548704D01*
X5674792Y-16547922D01*
X5713335Y-16476638D01*
X5751984Y-16405566D01*
X5752286Y-16404599D01*
X5752765Y-16403713D01*
X5776683Y-16326445D01*
X5800836Y-16249075D01*
X5800944Y-16248071D01*
X5801243Y-16247105D01*
X5809723Y-16166425D01*
X5818363Y-16086075D01*
X5818368Y-16084183D01*
X5818380Y-16084064D01*
X5818368Y-16083933D01*
X5818391Y-16074347D01*
X5792991Y-10537147D01*
X5785250Y-10461762D01*
X5778629Y-10386289D01*
X5776884Y-10380288D01*
X5776245Y-10374065D01*
X5753987Y-10301546D01*
X5732854Y-10228869D01*
X5729980Y-10223328D01*
X5728143Y-10217342D01*
X5710600Y-10184711D01*
X5710600Y-5718220D01*
X5726107Y-5875667D01*
X5749960Y-5954299D01*
X5749960Y-6187600D01*
X5770886Y-6400061D01*
X5832858Y-6604358D01*
X5933496Y-6792638D01*
X6068932Y-6957668D01*
X6233962Y-7093104D01*
X6422242Y-7193742D01*
X6626539Y-7255714D01*
X6839000Y-7276640D01*
X7639000Y-7276640D01*
X7851461Y-7255714D01*
X8055758Y-7193742D01*
X8119633Y-7159600D01*
X25486200Y-7159600D01*
X25489935Y-7160019D01*
X25495558Y-7160058D01*
X25495767Y-7160080D01*
X25495976Y-7160061D01*
X25501600Y-7160100D01*
X27406600Y-7160100D01*
X27484829Y-7152430D01*
X27563157Y-7145301D01*
X27565967Y-7144474D01*
X27568883Y-7144188D01*
X27644143Y-7121466D01*
X27719584Y-7099262D01*
X27722181Y-7097904D01*
X27724984Y-7097058D01*
X27794393Y-7060153D01*
X27864089Y-7023717D01*
X27866372Y-7021882D01*
X27868959Y-7020506D01*
X27929879Y-6970821D01*
X27991169Y-6921542D01*
X27993053Y-6919296D01*
X27995322Y-6917446D01*
X28045446Y-6856857D01*
X28095982Y-6796630D01*
X28097392Y-6794065D01*
X28099261Y-6791806D01*
X28136676Y-6722608D01*
X28174538Y-6653738D01*
X28175424Y-6650946D01*
X28176817Y-6648369D01*
X28200076Y-6573232D01*
X28223842Y-6498310D01*
X28224168Y-6495401D01*
X28225035Y-6492601D01*
X28225464Y-6488516D01*
X28316498Y-6537174D01*
X28617533Y-6628493D01*
X28852145Y-6651600D01*
X40777000Y-6651600D01*
X40780735Y-6652019D01*
X40786358Y-6652058D01*
X40786567Y-6652080D01*
X40786776Y-6652061D01*
X40792400Y-6652100D01*
X41684550Y-6652100D01*
X41684550Y-6654800D01*
X41685800Y-6667552D01*
X41685801Y-8858560D01*
X41527700Y-8858560D01*
X41333772Y-8877660D01*
X41147297Y-8934227D01*
X40975441Y-9026086D01*
X40824808Y-9149708D01*
X40701186Y-9300341D01*
X40609327Y-9472197D01*
X40552760Y-9658672D01*
X40533660Y-9852600D01*
X40533660Y-10162600D01*
X40552760Y-10356528D01*
X40609327Y-10543003D01*
X40701186Y-10714859D01*
X40824808Y-10865492D01*
X40975441Y-10989114D01*
X41147297Y-11080973D01*
X41333772Y-11137540D01*
X41527700Y-11156640D01*
X41679600Y-11156640D01*
X41679600Y-14986000D01*
X41687311Y-15064642D01*
X41694479Y-15143400D01*
X41695311Y-15146225D01*
X41695598Y-15149157D01*
X41718459Y-15224878D01*
X41740766Y-15300670D01*
X41742129Y-15303277D01*
X41742981Y-15306099D01*
X41780116Y-15375940D01*
X41816718Y-15445953D01*
X41818563Y-15448247D01*
X41819946Y-15450849D01*
X41869922Y-15512126D01*
X41919443Y-15573717D01*
X41921699Y-15575610D01*
X41923561Y-15577893D01*
X41984519Y-15628322D01*
X42045028Y-15679095D01*
X42047605Y-15680512D01*
X42049878Y-15682392D01*
X42119449Y-15720009D01*
X42188689Y-15758074D01*
X42191498Y-15758965D01*
X42194087Y-15760365D01*
X42269555Y-15783726D01*
X42344954Y-15807644D01*
X42347883Y-15807973D01*
X42350695Y-15808843D01*
X42429333Y-15817108D01*
X42507872Y-15825918D01*
X42513522Y-15825958D01*
X42513736Y-15825980D01*
X42513950Y-15825960D01*
X42519600Y-15826000D01*
X48947690Y-15826000D01*
X48953942Y-15829342D01*
X49158238Y-15891314D01*
X49370699Y-15912240D01*
X50195701Y-15912240D01*
X50408162Y-15891314D01*
X50612458Y-15829342D01*
X50800739Y-15728704D01*
X50965768Y-15593268D01*
X51101204Y-15428239D01*
X51201842Y-15239958D01*
X51252427Y-15073200D01*
X51607628Y-15073200D01*
X51619888Y-15197682D01*
X51656198Y-15317380D01*
X51715163Y-15427694D01*
X51794515Y-15524385D01*
X51891206Y-15603737D01*
X52001520Y-15662702D01*
X52121218Y-15699012D01*
X52245700Y-15711272D01*
X52622450Y-15708200D01*
X52781200Y-15549450D01*
X52781200Y-14300200D01*
X53035200Y-14300200D01*
X53035200Y-15549450D01*
X53193950Y-15708200D01*
X53570700Y-15711272D01*
X53695182Y-15699012D01*
X53814880Y-15662702D01*
X53925194Y-15603737D01*
X54021885Y-15524385D01*
X54101237Y-15427694D01*
X54160202Y-15317380D01*
X54196512Y-15197682D01*
X54208772Y-15073200D01*
X54205700Y-14458950D01*
X54046950Y-14300200D01*
X53035200Y-14300200D01*
X52781200Y-14300200D01*
X51769450Y-14300200D01*
X51610700Y-14458950D01*
X51607628Y-15073200D01*
X51252427Y-15073200D01*
X51263814Y-15035662D01*
X51284740Y-14823201D01*
X51284740Y-13785426D01*
X51352450Y-13784600D01*
X51511198Y-13625852D01*
X51511198Y-13784600D01*
X51610186Y-13784600D01*
X51610700Y-13887450D01*
X51769450Y-14046200D01*
X52781200Y-14046200D01*
X52781200Y-13341042D01*
X52801512Y-13274082D01*
X52813772Y-13149600D01*
X52810700Y-12960350D01*
X52781200Y-12930850D01*
X52781200Y-12796950D01*
X53035200Y-12796950D01*
X53035200Y-14046200D01*
X54046950Y-14046200D01*
X54205700Y-13887450D01*
X54208772Y-13273200D01*
X54196512Y-13148718D01*
X54160202Y-13029020D01*
X54101237Y-12918706D01*
X54021885Y-12822015D01*
X53925194Y-12742663D01*
X53814880Y-12683698D01*
X53695182Y-12647388D01*
X53570700Y-12635128D01*
X53193950Y-12638200D01*
X53035200Y-12796950D01*
X52781200Y-12796950D01*
X52622450Y-12638200D01*
X52245700Y-12635128D01*
X52121218Y-12647388D01*
X52001520Y-12683698D01*
X51891206Y-12742663D01*
X51819391Y-12801600D01*
X51765200Y-12801600D01*
X51765200Y-12821600D01*
X51511200Y-12821600D01*
X51511200Y-12801600D01*
X51491200Y-12801600D01*
X51491200Y-12547600D01*
X51511200Y-12547600D01*
X51511200Y-12503670D01*
X51548500Y-12505072D01*
X51672982Y-12492812D01*
X51765200Y-12464838D01*
X51765200Y-12547600D01*
X52651950Y-12547600D01*
X52810700Y-12388850D01*
X52813772Y-12199600D01*
X52801512Y-12075118D01*
X52765202Y-11955420D01*
X52706237Y-11845106D01*
X52626885Y-11748415D01*
X52530194Y-11669063D01*
X52419880Y-11610098D01*
X52300182Y-11573788D01*
X52175700Y-11561528D01*
X51923950Y-11564600D01*
X51804550Y-11684000D01*
X51471850Y-11684000D01*
X51352450Y-11564600D01*
X51252540Y-11563381D01*
X51252540Y-11402000D01*
X51233440Y-11208072D01*
X51176873Y-11021597D01*
X51164517Y-10998481D01*
X51163473Y-10770750D01*
X51308000Y-10770750D01*
X51308000Y-11430000D01*
X52024750Y-11430000D01*
X52183500Y-11271250D01*
X52186572Y-11247000D01*
X52174312Y-11122518D01*
X52138002Y-11002820D01*
X52079037Y-10892506D01*
X51999685Y-10795815D01*
X51902994Y-10716463D01*
X51792680Y-10657498D01*
X51672982Y-10621188D01*
X51548500Y-10608928D01*
X51466750Y-10612000D01*
X51308000Y-10770750D01*
X51163473Y-10770750D01*
X51157391Y-9444947D01*
X51149650Y-9369562D01*
X51143029Y-9294089D01*
X51141284Y-9288088D01*
X51140645Y-9281865D01*
X51118387Y-9209346D01*
X51097254Y-9136669D01*
X51094380Y-9131128D01*
X51092543Y-9125142D01*
X51056631Y-9058344D01*
X51021776Y-8991139D01*
X51017875Y-8986255D01*
X51014914Y-8980747D01*
X50966743Y-8922233D01*
X50919468Y-8863041D01*
X50914694Y-8859008D01*
X50910718Y-8854179D01*
X50852067Y-8806110D01*
X50794227Y-8757255D01*
X50788764Y-8754228D01*
X50783923Y-8750261D01*
X50717084Y-8714517D01*
X50650824Y-8677808D01*
X50644868Y-8675897D01*
X50639357Y-8672950D01*
X50566902Y-8650885D01*
X50494721Y-8627729D01*
X50488507Y-8627012D01*
X50482529Y-8625191D01*
X50407123Y-8617615D01*
X50331863Y-8608925D01*
X50320136Y-8608804D01*
X44879800Y-8591083D01*
X44879800Y-4976145D01*
X44878650Y-4964469D01*
X44878650Y-4292600D01*
X44870982Y-4214391D01*
X44863859Y-4136127D01*
X44863033Y-4133320D01*
X44862747Y-4130405D01*
X44840032Y-4055171D01*
X44817845Y-3979785D01*
X44816488Y-3977190D01*
X44815642Y-3974387D01*
X44778745Y-3904994D01*
X44742340Y-3835357D01*
X44740506Y-3833076D01*
X44739131Y-3830490D01*
X44689439Y-3769562D01*
X44640220Y-3708346D01*
X44637978Y-3706465D01*
X44636127Y-3704195D01*
X44575564Y-3654093D01*
X44515376Y-3603589D01*
X44512810Y-3602178D01*
X44510554Y-3600312D01*
X44441408Y-3562925D01*
X44372561Y-3525076D01*
X44369772Y-3524191D01*
X44367195Y-3522798D01*
X44292127Y-3499561D01*
X44217217Y-3475798D01*
X44214306Y-3475471D01*
X44211510Y-3474606D01*
X44133373Y-3466393D01*
X44055259Y-3457631D01*
X44049639Y-3457592D01*
X44049430Y-3457570D01*
X44049221Y-3457589D01*
X44043600Y-3457550D01*
X43360747Y-3457550D01*
X43282800Y-3449873D01*
X43204853Y-3457550D01*
X42534555Y-3457550D01*
X42531265Y-3457181D01*
X42525642Y-3457142D01*
X42525433Y-3457120D01*
X42525224Y-3457139D01*
X42519600Y-3457100D01*
X40792400Y-3457100D01*
X40787301Y-3457600D01*
X30527600Y-3457600D01*
X30527600Y-270730D01*
X30552089Y-268318D01*
X30709487Y-220572D01*
X30854546Y-143036D01*
X30981691Y-38691D01*
X31086036Y88454D01*
X31095093Y105400D01*
X54124328Y105400D01*
X54136588Y-19082D01*
X54172898Y-138780D01*
X54231863Y-249094D01*
X54311215Y-345785D01*
X54407906Y-425137D01*
X54518220Y-484102D01*
X54637918Y-520412D01*
X54762400Y-532672D01*
X57016650Y-529600D01*
X57175400Y-370850D01*
X57175400Y728400D01*
X54286150Y728400D01*
X54127400Y569650D01*
X54124328Y105400D01*
X31095093Y105400D01*
X31163572Y233513D01*
X31211318Y390911D01*
X31227440Y554600D01*
X31227440Y1965560D01*
X32638400Y1965560D01*
X32802089Y1981682D01*
X32813686Y1985200D01*
X33290353Y1985200D01*
X33298476Y1984400D01*
X35214400Y1984400D01*
X35218135Y1983981D01*
X35223758Y1983942D01*
X35223967Y1983920D01*
X35224176Y1983939D01*
X35229800Y1983900D01*
X37570611Y1983900D01*
X37576073Y1909398D01*
X37609380Y1788830D01*
X37665569Y1677076D01*
X37742480Y1578432D01*
X37837158Y1496688D01*
X37945964Y1434985D01*
X38064717Y1395695D01*
X38173050Y1383200D01*
X38331800Y1541950D01*
X38331800Y1983900D01*
X38477800Y1983900D01*
X38477800Y1541950D01*
X38636550Y1383200D01*
X38744883Y1395695D01*
X38863636Y1434985D01*
X38972442Y1496688D01*
X39067120Y1578432D01*
X39088146Y1605400D01*
X54124328Y1605400D01*
X54127400Y1141150D01*
X54286150Y982400D01*
X57175400Y982400D01*
X57175400Y2081650D01*
X57016650Y2240400D01*
X54762400Y2243472D01*
X54637918Y2231212D01*
X54518220Y2194902D01*
X54407906Y2135937D01*
X54311215Y2056585D01*
X54231863Y1959894D01*
X54172898Y1849580D01*
X54136588Y1729882D01*
X54124328Y1605400D01*
X39088146Y1605400D01*
X39144031Y1677076D01*
X39200220Y1788830D01*
X39233527Y1909398D01*
X39242673Y2034147D01*
X39239800Y2049950D01*
X39203531Y2086219D01*
X39268689Y2120283D01*
X39270972Y2122118D01*
X39273559Y2123494D01*
X39334479Y2173179D01*
X39395769Y2222458D01*
X39397653Y2224704D01*
X39399922Y2226554D01*
X39450046Y2287143D01*
X39500582Y2347370D01*
X39501992Y2349935D01*
X39503861Y2352194D01*
X39541276Y2421392D01*
X39579138Y2490262D01*
X39580024Y2493054D01*
X39581417Y2495631D01*
X39604676Y2570768D01*
X39625844Y2637500D01*
X41838328Y2637500D01*
X41850588Y2513018D01*
X41886898Y2393320D01*
X41945863Y2283006D01*
X42025215Y2186315D01*
X42121906Y2106963D01*
X42232220Y2047998D01*
X42351918Y2011688D01*
X42476400Y1999428D01*
X42665650Y2002500D01*
X42824400Y2161250D01*
X42824400Y3048000D01*
X43078400Y3048000D01*
X43078400Y2161250D01*
X43237150Y2002500D01*
X43426400Y1999428D01*
X43550882Y2011688D01*
X43670580Y2047998D01*
X43780894Y2106963D01*
X43877585Y2186315D01*
X43956937Y2283006D01*
X44015902Y2393320D01*
X44052212Y2513018D01*
X44064472Y2637500D01*
X44061400Y2889250D01*
X43902650Y3048000D01*
X43078400Y3048000D01*
X42824400Y3048000D01*
X42000150Y3048000D01*
X41841400Y2889250D01*
X41838328Y2637500D01*
X39625844Y2637500D01*
X39628442Y2645690D01*
X39628768Y2648599D01*
X39629635Y2651399D01*
X39637856Y2729611D01*
X39646619Y2807735D01*
X39646658Y2813358D01*
X39646680Y2813567D01*
X39646661Y2813776D01*
X39646700Y2819400D01*
X39646700Y3507900D01*
X40462200Y3507900D01*
X40467299Y3508400D01*
X41840819Y3508400D01*
X41841400Y3460750D01*
G37*
G04 #@! TD.AperFunction*
D25*
X59448164Y10944440D02*
X54762400Y10944440D01*
X54598711Y10928318D01*
X54441313Y10880572D01*
X54296254Y10803036D01*
X54169109Y10698691D01*
X54064764Y10571546D01*
X53987228Y10426487D01*
X53939482Y10269089D01*
X53923360Y10105400D01*
X53923360Y8605400D01*
X53939482Y8441711D01*
X53987228Y8284313D01*
X54064764Y8139254D01*
X54169109Y8012109D01*
X54296254Y7907764D01*
X54441313Y7830228D01*
X54598711Y7782482D01*
X54762400Y7766360D01*
X59455674Y7766360D01*
X59458186Y6702900D01*
X58750200Y6702900D01*
X58745101Y6702400D01*
X40477600Y6702400D01*
X40473865Y6702819D01*
X40468242Y6702858D01*
X40468033Y6702880D01*
X40467824Y6702861D01*
X40462200Y6702900D01*
X39646700Y6702900D01*
X39646700Y7391400D01*
X39639030Y7469629D01*
X39631901Y7547957D01*
X39631074Y7550767D01*
X39630788Y7553683D01*
X39608066Y7628943D01*
X39585862Y7704384D01*
X39584504Y7706981D01*
X39583658Y7709784D01*
X39546753Y7779193D01*
X39510317Y7848889D01*
X39508482Y7851172D01*
X39507106Y7853759D01*
X39457421Y7914679D01*
X39408142Y7975969D01*
X39405896Y7977853D01*
X39404046Y7980122D01*
X39343457Y8030246D01*
X39283230Y8080782D01*
X39280665Y8082192D01*
X39278406Y8084061D01*
X39209208Y8121476D01*
X39140338Y8159338D01*
X39137546Y8160224D01*
X39134969Y8161617D01*
X39059832Y8184876D01*
X38984910Y8208642D01*
X38982001Y8208968D01*
X38979201Y8209835D01*
X38900989Y8218056D01*
X38822865Y8226819D01*
X38817242Y8226858D01*
X38817033Y8226880D01*
X38816824Y8226861D01*
X38811200Y8226900D01*
X35229800Y8226900D01*
X35224701Y8226400D01*
X33524800Y8226400D01*
X33524800Y19629000D01*
X33604202Y19629000D01*
X33604202Y19787748D01*
X33762950Y19629000D01*
X33844700Y19625928D01*
X33969182Y19638188D01*
X34088880Y19674498D01*
X34199194Y19733463D01*
X34295885Y19812815D01*
X34375237Y19909506D01*
X34434202Y20019820D01*
X34470512Y20139518D01*
X34482772Y20264000D01*
X34479700Y20288250D01*
X34320950Y20447000D01*
X33604200Y20447000D01*
X33604200Y20427000D01*
X33548740Y20427000D01*
X33548740Y20721000D01*
X33604200Y20721000D01*
X33604200Y20701000D01*
X34320950Y20701000D01*
X34479700Y20859750D01*
X34482772Y20884000D01*
X34470512Y21008482D01*
X34434202Y21128180D01*
X34375237Y21238494D01*
X34295885Y21335185D01*
X34199194Y21414537D01*
X34088880Y21473502D01*
X33969182Y21509812D01*
X33844700Y21522072D01*
X33762950Y21519000D01*
X33604202Y21360252D01*
X33604202Y21519000D01*
X33524800Y21519000D01*
X33524800Y24318000D01*
X42683328Y24318000D01*
X42695588Y24193518D01*
X42731898Y24073820D01*
X42790863Y23963506D01*
X42870215Y23866815D01*
X42966906Y23787463D01*
X43077220Y23728498D01*
X43196918Y23692188D01*
X43321400Y23679928D01*
X43935650Y23683000D01*
X44094400Y23841750D01*
X44094400Y24853500D01*
X44348400Y24853500D01*
X44348400Y23841750D01*
X44507150Y23683000D01*
X45121400Y23679928D01*
X45245882Y23692188D01*
X45365580Y23728498D01*
X45475894Y23787463D01*
X45572585Y23866815D01*
X45651937Y23963506D01*
X45710902Y24073820D01*
X45747212Y24193518D01*
X45759472Y24318000D01*
X45756400Y24694750D01*
X45597650Y24853500D01*
X44348400Y24853500D01*
X44094400Y24853500D01*
X42845150Y24853500D01*
X42686400Y24694750D01*
X42683328Y24318000D01*
X33524800Y24318000D01*
X33524800Y25123800D01*
X35908403Y25123800D01*
X35915600Y25123750D01*
X36779200Y25123750D01*
X36857409Y25131418D01*
X36935673Y25138541D01*
X36938480Y25139367D01*
X36941395Y25139653D01*
X37016629Y25162368D01*
X37092015Y25184555D01*
X37094610Y25185912D01*
X37097413Y25186758D01*
X37166806Y25223655D01*
X37236443Y25260060D01*
X37238724Y25261894D01*
X37241310Y25263269D01*
X37302238Y25312961D01*
X37363454Y25362180D01*
X37365335Y25364422D01*
X37367605Y25366273D01*
X37417707Y25426836D01*
X37468211Y25487024D01*
X37469622Y25489590D01*
X37471488Y25491846D01*
X37508875Y25560992D01*
X37546724Y25629839D01*
X37547609Y25632628D01*
X37549002Y25635205D01*
X37572239Y25710273D01*
X37596002Y25785183D01*
X37596329Y25788094D01*
X37597194Y25790890D01*
X37605407Y25869027D01*
X37614169Y25947141D01*
X37614208Y25952761D01*
X37614230Y25952970D01*
X37614211Y25953179D01*
X37614250Y25958800D01*
X37614250Y26613223D01*
X39974400Y26609046D01*
X39974400Y26550998D01*
X40133148Y26550998D01*
X39974400Y26392250D01*
X39971328Y26310500D01*
X39983588Y26186018D01*
X40019898Y26066320D01*
X40078863Y25956006D01*
X40158215Y25859315D01*
X40254906Y25779963D01*
X40365220Y25720998D01*
X40484918Y25684688D01*
X40609400Y25672428D01*
X40633650Y25675500D01*
X40792398Y25834248D01*
X40792398Y25675500D01*
X40873737Y25675500D01*
X40873128Y25625600D01*
X40885388Y25501118D01*
X40921698Y25381420D01*
X40980663Y25271106D01*
X41060015Y25174415D01*
X41156706Y25095063D01*
X41267020Y25036098D01*
X41386718Y24999788D01*
X41511200Y24987528D01*
X41700450Y24990600D01*
X41859200Y25149350D01*
X41859200Y26036100D01*
X41802749Y26036100D01*
X41818902Y26066320D01*
X41855212Y26186018D01*
X41867433Y26310100D01*
X42113200Y26310100D01*
X42113200Y26290100D01*
X42133200Y26290100D01*
X42133200Y26036100D01*
X42113200Y26036100D01*
X42113200Y25149350D01*
X42271950Y24990600D01*
X42461200Y24987528D01*
X42585682Y24999788D01*
X42705380Y25036098D01*
X42815694Y25095063D01*
X42838704Y25113946D01*
X42845150Y25107500D01*
X44094400Y25107500D01*
X44094400Y26119250D01*
X44348400Y26119250D01*
X44348400Y25107500D01*
X45597650Y25107500D01*
X45756400Y25266250D01*
X45759472Y25643000D01*
X45747212Y25767482D01*
X45710902Y25887180D01*
X45651937Y25997494D01*
X45572585Y26094185D01*
X45475894Y26173537D01*
X45365580Y26232502D01*
X45245882Y26268812D01*
X45121400Y26281072D01*
X44507150Y26278000D01*
X44348400Y26119250D01*
X44094400Y26119250D01*
X43935650Y26278000D01*
X43321400Y26281072D01*
X43196918Y26268812D01*
X43096200Y26238260D01*
X43096200Y26290102D01*
X42937452Y26290102D01*
X43096200Y26448850D01*
X43098087Y26603517D01*
X43674646Y26602497D01*
X43908334Y26531607D01*
X44221400Y26500774D01*
X44534466Y26531607D01*
X44761811Y26600573D01*
X49604713Y26592001D01*
X49682194Y26599460D01*
X49759848Y26606172D01*
X49763804Y26607317D01*
X49767898Y26607711D01*
X49842482Y26630085D01*
X49917327Y26651744D01*
X49920982Y26653634D01*
X49924923Y26654816D01*
X49993780Y26691271D01*
X50062953Y26727035D01*
X50066169Y26729597D01*
X50069809Y26731524D01*
X50130290Y26780673D01*
X50191183Y26829178D01*
X50193842Y26832317D01*
X50197037Y26834914D01*
X50246823Y26894879D01*
X50297131Y26954283D01*
X50299129Y26957878D01*
X50301759Y26961046D01*
X50338913Y27029472D01*
X50376762Y27097583D01*
X50378026Y27101505D01*
X50379987Y27105117D01*
X50403113Y27179360D01*
X50427042Y27253621D01*
X50427520Y27257717D01*
X50428742Y27261639D01*
X50437015Y27339030D01*
X50446056Y27416454D01*
X50446148Y27424464D01*
X50446168Y27424649D01*
X50446152Y27424824D01*
X50446191Y27428182D01*
X50455594Y29496987D01*
X52329592Y29496987D01*
X52425356Y29232586D01*
X52714971Y29091696D01*
X53026508Y29010016D01*
X53347995Y28990682D01*
X53667075Y29034439D01*
X53971488Y29139605D01*
X54145444Y29232586D01*
X54241208Y29496987D01*
X53285400Y30452795D01*
X52329592Y29496987D01*
X50455594Y29496987D01*
X50460471Y30569805D01*
X51643682Y30569805D01*
X51687439Y30250725D01*
X51792605Y29946312D01*
X51885586Y29772356D01*
X52149987Y29676592D01*
X53105795Y30632400D01*
X53465005Y30632400D01*
X54420813Y29676592D01*
X54685214Y29772356D01*
X54826104Y30061971D01*
X54907784Y30373508D01*
X54927118Y30694995D01*
X54883361Y31014075D01*
X54778195Y31318488D01*
X54685214Y31492444D01*
X54420813Y31588208D01*
X53465005Y30632400D01*
X53105795Y30632400D01*
X52149987Y31588208D01*
X51885586Y31492444D01*
X51744696Y31202829D01*
X51663016Y30891292D01*
X51643682Y30569805D01*
X50460471Y30569805D01*
X50465916Y31767813D01*
X52329592Y31767813D01*
X53285400Y30812005D01*
X54241208Y31767813D01*
X54145444Y32032214D01*
X53855829Y32173104D01*
X53544292Y32254784D01*
X53222805Y32274118D01*
X52903725Y32230361D01*
X52599312Y32125195D01*
X52425356Y32032214D01*
X52329592Y31767813D01*
X50465916Y31767813D01*
X50471591Y33016182D01*
X50464075Y33096602D01*
X50456721Y33177400D01*
X50456431Y33178386D01*
X50456335Y33179410D01*
X50433248Y33257155D01*
X50410434Y33334670D01*
X50409960Y33335578D01*
X50409666Y33336566D01*
X50371878Y33408421D01*
X50334482Y33479953D01*
X50333840Y33480752D01*
X50333360Y33481664D01*
X50282408Y33544720D01*
X50231757Y33607717D01*
X50230970Y33608378D01*
X50230323Y33609178D01*
X50167948Y33661259D01*
X50106172Y33713095D01*
X50105277Y33713587D01*
X50104483Y33714250D01*
X50033215Y33753204D01*
X49962511Y33792074D01*
X49961531Y33792385D01*
X49960629Y33792878D01*
X49883441Y33817156D01*
X49806246Y33841644D01*
X49805223Y33841759D01*
X49804243Y33842067D01*
X49723609Y33850913D01*
X49643328Y33859918D01*
X49641406Y33859931D01*
X49641282Y33859945D01*
X49641146Y33859933D01*
X49631600Y33860000D01*
X35255200Y33860000D01*
X35176558Y33852289D01*
X35097800Y33845121D01*
X35094975Y33844289D01*
X35092043Y33844002D01*
X35016322Y33821141D01*
X34940530Y33798834D01*
X34937923Y33797471D01*
X34935101Y33796619D01*
X34865260Y33759484D01*
X34795247Y33722882D01*
X34792953Y33721037D01*
X34790351Y33719654D01*
X34729074Y33669678D01*
X34667483Y33620157D01*
X34665590Y33617901D01*
X34663307Y33616039D01*
X34612878Y33555081D01*
X34562105Y33494572D01*
X34560688Y33491995D01*
X34558808Y33489722D01*
X34521191Y33420151D01*
X34483126Y33350911D01*
X34482235Y33348102D01*
X34480835Y33345513D01*
X34457474Y33270045D01*
X34433556Y33194646D01*
X34433227Y33191717D01*
X34432357Y33188905D01*
X34424092Y33110267D01*
X34415282Y33031728D01*
X34415242Y33026078D01*
X34415220Y33025864D01*
X34415240Y33025650D01*
X34415200Y33020000D01*
X34415200Y28317800D01*
X32690520Y28317800D01*
X32689800Y28317805D01*
X32006204Y28317805D01*
X31927800Y28325527D01*
X31849396Y28317805D01*
X31165800Y28317805D01*
X31087664Y28310143D01*
X31009336Y28303015D01*
X31006524Y28302187D01*
X31003613Y28301902D01*
X30928366Y28279184D01*
X30853002Y28257003D01*
X30850411Y28255648D01*
X30847604Y28254801D01*
X30778156Y28217875D01*
X30708582Y28181502D01*
X30706301Y28179668D01*
X30703715Y28178293D01*
X30642791Y28128605D01*
X30581578Y28079388D01*
X30579697Y28077146D01*
X30577427Y28075295D01*
X30527299Y28014701D01*
X30476826Y27954550D01*
X30475417Y27951987D01*
X30473549Y27949729D01*
X30436177Y27880610D01*
X30398317Y27811743D01*
X30397431Y27808949D01*
X30396040Y27806377D01*
X30372818Y27731359D01*
X30349042Y27656407D01*
X30348716Y27653497D01*
X30347850Y27650701D01*
X30339637Y27572560D01*
X30330876Y27494458D01*
X30330837Y27488838D01*
X30330815Y27488629D01*
X30330834Y27488420D01*
X30330795Y27482800D01*
X30330795Y26799204D01*
X30323073Y26720800D01*
X30330801Y26642335D01*
X30330800Y10393640D01*
X29888400Y10393640D01*
X29738400Y10378866D01*
X29588400Y10393640D01*
X29088400Y10393640D01*
X28938400Y10378866D01*
X28788400Y10393640D01*
X28288400Y10393640D01*
X28241600Y10389031D01*
X28241600Y23185427D01*
X28246518Y23229272D01*
X28246558Y23234922D01*
X28246580Y23235136D01*
X28246560Y23235350D01*
X28246600Y23241000D01*
X28246600Y23949912D01*
X28249327Y23977600D01*
X28246600Y24005288D01*
X28246600Y24739600D01*
X28238889Y24818242D01*
X28231721Y24897000D01*
X28230889Y24899825D01*
X28230602Y24902757D01*
X28207741Y24978478D01*
X28185434Y25054270D01*
X28184071Y25056877D01*
X28183219Y25059699D01*
X28146084Y25129540D01*
X28109482Y25199553D01*
X28107637Y25201847D01*
X28106254Y25204449D01*
X28056278Y25265726D01*
X28006757Y25327317D01*
X28004501Y25329210D01*
X28002639Y25331493D01*
X27941681Y25381922D01*
X27881172Y25432695D01*
X27878595Y25434112D01*
X27876322Y25435992D01*
X27806751Y25473609D01*
X27737511Y25511674D01*
X27734702Y25512565D01*
X27732113Y25513965D01*
X27656645Y25537326D01*
X27581246Y25561244D01*
X27578317Y25561573D01*
X27575505Y25562443D01*
X27496867Y25570708D01*
X27418328Y25579518D01*
X27412678Y25579558D01*
X27412464Y25579580D01*
X27412250Y25579560D01*
X27406600Y25579600D01*
X23698200Y25579600D01*
X23647207Y25574600D01*
X12400400Y25574600D01*
X12400400Y25654002D01*
X12241652Y25654002D01*
X12400400Y25812750D01*
X12403472Y25894500D01*
X12391212Y26018982D01*
X12354902Y26138680D01*
X12295937Y26248994D01*
X12216585Y26345685D01*
X12119894Y26425037D01*
X12009580Y26484002D01*
X11889882Y26520312D01*
X11765400Y26532572D01*
X11741150Y26529500D01*
X11582400Y26370750D01*
X11582400Y25654000D01*
X11602400Y25654000D01*
X11602400Y25598540D01*
X11422999Y25598540D01*
X11422400Y25647650D01*
X11328400Y25741650D01*
X11328400Y26125150D01*
X11422400Y26219150D01*
X11425472Y26470900D01*
X11413212Y26595382D01*
X11376902Y26715080D01*
X11317937Y26825394D01*
X11238585Y26922085D01*
X11141894Y27001437D01*
X11031580Y27060402D01*
X10911882Y27096712D01*
X10787400Y27108972D01*
X10598150Y27105900D01*
X10439400Y26947150D01*
X10439400Y26060400D01*
X10532152Y26060400D01*
X10519588Y26018982D01*
X10507328Y25894500D01*
X10510400Y25812750D01*
X10516750Y25806400D01*
X10439400Y25806400D01*
X10439400Y25786400D01*
X10185400Y25786400D01*
X10185400Y25806400D01*
X10165400Y25806400D01*
X10165400Y26060400D01*
X10185400Y26060400D01*
X10185400Y26077879D01*
X10215785Y26102815D01*
X10295137Y26199506D01*
X10354102Y26309820D01*
X10390412Y26429518D01*
X10402672Y26554000D01*
X10399600Y26930750D01*
X10240850Y27089500D01*
X10043050Y27089500D01*
X10026650Y27105900D01*
X9837400Y27108972D01*
X9712918Y27096712D01*
X9689143Y27089500D01*
X8991600Y27089500D01*
X8991600Y26077750D01*
X9150350Y25919000D01*
X9202400Y25918740D01*
X9202400Y25806398D01*
X9361148Y25806398D01*
X9202400Y25647650D01*
X9201734Y25593040D01*
X8214599Y25593040D01*
X8032455Y25575100D01*
X7534498Y25575100D01*
X7471558Y25608742D01*
X7267261Y25670714D01*
X7054800Y25691640D01*
X6254800Y25691640D01*
X6042339Y25670714D01*
X5838042Y25608742D01*
X5649762Y25508104D01*
X5484732Y25372668D01*
X5349296Y25207638D01*
X5248658Y25019358D01*
X5186686Y24815061D01*
X5165760Y24602600D01*
X5165760Y23352600D01*
X5186686Y23140139D01*
X5248658Y22935842D01*
X5349296Y22747562D01*
X5484732Y22582532D01*
X5649762Y22447096D01*
X5838042Y22346458D01*
X6042339Y22284486D01*
X6254800Y22263560D01*
X7054800Y22263560D01*
X7267261Y22284486D01*
X7471558Y22346458D01*
X7534498Y22380100D01*
X8864600Y22380100D01*
X8869699Y22380600D01*
X25047601Y22380600D01*
X25047601Y21874600D01*
X24959498Y21874600D01*
X24959498Y21715852D01*
X24800750Y21874600D01*
X24719000Y21877672D01*
X24594518Y21865412D01*
X24474820Y21829102D01*
X24364506Y21770137D01*
X24267815Y21690785D01*
X24188463Y21594094D01*
X24129498Y21483780D01*
X24093188Y21364082D01*
X24080928Y21239600D01*
X24084000Y21215350D01*
X24242750Y21056600D01*
X24959500Y21056600D01*
X24959500Y21076600D01*
X25014960Y21076600D01*
X25014960Y20782600D01*
X24959500Y20782600D01*
X24959500Y20802600D01*
X24242750Y20802600D01*
X24084000Y20643850D01*
X24080928Y20619600D01*
X24093188Y20495118D01*
X24129498Y20375420D01*
X24188463Y20265106D01*
X24267815Y20168415D01*
X24364506Y20089063D01*
X24474820Y20030098D01*
X24594518Y19993788D01*
X24719000Y19981528D01*
X24800750Y19984600D01*
X24959498Y20143348D01*
X24959498Y19984600D01*
X25047601Y19984600D01*
X25047600Y9605973D01*
X25042682Y9562128D01*
X25042642Y9556478D01*
X25042620Y9556264D01*
X25042640Y9556050D01*
X25042600Y9550400D01*
X25042600Y8143640D01*
X23638400Y8143640D01*
X23474711Y8127518D01*
X23317313Y8079772D01*
X23172254Y8002236D01*
X23045109Y7897891D01*
X22940764Y7770746D01*
X22863228Y7625687D01*
X22815482Y7468289D01*
X22799360Y7304600D01*
X22799360Y6804600D01*
X22811928Y6677000D01*
X4680838Y6677000D01*
X4679324Y6693632D01*
X4678448Y6696609D01*
X4678145Y6699697D01*
X4654088Y6779378D01*
X4630558Y6859327D01*
X4629119Y6862080D01*
X4628223Y6865047D01*
X4589126Y6938577D01*
X4550536Y7012393D01*
X4548593Y7014809D01*
X4547135Y7017552D01*
X4494464Y7082133D01*
X4442308Y7147002D01*
X4439931Y7148996D01*
X4437970Y7151401D01*
X4373788Y7204497D01*
X4309996Y7258025D01*
X4307278Y7259519D01*
X4304886Y7261498D01*
X4231639Y7301102D01*
X4158639Y7341235D01*
X4155679Y7342174D01*
X4152951Y7343649D01*
X4073444Y7368260D01*
X3994002Y7393461D01*
X3990916Y7393807D01*
X3987954Y7394724D01*
X3905213Y7403420D01*
X3822357Y7412714D01*
X3816392Y7412756D01*
X3816178Y7412778D01*
X3815964Y7412758D01*
X3810000Y7412800D01*
X2689411Y7412800D01*
X2681288Y7413600D01*
X-3729027Y7413600D01*
X-3772872Y7418518D01*
X-3778522Y7418558D01*
X-3778736Y7418580D01*
X-3778950Y7418560D01*
X-3784600Y7418600D01*
X-6883400Y7418600D01*
X-6962042Y7410889D01*
X-7040800Y7403721D01*
X-7043625Y7402889D01*
X-7046557Y7402602D01*
X-7122278Y7379741D01*
X-7198070Y7357434D01*
X-7200677Y7356071D01*
X-7203499Y7355219D01*
X-7273340Y7318084D01*
X-7343353Y7281482D01*
X-7345647Y7279637D01*
X-7348249Y7278254D01*
X-7409526Y7228278D01*
X-7471117Y7178757D01*
X-7473010Y7176501D01*
X-7475293Y7174639D01*
X-7525722Y7113681D01*
X-7576495Y7053172D01*
X-7577912Y7050595D01*
X-7579792Y7048322D01*
X-7617409Y6978751D01*
X-7655474Y6909511D01*
X-7656365Y6906702D01*
X-7657765Y6904113D01*
X-7681126Y6828645D01*
X-7705044Y6753246D01*
X-7705373Y6750317D01*
X-7706243Y6747505D01*
X-7710984Y6702400D01*
X-12291855Y6702400D01*
X-12372675Y6694440D01*
X-15035720Y6694440D01*
X-15038127Y7967707D01*
X-13061950Y7970400D01*
X-12903200Y8129150D01*
X-12903200Y9228400D01*
X-12649200Y9228400D01*
X-12649200Y8129150D01*
X-12490450Y7970400D01*
X-10236200Y7967328D01*
X-10111718Y7979588D01*
X-9992020Y8015898D01*
X-9881706Y8074863D01*
X-9785015Y8154215D01*
X-9705663Y8250906D01*
X-9646698Y8361220D01*
X-9610388Y8480918D01*
X-9598128Y8605400D01*
X-9601200Y9069650D01*
X-9759950Y9228400D01*
X-12649200Y9228400D01*
X-12903200Y9228400D01*
X-12923200Y9228400D01*
X-12923200Y9482400D01*
X-12903200Y9482400D01*
X-12903200Y10581650D01*
X-12649200Y10581650D01*
X-12649200Y9482400D01*
X-9759950Y9482400D01*
X-9601200Y9641150D01*
X-9598128Y10105400D01*
X-9610388Y10229882D01*
X-9646698Y10349580D01*
X-9705663Y10459894D01*
X-9785015Y10556585D01*
X-9881706Y10635937D01*
X-9992020Y10694902D01*
X-10111718Y10731212D01*
X-10236200Y10743472D01*
X-12490450Y10740400D01*
X-12649200Y10581650D01*
X-12903200Y10581650D01*
X-13061950Y10740400D01*
X-15043374Y10743100D01*
X-15076609Y28324818D01*
X-9336291Y28324818D01*
X-9328734Y28243960D01*
X-9321107Y28161965D01*
X-9321053Y28161783D01*
X-9321035Y28161590D01*
X-9297451Y28082173D01*
X-9274509Y28004787D01*
X-9274421Y28004620D01*
X-9274366Y28004434D01*
X-9235753Y27931010D01*
X-9198269Y27859655D01*
X-9198151Y27859508D01*
X-9198060Y27859336D01*
X-9146051Y27794971D01*
X-9095291Y27732095D01*
X-9095145Y27731973D01*
X-9095023Y27731822D01*
X-9030383Y27677850D01*
X-8969497Y27626966D01*
X-8969337Y27626878D01*
X-8969183Y27626750D01*
X-8896329Y27586930D01*
X-8825680Y27548272D01*
X-8825495Y27548214D01*
X-8825329Y27548123D01*
X-8748541Y27523970D01*
X-8669317Y27499011D01*
X-8669123Y27498990D01*
X-8668943Y27498933D01*
X-8587651Y27490015D01*
X-8506363Y27481060D01*
X-8506012Y27481058D01*
X-8505982Y27481055D01*
X-8505948Y27481058D01*
X-8494635Y27481002D01*
X1957801Y27501720D01*
X1957800Y23899146D01*
X1980907Y23664534D01*
X2065760Y23384814D01*
X2065760Y23352600D01*
X2086686Y23140139D01*
X2148658Y22935842D01*
X2249296Y22747562D01*
X2384732Y22582532D01*
X2549762Y22447096D01*
X2738042Y22346458D01*
X2942339Y22284486D01*
X3154800Y22263560D01*
X3954800Y22263560D01*
X4167261Y22284486D01*
X4371558Y22346458D01*
X4559838Y22447096D01*
X4724868Y22582532D01*
X4860304Y22747562D01*
X4960942Y22935842D01*
X5022914Y23140139D01*
X5043840Y23352600D01*
X5043840Y23384813D01*
X5128693Y23664533D01*
X5151800Y23899145D01*
X5151800Y26554000D01*
X7326528Y26554000D01*
X7338788Y26429518D01*
X7375098Y26309820D01*
X7434063Y26199506D01*
X7513415Y26102815D01*
X7610106Y26023463D01*
X7720420Y25964498D01*
X7840118Y25928188D01*
X7964600Y25915928D01*
X8578850Y25919000D01*
X8737600Y26077750D01*
X8737600Y27089500D01*
X7488350Y27089500D01*
X7329600Y26930750D01*
X7326528Y26554000D01*
X5151800Y26554000D01*
X5151800Y27879000D01*
X7326528Y27879000D01*
X7329600Y27502250D01*
X7488350Y27343500D01*
X8737600Y27343500D01*
X8737600Y28355250D01*
X8991600Y28355250D01*
X8991600Y27343500D01*
X10240850Y27343500D01*
X10399600Y27502250D01*
X10402672Y27879000D01*
X10390412Y28003482D01*
X10354102Y28123180D01*
X10295137Y28233494D01*
X10215785Y28330185D01*
X10119094Y28409537D01*
X10008780Y28468502D01*
X9889082Y28504812D01*
X9764600Y28517072D01*
X9150350Y28514000D01*
X8991600Y28355250D01*
X8737600Y28355250D01*
X8578850Y28514000D01*
X7964600Y28517072D01*
X7840118Y28504812D01*
X7720420Y28468502D01*
X7610106Y28409537D01*
X7513415Y28330185D01*
X7434063Y28233494D01*
X7375098Y28123180D01*
X7338788Y28003482D01*
X7326528Y27879000D01*
X5151800Y27879000D01*
X5151800Y28280128D01*
X5157918Y28334672D01*
X5157969Y28342000D01*
X5157990Y28342201D01*
X5157972Y28342395D01*
X5158000Y28346400D01*
X5158000Y33909000D01*
X5150289Y33987642D01*
X5143121Y34066400D01*
X5142289Y34069225D01*
X5142002Y34072157D01*
X5119141Y34147878D01*
X5096834Y34223670D01*
X5095471Y34226277D01*
X5094619Y34229099D01*
X5057484Y34298940D01*
X5020882Y34368953D01*
X5019037Y34371247D01*
X5017654Y34373849D01*
X4967678Y34435126D01*
X4918157Y34496717D01*
X4915901Y34498610D01*
X4914039Y34500893D01*
X4853081Y34551322D01*
X4792572Y34602095D01*
X4789995Y34603512D01*
X4787722Y34605392D01*
X4718151Y34643009D01*
X4648911Y34681074D01*
X4646102Y34681965D01*
X4643513Y34683365D01*
X4568045Y34706726D01*
X4492646Y34730644D01*
X4489717Y34730973D01*
X4486905Y34731843D01*
X4408267Y34740108D01*
X4329728Y34748918D01*
X4324078Y34748958D01*
X4323864Y34748980D01*
X4323650Y34748960D01*
X4318000Y34749000D01*
X-8470900Y34749000D01*
X-8547648Y34741475D01*
X-8624548Y34734828D01*
X-8629219Y34733476D01*
X-8634057Y34733002D01*
X-8707901Y34710707D01*
X-8782027Y34689257D01*
X-8786347Y34687024D01*
X-8790999Y34685619D01*
X-8859101Y34649408D01*
X-8927653Y34613966D01*
X-8931456Y34610937D01*
X-8935749Y34608654D01*
X-8995545Y34559885D01*
X-9055883Y34511822D01*
X-9059024Y34508113D01*
X-9062793Y34505039D01*
X-9111982Y34445580D01*
X-9161831Y34386718D01*
X-9164192Y34382469D01*
X-9167292Y34378722D01*
X-9203986Y34310858D01*
X-9241462Y34243417D01*
X-9242954Y34238788D01*
X-9245265Y34234513D01*
X-9268064Y34160859D01*
X-9291742Y34087379D01*
X-9292306Y34082546D01*
X-9293743Y34077905D01*
X-9301807Y34001180D01*
X-9310756Y33924546D01*
X-9310866Y33914998D01*
X-9310880Y33914864D01*
X-9310869Y33914742D01*
X-9310891Y33912818D01*
X-9336289Y28325206D01*
X-9336290Y28325199D01*
X-9336289Y28325191D01*
X-9336291Y28324818D01*
X-15076609Y28324818D01*
X-15089574Y35182887D01*
X59390831Y35207715D01*
X59448164Y10944440D01*
G04 #@! TA.AperFunction,Conductor*
D26*
G36*
X59448164Y10944440D02*
G01*
X54762400Y10944440D01*
X54598711Y10928318D01*
X54441313Y10880572D01*
X54296254Y10803036D01*
X54169109Y10698691D01*
X54064764Y10571546D01*
X53987228Y10426487D01*
X53939482Y10269089D01*
X53923360Y10105400D01*
X53923360Y8605400D01*
X53939482Y8441711D01*
X53987228Y8284313D01*
X54064764Y8139254D01*
X54169109Y8012109D01*
X54296254Y7907764D01*
X54441313Y7830228D01*
X54598711Y7782482D01*
X54762400Y7766360D01*
X59455674Y7766360D01*
X59458186Y6702900D01*
X58750200Y6702900D01*
X58745101Y6702400D01*
X40477600Y6702400D01*
X40473865Y6702819D01*
X40468242Y6702858D01*
X40468033Y6702880D01*
X40467824Y6702861D01*
X40462200Y6702900D01*
X39646700Y6702900D01*
X39646700Y7391400D01*
X39639030Y7469629D01*
X39631901Y7547957D01*
X39631074Y7550767D01*
X39630788Y7553683D01*
X39608066Y7628943D01*
X39585862Y7704384D01*
X39584504Y7706981D01*
X39583658Y7709784D01*
X39546753Y7779193D01*
X39510317Y7848889D01*
X39508482Y7851172D01*
X39507106Y7853759D01*
X39457421Y7914679D01*
X39408142Y7975969D01*
X39405896Y7977853D01*
X39404046Y7980122D01*
X39343457Y8030246D01*
X39283230Y8080782D01*
X39280665Y8082192D01*
X39278406Y8084061D01*
X39209208Y8121476D01*
X39140338Y8159338D01*
X39137546Y8160224D01*
X39134969Y8161617D01*
X39059832Y8184876D01*
X38984910Y8208642D01*
X38982001Y8208968D01*
X38979201Y8209835D01*
X38900989Y8218056D01*
X38822865Y8226819D01*
X38817242Y8226858D01*
X38817033Y8226880D01*
X38816824Y8226861D01*
X38811200Y8226900D01*
X35229800Y8226900D01*
X35224701Y8226400D01*
X33524800Y8226400D01*
X33524800Y19629000D01*
X33604202Y19629000D01*
X33604202Y19787748D01*
X33762950Y19629000D01*
X33844700Y19625928D01*
X33969182Y19638188D01*
X34088880Y19674498D01*
X34199194Y19733463D01*
X34295885Y19812815D01*
X34375237Y19909506D01*
X34434202Y20019820D01*
X34470512Y20139518D01*
X34482772Y20264000D01*
X34479700Y20288250D01*
X34320950Y20447000D01*
X33604200Y20447000D01*
X33604200Y20427000D01*
X33548740Y20427000D01*
X33548740Y20721000D01*
X33604200Y20721000D01*
X33604200Y20701000D01*
X34320950Y20701000D01*
X34479700Y20859750D01*
X34482772Y20884000D01*
X34470512Y21008482D01*
X34434202Y21128180D01*
X34375237Y21238494D01*
X34295885Y21335185D01*
X34199194Y21414537D01*
X34088880Y21473502D01*
X33969182Y21509812D01*
X33844700Y21522072D01*
X33762950Y21519000D01*
X33604202Y21360252D01*
X33604202Y21519000D01*
X33524800Y21519000D01*
X33524800Y24318000D01*
X42683328Y24318000D01*
X42695588Y24193518D01*
X42731898Y24073820D01*
X42790863Y23963506D01*
X42870215Y23866815D01*
X42966906Y23787463D01*
X43077220Y23728498D01*
X43196918Y23692188D01*
X43321400Y23679928D01*
X43935650Y23683000D01*
X44094400Y23841750D01*
X44094400Y24853500D01*
X44348400Y24853500D01*
X44348400Y23841750D01*
X44507150Y23683000D01*
X45121400Y23679928D01*
X45245882Y23692188D01*
X45365580Y23728498D01*
X45475894Y23787463D01*
X45572585Y23866815D01*
X45651937Y23963506D01*
X45710902Y24073820D01*
X45747212Y24193518D01*
X45759472Y24318000D01*
X45756400Y24694750D01*
X45597650Y24853500D01*
X44348400Y24853500D01*
X44094400Y24853500D01*
X42845150Y24853500D01*
X42686400Y24694750D01*
X42683328Y24318000D01*
X33524800Y24318000D01*
X33524800Y25123800D01*
X35908403Y25123800D01*
X35915600Y25123750D01*
X36779200Y25123750D01*
X36857409Y25131418D01*
X36935673Y25138541D01*
X36938480Y25139367D01*
X36941395Y25139653D01*
X37016629Y25162368D01*
X37092015Y25184555D01*
X37094610Y25185912D01*
X37097413Y25186758D01*
X37166806Y25223655D01*
X37236443Y25260060D01*
X37238724Y25261894D01*
X37241310Y25263269D01*
X37302238Y25312961D01*
X37363454Y25362180D01*
X37365335Y25364422D01*
X37367605Y25366273D01*
X37417707Y25426836D01*
X37468211Y25487024D01*
X37469622Y25489590D01*
X37471488Y25491846D01*
X37508875Y25560992D01*
X37546724Y25629839D01*
X37547609Y25632628D01*
X37549002Y25635205D01*
X37572239Y25710273D01*
X37596002Y25785183D01*
X37596329Y25788094D01*
X37597194Y25790890D01*
X37605407Y25869027D01*
X37614169Y25947141D01*
X37614208Y25952761D01*
X37614230Y25952970D01*
X37614211Y25953179D01*
X37614250Y25958800D01*
X37614250Y26613223D01*
X39974400Y26609046D01*
X39974400Y26550998D01*
X40133148Y26550998D01*
X39974400Y26392250D01*
X39971328Y26310500D01*
X39983588Y26186018D01*
X40019898Y26066320D01*
X40078863Y25956006D01*
X40158215Y25859315D01*
X40254906Y25779963D01*
X40365220Y25720998D01*
X40484918Y25684688D01*
X40609400Y25672428D01*
X40633650Y25675500D01*
X40792398Y25834248D01*
X40792398Y25675500D01*
X40873737Y25675500D01*
X40873128Y25625600D01*
X40885388Y25501118D01*
X40921698Y25381420D01*
X40980663Y25271106D01*
X41060015Y25174415D01*
X41156706Y25095063D01*
X41267020Y25036098D01*
X41386718Y24999788D01*
X41511200Y24987528D01*
X41700450Y24990600D01*
X41859200Y25149350D01*
X41859200Y26036100D01*
X41802749Y26036100D01*
X41818902Y26066320D01*
X41855212Y26186018D01*
X41867433Y26310100D01*
X42113200Y26310100D01*
X42113200Y26290100D01*
X42133200Y26290100D01*
X42133200Y26036100D01*
X42113200Y26036100D01*
X42113200Y25149350D01*
X42271950Y24990600D01*
X42461200Y24987528D01*
X42585682Y24999788D01*
X42705380Y25036098D01*
X42815694Y25095063D01*
X42838704Y25113946D01*
X42845150Y25107500D01*
X44094400Y25107500D01*
X44094400Y26119250D01*
X44348400Y26119250D01*
X44348400Y25107500D01*
X45597650Y25107500D01*
X45756400Y25266250D01*
X45759472Y25643000D01*
X45747212Y25767482D01*
X45710902Y25887180D01*
X45651937Y25997494D01*
X45572585Y26094185D01*
X45475894Y26173537D01*
X45365580Y26232502D01*
X45245882Y26268812D01*
X45121400Y26281072D01*
X44507150Y26278000D01*
X44348400Y26119250D01*
X44094400Y26119250D01*
X43935650Y26278000D01*
X43321400Y26281072D01*
X43196918Y26268812D01*
X43096200Y26238260D01*
X43096200Y26290102D01*
X42937452Y26290102D01*
X43096200Y26448850D01*
X43098087Y26603517D01*
X43674646Y26602497D01*
X43908334Y26531607D01*
X44221400Y26500774D01*
X44534466Y26531607D01*
X44761811Y26600573D01*
X49604713Y26592001D01*
X49682194Y26599460D01*
X49759848Y26606172D01*
X49763804Y26607317D01*
X49767898Y26607711D01*
X49842482Y26630085D01*
X49917327Y26651744D01*
X49920982Y26653634D01*
X49924923Y26654816D01*
X49993780Y26691271D01*
X50062953Y26727035D01*
X50066169Y26729597D01*
X50069809Y26731524D01*
X50130290Y26780673D01*
X50191183Y26829178D01*
X50193842Y26832317D01*
X50197037Y26834914D01*
X50246823Y26894879D01*
X50297131Y26954283D01*
X50299129Y26957878D01*
X50301759Y26961046D01*
X50338913Y27029472D01*
X50376762Y27097583D01*
X50378026Y27101505D01*
X50379987Y27105117D01*
X50403113Y27179360D01*
X50427042Y27253621D01*
X50427520Y27257717D01*
X50428742Y27261639D01*
X50437015Y27339030D01*
X50446056Y27416454D01*
X50446148Y27424464D01*
X50446168Y27424649D01*
X50446152Y27424824D01*
X50446191Y27428182D01*
X50455594Y29496987D01*
X52329592Y29496987D01*
X52425356Y29232586D01*
X52714971Y29091696D01*
X53026508Y29010016D01*
X53347995Y28990682D01*
X53667075Y29034439D01*
X53971488Y29139605D01*
X54145444Y29232586D01*
X54241208Y29496987D01*
X53285400Y30452795D01*
X52329592Y29496987D01*
X50455594Y29496987D01*
X50460471Y30569805D01*
X51643682Y30569805D01*
X51687439Y30250725D01*
X51792605Y29946312D01*
X51885586Y29772356D01*
X52149987Y29676592D01*
X53105795Y30632400D01*
X53465005Y30632400D01*
X54420813Y29676592D01*
X54685214Y29772356D01*
X54826104Y30061971D01*
X54907784Y30373508D01*
X54927118Y30694995D01*
X54883361Y31014075D01*
X54778195Y31318488D01*
X54685214Y31492444D01*
X54420813Y31588208D01*
X53465005Y30632400D01*
X53105795Y30632400D01*
X52149987Y31588208D01*
X51885586Y31492444D01*
X51744696Y31202829D01*
X51663016Y30891292D01*
X51643682Y30569805D01*
X50460471Y30569805D01*
X50465916Y31767813D01*
X52329592Y31767813D01*
X53285400Y30812005D01*
X54241208Y31767813D01*
X54145444Y32032214D01*
X53855829Y32173104D01*
X53544292Y32254784D01*
X53222805Y32274118D01*
X52903725Y32230361D01*
X52599312Y32125195D01*
X52425356Y32032214D01*
X52329592Y31767813D01*
X50465916Y31767813D01*
X50471591Y33016182D01*
X50464075Y33096602D01*
X50456721Y33177400D01*
X50456431Y33178386D01*
X50456335Y33179410D01*
X50433248Y33257155D01*
X50410434Y33334670D01*
X50409960Y33335578D01*
X50409666Y33336566D01*
X50371878Y33408421D01*
X50334482Y33479953D01*
X50333840Y33480752D01*
X50333360Y33481664D01*
X50282408Y33544720D01*
X50231757Y33607717D01*
X50230970Y33608378D01*
X50230323Y33609178D01*
X50167948Y33661259D01*
X50106172Y33713095D01*
X50105277Y33713587D01*
X50104483Y33714250D01*
X50033215Y33753204D01*
X49962511Y33792074D01*
X49961531Y33792385D01*
X49960629Y33792878D01*
X49883441Y33817156D01*
X49806246Y33841644D01*
X49805223Y33841759D01*
X49804243Y33842067D01*
X49723609Y33850913D01*
X49643328Y33859918D01*
X49641406Y33859931D01*
X49641282Y33859945D01*
X49641146Y33859933D01*
X49631600Y33860000D01*
X35255200Y33860000D01*
X35176558Y33852289D01*
X35097800Y33845121D01*
X35094975Y33844289D01*
X35092043Y33844002D01*
X35016322Y33821141D01*
X34940530Y33798834D01*
X34937923Y33797471D01*
X34935101Y33796619D01*
X34865260Y33759484D01*
X34795247Y33722882D01*
X34792953Y33721037D01*
X34790351Y33719654D01*
X34729074Y33669678D01*
X34667483Y33620157D01*
X34665590Y33617901D01*
X34663307Y33616039D01*
X34612878Y33555081D01*
X34562105Y33494572D01*
X34560688Y33491995D01*
X34558808Y33489722D01*
X34521191Y33420151D01*
X34483126Y33350911D01*
X34482235Y33348102D01*
X34480835Y33345513D01*
X34457474Y33270045D01*
X34433556Y33194646D01*
X34433227Y33191717D01*
X34432357Y33188905D01*
X34424092Y33110267D01*
X34415282Y33031728D01*
X34415242Y33026078D01*
X34415220Y33025864D01*
X34415240Y33025650D01*
X34415200Y33020000D01*
X34415200Y28317800D01*
X32690520Y28317800D01*
X32689800Y28317805D01*
X32006204Y28317805D01*
X31927800Y28325527D01*
X31849396Y28317805D01*
X31165800Y28317805D01*
X31087664Y28310143D01*
X31009336Y28303015D01*
X31006524Y28302187D01*
X31003613Y28301902D01*
X30928366Y28279184D01*
X30853002Y28257003D01*
X30850411Y28255648D01*
X30847604Y28254801D01*
X30778156Y28217875D01*
X30708582Y28181502D01*
X30706301Y28179668D01*
X30703715Y28178293D01*
X30642791Y28128605D01*
X30581578Y28079388D01*
X30579697Y28077146D01*
X30577427Y28075295D01*
X30527299Y28014701D01*
X30476826Y27954550D01*
X30475417Y27951987D01*
X30473549Y27949729D01*
X30436177Y27880610D01*
X30398317Y27811743D01*
X30397431Y27808949D01*
X30396040Y27806377D01*
X30372818Y27731359D01*
X30349042Y27656407D01*
X30348716Y27653497D01*
X30347850Y27650701D01*
X30339637Y27572560D01*
X30330876Y27494458D01*
X30330837Y27488838D01*
X30330815Y27488629D01*
X30330834Y27488420D01*
X30330795Y27482800D01*
X30330795Y26799204D01*
X30323073Y26720800D01*
X30330801Y26642335D01*
X30330800Y10393640D01*
X29888400Y10393640D01*
X29738400Y10378866D01*
X29588400Y10393640D01*
X29088400Y10393640D01*
X28938400Y10378866D01*
X28788400Y10393640D01*
X28288400Y10393640D01*
X28241600Y10389031D01*
X28241600Y23185427D01*
X28246518Y23229272D01*
X28246558Y23234922D01*
X28246580Y23235136D01*
X28246560Y23235350D01*
X28246600Y23241000D01*
X28246600Y23949912D01*
X28249327Y23977600D01*
X28246600Y24005288D01*
X28246600Y24739600D01*
X28238889Y24818242D01*
X28231721Y24897000D01*
X28230889Y24899825D01*
X28230602Y24902757D01*
X28207741Y24978478D01*
X28185434Y25054270D01*
X28184071Y25056877D01*
X28183219Y25059699D01*
X28146084Y25129540D01*
X28109482Y25199553D01*
X28107637Y25201847D01*
X28106254Y25204449D01*
X28056278Y25265726D01*
X28006757Y25327317D01*
X28004501Y25329210D01*
X28002639Y25331493D01*
X27941681Y25381922D01*
X27881172Y25432695D01*
X27878595Y25434112D01*
X27876322Y25435992D01*
X27806751Y25473609D01*
X27737511Y25511674D01*
X27734702Y25512565D01*
X27732113Y25513965D01*
X27656645Y25537326D01*
X27581246Y25561244D01*
X27578317Y25561573D01*
X27575505Y25562443D01*
X27496867Y25570708D01*
X27418328Y25579518D01*
X27412678Y25579558D01*
X27412464Y25579580D01*
X27412250Y25579560D01*
X27406600Y25579600D01*
X23698200Y25579600D01*
X23647207Y25574600D01*
X12400400Y25574600D01*
X12400400Y25654002D01*
X12241652Y25654002D01*
X12400400Y25812750D01*
X12403472Y25894500D01*
X12391212Y26018982D01*
X12354902Y26138680D01*
X12295937Y26248994D01*
X12216585Y26345685D01*
X12119894Y26425037D01*
X12009580Y26484002D01*
X11889882Y26520312D01*
X11765400Y26532572D01*
X11741150Y26529500D01*
X11582400Y26370750D01*
X11582400Y25654000D01*
X11602400Y25654000D01*
X11602400Y25598540D01*
X11422999Y25598540D01*
X11422400Y25647650D01*
X11328400Y25741650D01*
X11328400Y26125150D01*
X11422400Y26219150D01*
X11425472Y26470900D01*
X11413212Y26595382D01*
X11376902Y26715080D01*
X11317937Y26825394D01*
X11238585Y26922085D01*
X11141894Y27001437D01*
X11031580Y27060402D01*
X10911882Y27096712D01*
X10787400Y27108972D01*
X10598150Y27105900D01*
X10439400Y26947150D01*
X10439400Y26060400D01*
X10532152Y26060400D01*
X10519588Y26018982D01*
X10507328Y25894500D01*
X10510400Y25812750D01*
X10516750Y25806400D01*
X10439400Y25806400D01*
X10439400Y25786400D01*
X10185400Y25786400D01*
X10185400Y25806400D01*
X10165400Y25806400D01*
X10165400Y26060400D01*
X10185400Y26060400D01*
X10185400Y26077879D01*
X10215785Y26102815D01*
X10295137Y26199506D01*
X10354102Y26309820D01*
X10390412Y26429518D01*
X10402672Y26554000D01*
X10399600Y26930750D01*
X10240850Y27089500D01*
X10043050Y27089500D01*
X10026650Y27105900D01*
X9837400Y27108972D01*
X9712918Y27096712D01*
X9689143Y27089500D01*
X8991600Y27089500D01*
X8991600Y26077750D01*
X9150350Y25919000D01*
X9202400Y25918740D01*
X9202400Y25806398D01*
X9361148Y25806398D01*
X9202400Y25647650D01*
X9201734Y25593040D01*
X8214599Y25593040D01*
X8032455Y25575100D01*
X7534498Y25575100D01*
X7471558Y25608742D01*
X7267261Y25670714D01*
X7054800Y25691640D01*
X6254800Y25691640D01*
X6042339Y25670714D01*
X5838042Y25608742D01*
X5649762Y25508104D01*
X5484732Y25372668D01*
X5349296Y25207638D01*
X5248658Y25019358D01*
X5186686Y24815061D01*
X5165760Y24602600D01*
X5165760Y23352600D01*
X5186686Y23140139D01*
X5248658Y22935842D01*
X5349296Y22747562D01*
X5484732Y22582532D01*
X5649762Y22447096D01*
X5838042Y22346458D01*
X6042339Y22284486D01*
X6254800Y22263560D01*
X7054800Y22263560D01*
X7267261Y22284486D01*
X7471558Y22346458D01*
X7534498Y22380100D01*
X8864600Y22380100D01*
X8869699Y22380600D01*
X25047601Y22380600D01*
X25047601Y21874600D01*
X24959498Y21874600D01*
X24959498Y21715852D01*
X24800750Y21874600D01*
X24719000Y21877672D01*
X24594518Y21865412D01*
X24474820Y21829102D01*
X24364506Y21770137D01*
X24267815Y21690785D01*
X24188463Y21594094D01*
X24129498Y21483780D01*
X24093188Y21364082D01*
X24080928Y21239600D01*
X24084000Y21215350D01*
X24242750Y21056600D01*
X24959500Y21056600D01*
X24959500Y21076600D01*
X25014960Y21076600D01*
X25014960Y20782600D01*
X24959500Y20782600D01*
X24959500Y20802600D01*
X24242750Y20802600D01*
X24084000Y20643850D01*
X24080928Y20619600D01*
X24093188Y20495118D01*
X24129498Y20375420D01*
X24188463Y20265106D01*
X24267815Y20168415D01*
X24364506Y20089063D01*
X24474820Y20030098D01*
X24594518Y19993788D01*
X24719000Y19981528D01*
X24800750Y19984600D01*
X24959498Y20143348D01*
X24959498Y19984600D01*
X25047601Y19984600D01*
X25047600Y9605973D01*
X25042682Y9562128D01*
X25042642Y9556478D01*
X25042620Y9556264D01*
X25042640Y9556050D01*
X25042600Y9550400D01*
X25042600Y8143640D01*
X23638400Y8143640D01*
X23474711Y8127518D01*
X23317313Y8079772D01*
X23172254Y8002236D01*
X23045109Y7897891D01*
X22940764Y7770746D01*
X22863228Y7625687D01*
X22815482Y7468289D01*
X22799360Y7304600D01*
X22799360Y6804600D01*
X22811928Y6677000D01*
X4680838Y6677000D01*
X4679324Y6693632D01*
X4678448Y6696609D01*
X4678145Y6699697D01*
X4654088Y6779378D01*
X4630558Y6859327D01*
X4629119Y6862080D01*
X4628223Y6865047D01*
X4589126Y6938577D01*
X4550536Y7012393D01*
X4548593Y7014809D01*
X4547135Y7017552D01*
X4494464Y7082133D01*
X4442308Y7147002D01*
X4439931Y7148996D01*
X4437970Y7151401D01*
X4373788Y7204497D01*
X4309996Y7258025D01*
X4307278Y7259519D01*
X4304886Y7261498D01*
X4231639Y7301102D01*
X4158639Y7341235D01*
X4155679Y7342174D01*
X4152951Y7343649D01*
X4073444Y7368260D01*
X3994002Y7393461D01*
X3990916Y7393807D01*
X3987954Y7394724D01*
X3905213Y7403420D01*
X3822357Y7412714D01*
X3816392Y7412756D01*
X3816178Y7412778D01*
X3815964Y7412758D01*
X3810000Y7412800D01*
X2689411Y7412800D01*
X2681288Y7413600D01*
X-3729027Y7413600D01*
X-3772872Y7418518D01*
X-3778522Y7418558D01*
X-3778736Y7418580D01*
X-3778950Y7418560D01*
X-3784600Y7418600D01*
X-6883400Y7418600D01*
X-6962042Y7410889D01*
X-7040800Y7403721D01*
X-7043625Y7402889D01*
X-7046557Y7402602D01*
X-7122278Y7379741D01*
X-7198070Y7357434D01*
X-7200677Y7356071D01*
X-7203499Y7355219D01*
X-7273340Y7318084D01*
X-7343353Y7281482D01*
X-7345647Y7279637D01*
X-7348249Y7278254D01*
X-7409526Y7228278D01*
X-7471117Y7178757D01*
X-7473010Y7176501D01*
X-7475293Y7174639D01*
X-7525722Y7113681D01*
X-7576495Y7053172D01*
X-7577912Y7050595D01*
X-7579792Y7048322D01*
X-7617409Y6978751D01*
X-7655474Y6909511D01*
X-7656365Y6906702D01*
X-7657765Y6904113D01*
X-7681126Y6828645D01*
X-7705044Y6753246D01*
X-7705373Y6750317D01*
X-7706243Y6747505D01*
X-7710984Y6702400D01*
X-12291855Y6702400D01*
X-12372675Y6694440D01*
X-15035720Y6694440D01*
X-15038127Y7967707D01*
X-13061950Y7970400D01*
X-12903200Y8129150D01*
X-12903200Y9228400D01*
X-12649200Y9228400D01*
X-12649200Y8129150D01*
X-12490450Y7970400D01*
X-10236200Y7967328D01*
X-10111718Y7979588D01*
X-9992020Y8015898D01*
X-9881706Y8074863D01*
X-9785015Y8154215D01*
X-9705663Y8250906D01*
X-9646698Y8361220D01*
X-9610388Y8480918D01*
X-9598128Y8605400D01*
X-9601200Y9069650D01*
X-9759950Y9228400D01*
X-12649200Y9228400D01*
X-12903200Y9228400D01*
X-12923200Y9228400D01*
X-12923200Y9482400D01*
X-12903200Y9482400D01*
X-12903200Y10581650D01*
X-12649200Y10581650D01*
X-12649200Y9482400D01*
X-9759950Y9482400D01*
X-9601200Y9641150D01*
X-9598128Y10105400D01*
X-9610388Y10229882D01*
X-9646698Y10349580D01*
X-9705663Y10459894D01*
X-9785015Y10556585D01*
X-9881706Y10635937D01*
X-9992020Y10694902D01*
X-10111718Y10731212D01*
X-10236200Y10743472D01*
X-12490450Y10740400D01*
X-12649200Y10581650D01*
X-12903200Y10581650D01*
X-13061950Y10740400D01*
X-15043374Y10743100D01*
X-15076609Y28324818D01*
X-9336291Y28324818D01*
X-9328734Y28243960D01*
X-9321107Y28161965D01*
X-9321053Y28161783D01*
X-9321035Y28161590D01*
X-9297451Y28082173D01*
X-9274509Y28004787D01*
X-9274421Y28004620D01*
X-9274366Y28004434D01*
X-9235753Y27931010D01*
X-9198269Y27859655D01*
X-9198151Y27859508D01*
X-9198060Y27859336D01*
X-9146051Y27794971D01*
X-9095291Y27732095D01*
X-9095145Y27731973D01*
X-9095023Y27731822D01*
X-9030383Y27677850D01*
X-8969497Y27626966D01*
X-8969337Y27626878D01*
X-8969183Y27626750D01*
X-8896329Y27586930D01*
X-8825680Y27548272D01*
X-8825495Y27548214D01*
X-8825329Y27548123D01*
X-8748541Y27523970D01*
X-8669317Y27499011D01*
X-8669123Y27498990D01*
X-8668943Y27498933D01*
X-8587651Y27490015D01*
X-8506363Y27481060D01*
X-8506012Y27481058D01*
X-8505982Y27481055D01*
X-8505948Y27481058D01*
X-8494635Y27481002D01*
X1957801Y27501720D01*
X1957800Y23899146D01*
X1980907Y23664534D01*
X2065760Y23384814D01*
X2065760Y23352600D01*
X2086686Y23140139D01*
X2148658Y22935842D01*
X2249296Y22747562D01*
X2384732Y22582532D01*
X2549762Y22447096D01*
X2738042Y22346458D01*
X2942339Y22284486D01*
X3154800Y22263560D01*
X3954800Y22263560D01*
X4167261Y22284486D01*
X4371558Y22346458D01*
X4559838Y22447096D01*
X4724868Y22582532D01*
X4860304Y22747562D01*
X4960942Y22935842D01*
X5022914Y23140139D01*
X5043840Y23352600D01*
X5043840Y23384813D01*
X5128693Y23664533D01*
X5151800Y23899145D01*
X5151800Y26554000D01*
X7326528Y26554000D01*
X7338788Y26429518D01*
X7375098Y26309820D01*
X7434063Y26199506D01*
X7513415Y26102815D01*
X7610106Y26023463D01*
X7720420Y25964498D01*
X7840118Y25928188D01*
X7964600Y25915928D01*
X8578850Y25919000D01*
X8737600Y26077750D01*
X8737600Y27089500D01*
X7488350Y27089500D01*
X7329600Y26930750D01*
X7326528Y26554000D01*
X5151800Y26554000D01*
X5151800Y27879000D01*
X7326528Y27879000D01*
X7329600Y27502250D01*
X7488350Y27343500D01*
X8737600Y27343500D01*
X8737600Y28355250D01*
X8991600Y28355250D01*
X8991600Y27343500D01*
X10240850Y27343500D01*
X10399600Y27502250D01*
X10402672Y27879000D01*
X10390412Y28003482D01*
X10354102Y28123180D01*
X10295137Y28233494D01*
X10215785Y28330185D01*
X10119094Y28409537D01*
X10008780Y28468502D01*
X9889082Y28504812D01*
X9764600Y28517072D01*
X9150350Y28514000D01*
X8991600Y28355250D01*
X8737600Y28355250D01*
X8578850Y28514000D01*
X7964600Y28517072D01*
X7840118Y28504812D01*
X7720420Y28468502D01*
X7610106Y28409537D01*
X7513415Y28330185D01*
X7434063Y28233494D01*
X7375098Y28123180D01*
X7338788Y28003482D01*
X7326528Y27879000D01*
X5151800Y27879000D01*
X5151800Y28280128D01*
X5157918Y28334672D01*
X5157969Y28342000D01*
X5157990Y28342201D01*
X5157972Y28342395D01*
X5158000Y28346400D01*
X5158000Y33909000D01*
X5150289Y33987642D01*
X5143121Y34066400D01*
X5142289Y34069225D01*
X5142002Y34072157D01*
X5119141Y34147878D01*
X5096834Y34223670D01*
X5095471Y34226277D01*
X5094619Y34229099D01*
X5057484Y34298940D01*
X5020882Y34368953D01*
X5019037Y34371247D01*
X5017654Y34373849D01*
X4967678Y34435126D01*
X4918157Y34496717D01*
X4915901Y34498610D01*
X4914039Y34500893D01*
X4853081Y34551322D01*
X4792572Y34602095D01*
X4789995Y34603512D01*
X4787722Y34605392D01*
X4718151Y34643009D01*
X4648911Y34681074D01*
X4646102Y34681965D01*
X4643513Y34683365D01*
X4568045Y34706726D01*
X4492646Y34730644D01*
X4489717Y34730973D01*
X4486905Y34731843D01*
X4408267Y34740108D01*
X4329728Y34748918D01*
X4324078Y34748958D01*
X4323864Y34748980D01*
X4323650Y34748960D01*
X4318000Y34749000D01*
X-8470900Y34749000D01*
X-8547648Y34741475D01*
X-8624548Y34734828D01*
X-8629219Y34733476D01*
X-8634057Y34733002D01*
X-8707901Y34710707D01*
X-8782027Y34689257D01*
X-8786347Y34687024D01*
X-8790999Y34685619D01*
X-8859101Y34649408D01*
X-8927653Y34613966D01*
X-8931456Y34610937D01*
X-8935749Y34608654D01*
X-8995545Y34559885D01*
X-9055883Y34511822D01*
X-9059024Y34508113D01*
X-9062793Y34505039D01*
X-9111982Y34445580D01*
X-9161831Y34386718D01*
X-9164192Y34382469D01*
X-9167292Y34378722D01*
X-9203986Y34310858D01*
X-9241462Y34243417D01*
X-9242954Y34238788D01*
X-9245265Y34234513D01*
X-9268064Y34160859D01*
X-9291742Y34087379D01*
X-9292306Y34082546D01*
X-9293743Y34077905D01*
X-9301807Y34001180D01*
X-9310756Y33924546D01*
X-9310866Y33914998D01*
X-9310880Y33914864D01*
X-9310869Y33914742D01*
X-9310891Y33912818D01*
X-9336289Y28325206D01*
X-9336290Y28325199D01*
X-9336289Y28325191D01*
X-9336291Y28324818D01*
X-15076609Y28324818D01*
X-15089574Y35182887D01*
X59390831Y35207715D01*
X59448164Y10944440D01*
G37*
G04 #@! TD.AperFunction*
D25*
X40875198Y26531000D02*
X40792400Y26531000D01*
X40792400Y26551000D01*
X40772400Y26551000D01*
X40772400Y26606460D01*
X40874277Y26606460D01*
X40875198Y26531000D01*
G04 #@! TA.AperFunction,Conductor*
D26*
G36*
X40875198Y26531000D02*
G01*
X40792400Y26531000D01*
X40792400Y26551000D01*
X40772400Y26551000D01*
X40772400Y26606460D01*
X40874277Y26606460D01*
X40875198Y26531000D01*
G37*
G04 #@! TD.AperFunction*
M02*
