G04 #@! TF.GenerationSoftware,KiCad,Pcbnew,(5.1.9)-1*
G04 #@! TF.CreationDate,2022-02-07T19:04:32+01:00*
G04 #@! TF.ProjectId,AmplificadorV2,416d706c-6966-4696-9361-646f7256322e,rev?*
G04 #@! TF.SameCoordinates,Original*
G04 #@! TF.FileFunction,Copper,L3,Inr*
G04 #@! TF.FilePolarity,Positive*
%FSLAX46Y46*%
G04 Gerber Fmt 4.6, Leading zero omitted, Abs format (unit mm)*
G04 Created by KiCad (PCBNEW (5.1.9)-1) date 2022-02-07 19:04:32*
%MOMM*%
%LPD*%
G01*
G04 APERTURE LIST*
G04 #@! TA.AperFunction,ComponentPad*
%ADD10C,2.000000*%
G04 #@! TD*
G04 #@! TA.AperFunction,ComponentPad*
%ADD11R,2.000000X2.000000*%
G04 #@! TD*
G04 #@! TA.AperFunction,ComponentPad*
%ADD12C,0.245000*%
G04 #@! TD*
G04 #@! TA.AperFunction,Conductor*
%ADD13C,0.254000*%
G04 #@! TD*
G04 #@! TA.AperFunction,Conductor*
%ADD14C,0.100000*%
G04 #@! TD*
G04 APERTURE END LIST*
D10*
X53285400Y30632400D03*
D11*
X48285400Y30632400D03*
D12*
X30343400Y2849600D03*
X30343400Y3339600D03*
X30343400Y3829600D03*
X30343400Y4319600D03*
X30343400Y4809600D03*
X30343400Y5299600D03*
X30343400Y5789600D03*
X30343400Y6279600D03*
X30343400Y6769600D03*
X30343400Y7259600D03*
X29853400Y2849600D03*
X29853400Y3339600D03*
X29853400Y3829600D03*
X29853400Y4319600D03*
X29853400Y4809600D03*
X29853400Y5299600D03*
X29853400Y5789600D03*
X29853400Y6279600D03*
X29853400Y6769600D03*
X29853400Y7259600D03*
X29363400Y2849600D03*
X29363400Y3339600D03*
X29363400Y3829600D03*
X29363400Y4319600D03*
X29363400Y4809600D03*
X29363400Y5299600D03*
X29363400Y5789600D03*
X29363400Y6279600D03*
X29363400Y6769600D03*
X29363400Y7259600D03*
X28873400Y2849600D03*
X28873400Y3339600D03*
X28873400Y3829600D03*
X28873400Y4319600D03*
X28873400Y4809600D03*
X28873400Y5299600D03*
X28873400Y5789600D03*
X28873400Y6279600D03*
X28873400Y6769600D03*
X28873400Y7259600D03*
X28383400Y2849600D03*
X28383400Y3339600D03*
X28383400Y3829600D03*
X28383400Y4319600D03*
X28383400Y4809600D03*
X28383400Y5299600D03*
X28383400Y5789600D03*
X28383400Y6279600D03*
X28383400Y6769600D03*
X28383400Y7259600D03*
X27893400Y2849600D03*
X27893400Y3339600D03*
X27893400Y3829600D03*
X27893400Y4319600D03*
X27893400Y4809600D03*
X27893400Y5299600D03*
X27893400Y5789600D03*
X27893400Y6279600D03*
X27893400Y6769600D03*
X27893400Y7259600D03*
X27403400Y2849600D03*
X27403400Y3339600D03*
X27403400Y3829600D03*
X27403400Y4319600D03*
X27403400Y4809600D03*
X27403400Y5299600D03*
X27403400Y5789600D03*
X27403400Y6279600D03*
X27403400Y6769600D03*
X27403400Y7259600D03*
X26913400Y2849600D03*
X26913400Y3339600D03*
X26913400Y3829600D03*
X26913400Y4319600D03*
X26913400Y4809600D03*
X26913400Y5299600D03*
X26913400Y5789600D03*
X26913400Y6279600D03*
X26913400Y6769600D03*
X26913400Y7259600D03*
X26423400Y2849600D03*
X26423400Y3339600D03*
X26423400Y3829600D03*
X26423400Y4319600D03*
X26423400Y4809600D03*
X26423400Y5299600D03*
X26423400Y5789600D03*
X26423400Y6279600D03*
X26423400Y6769600D03*
X26423400Y7259600D03*
X25933400Y2849600D03*
X25933400Y3339600D03*
X25933400Y3829600D03*
X25933400Y4319600D03*
X25933400Y4809600D03*
X25933400Y5299600D03*
X25933400Y5789600D03*
X25933400Y6279600D03*
X25933400Y6769600D03*
X25933400Y7259600D03*
D13*
X59513767Y-16818687D02*
X-14991225Y-16843515D01*
X-15036967Y7353906D01*
X24975900Y7353906D01*
X24975900Y7165294D01*
X25005875Y7014600D01*
X24975900Y6863906D01*
X24975900Y6675294D01*
X25005875Y6524600D01*
X24975900Y6373906D01*
X24975900Y6185294D01*
X25005875Y6034600D01*
X24975900Y5883906D01*
X24975900Y5695294D01*
X25005875Y5544600D01*
X24975900Y5393906D01*
X24975900Y5205294D01*
X25005875Y5054600D01*
X24975900Y4903906D01*
X24975900Y4715294D01*
X25005875Y4564600D01*
X24975900Y4413906D01*
X24975900Y4225294D01*
X25005875Y4074600D01*
X24975900Y3923906D01*
X24975900Y3735294D01*
X25005875Y3584600D01*
X24975900Y3433906D01*
X24975900Y3245294D01*
X25005875Y3094600D01*
X24975900Y2943906D01*
X24975900Y2755294D01*
X25012696Y2570308D01*
X25084874Y2396054D01*
X25189661Y2239229D01*
X25323029Y2105861D01*
X25479854Y2001074D01*
X25654108Y1928896D01*
X25839094Y1892100D01*
X26027706Y1892100D01*
X26178400Y1922075D01*
X26329094Y1892100D01*
X26517706Y1892100D01*
X26668400Y1922075D01*
X26819094Y1892100D01*
X27007706Y1892100D01*
X27158400Y1922075D01*
X27309094Y1892100D01*
X27497706Y1892100D01*
X27648400Y1922075D01*
X27799094Y1892100D01*
X27987706Y1892100D01*
X28138400Y1922075D01*
X28289094Y1892100D01*
X28477706Y1892100D01*
X28628400Y1922075D01*
X28779094Y1892100D01*
X28967706Y1892100D01*
X29118400Y1922075D01*
X29269094Y1892100D01*
X29457706Y1892100D01*
X29608400Y1922075D01*
X29759094Y1892100D01*
X29947706Y1892100D01*
X30098400Y1922075D01*
X30249094Y1892100D01*
X30437706Y1892100D01*
X30622692Y1928896D01*
X30796946Y2001074D01*
X30953771Y2105861D01*
X31087139Y2239229D01*
X31191926Y2396054D01*
X31264104Y2570308D01*
X31300900Y2755294D01*
X31300900Y2943906D01*
X31270925Y3094600D01*
X31300900Y3245294D01*
X31300900Y3433906D01*
X31270925Y3584600D01*
X31300900Y3735294D01*
X31300900Y3923906D01*
X31270925Y4074600D01*
X31300900Y4225294D01*
X31300900Y4413906D01*
X31270925Y4564600D01*
X31300900Y4715294D01*
X31300900Y4903906D01*
X31270925Y5054600D01*
X31300900Y5205294D01*
X31300900Y5393906D01*
X31270925Y5544600D01*
X31300900Y5695294D01*
X31300900Y5883906D01*
X31270925Y6034600D01*
X31300900Y6185294D01*
X31300900Y6373906D01*
X31270925Y6524600D01*
X31300900Y6675294D01*
X31300900Y6863906D01*
X31270925Y7014600D01*
X31300900Y7165294D01*
X31300900Y7353906D01*
X31264104Y7538892D01*
X31191926Y7713146D01*
X31087139Y7869971D01*
X30953771Y8003339D01*
X30796946Y8108126D01*
X30622692Y8180304D01*
X30437706Y8217100D01*
X30249094Y8217100D01*
X30098400Y8187125D01*
X29947706Y8217100D01*
X29759094Y8217100D01*
X29608400Y8187125D01*
X29457706Y8217100D01*
X29269094Y8217100D01*
X29118400Y8187125D01*
X28967706Y8217100D01*
X28779094Y8217100D01*
X28628400Y8187125D01*
X28477706Y8217100D01*
X28289094Y8217100D01*
X28138400Y8187125D01*
X27987706Y8217100D01*
X27799094Y8217100D01*
X27648400Y8187125D01*
X27497706Y8217100D01*
X27309094Y8217100D01*
X27158400Y8187125D01*
X27007706Y8217100D01*
X26819094Y8217100D01*
X26668400Y8187125D01*
X26517706Y8217100D01*
X26329094Y8217100D01*
X26178400Y8187125D01*
X26027706Y8217100D01*
X25839094Y8217100D01*
X25654108Y8180304D01*
X25479854Y8108126D01*
X25323029Y8003339D01*
X25189661Y7869971D01*
X25084874Y7713146D01*
X25012696Y7538892D01*
X24975900Y7353906D01*
X-15036967Y7353906D01*
X-15082862Y31632400D01*
X46446360Y31632400D01*
X46446360Y29632400D01*
X46462482Y29468711D01*
X46510228Y29311313D01*
X46587764Y29166254D01*
X46692109Y29039109D01*
X46819254Y28934764D01*
X46964313Y28857228D01*
X47121711Y28809482D01*
X47285400Y28793360D01*
X49285400Y28793360D01*
X49449089Y28809482D01*
X49606487Y28857228D01*
X49751546Y28934764D01*
X49878691Y29039109D01*
X49983036Y29166254D01*
X50060572Y29311313D01*
X50108318Y29468711D01*
X50111102Y29496987D01*
X52329592Y29496987D01*
X52425356Y29232586D01*
X52714971Y29091696D01*
X53026508Y29010016D01*
X53347995Y28990682D01*
X53667075Y29034439D01*
X53971488Y29139605D01*
X54145444Y29232586D01*
X54241208Y29496987D01*
X53285400Y30452795D01*
X52329592Y29496987D01*
X50111102Y29496987D01*
X50124440Y29632400D01*
X50124440Y30569805D01*
X51643682Y30569805D01*
X51687439Y30250725D01*
X51792605Y29946312D01*
X51885586Y29772356D01*
X52149987Y29676592D01*
X53105795Y30632400D01*
X53465005Y30632400D01*
X54420813Y29676592D01*
X54685214Y29772356D01*
X54826104Y30061971D01*
X54907784Y30373508D01*
X54927118Y30694995D01*
X54883361Y31014075D01*
X54778195Y31318488D01*
X54685214Y31492444D01*
X54420813Y31588208D01*
X53465005Y30632400D01*
X53105795Y30632400D01*
X52149987Y31588208D01*
X51885586Y31492444D01*
X51744696Y31202829D01*
X51663016Y30891292D01*
X51643682Y30569805D01*
X50124440Y30569805D01*
X50124440Y31632400D01*
X50111103Y31767813D01*
X52329592Y31767813D01*
X53285400Y30812005D01*
X54241208Y31767813D01*
X54145444Y32032214D01*
X53855829Y32173104D01*
X53544292Y32254784D01*
X53222805Y32274118D01*
X52903725Y32230361D01*
X52599312Y32125195D01*
X52425356Y32032214D01*
X52329592Y31767813D01*
X50111103Y31767813D01*
X50108318Y31796089D01*
X50060572Y31953487D01*
X49983036Y32098546D01*
X49878691Y32225691D01*
X49751546Y32330036D01*
X49606487Y32407572D01*
X49449089Y32455318D01*
X49285400Y32471440D01*
X47285400Y32471440D01*
X47121711Y32455318D01*
X46964313Y32407572D01*
X46819254Y32330036D01*
X46692109Y32225691D01*
X46587764Y32098546D01*
X46510228Y31953487D01*
X46462482Y31796089D01*
X46446360Y31632400D01*
X-15082862Y31632400D01*
X-15089574Y35182887D01*
X59390831Y35207715D01*
X59513767Y-16818687D01*
G04 #@! TA.AperFunction,Conductor*
D14*
G36*
X59513767Y-16818687D02*
G01*
X-14991225Y-16843515D01*
X-15036967Y7353906D01*
X24975900Y7353906D01*
X24975900Y7165294D01*
X25005875Y7014600D01*
X24975900Y6863906D01*
X24975900Y6675294D01*
X25005875Y6524600D01*
X24975900Y6373906D01*
X24975900Y6185294D01*
X25005875Y6034600D01*
X24975900Y5883906D01*
X24975900Y5695294D01*
X25005875Y5544600D01*
X24975900Y5393906D01*
X24975900Y5205294D01*
X25005875Y5054600D01*
X24975900Y4903906D01*
X24975900Y4715294D01*
X25005875Y4564600D01*
X24975900Y4413906D01*
X24975900Y4225294D01*
X25005875Y4074600D01*
X24975900Y3923906D01*
X24975900Y3735294D01*
X25005875Y3584600D01*
X24975900Y3433906D01*
X24975900Y3245294D01*
X25005875Y3094600D01*
X24975900Y2943906D01*
X24975900Y2755294D01*
X25012696Y2570308D01*
X25084874Y2396054D01*
X25189661Y2239229D01*
X25323029Y2105861D01*
X25479854Y2001074D01*
X25654108Y1928896D01*
X25839094Y1892100D01*
X26027706Y1892100D01*
X26178400Y1922075D01*
X26329094Y1892100D01*
X26517706Y1892100D01*
X26668400Y1922075D01*
X26819094Y1892100D01*
X27007706Y1892100D01*
X27158400Y1922075D01*
X27309094Y1892100D01*
X27497706Y1892100D01*
X27648400Y1922075D01*
X27799094Y1892100D01*
X27987706Y1892100D01*
X28138400Y1922075D01*
X28289094Y1892100D01*
X28477706Y1892100D01*
X28628400Y1922075D01*
X28779094Y1892100D01*
X28967706Y1892100D01*
X29118400Y1922075D01*
X29269094Y1892100D01*
X29457706Y1892100D01*
X29608400Y1922075D01*
X29759094Y1892100D01*
X29947706Y1892100D01*
X30098400Y1922075D01*
X30249094Y1892100D01*
X30437706Y1892100D01*
X30622692Y1928896D01*
X30796946Y2001074D01*
X30953771Y2105861D01*
X31087139Y2239229D01*
X31191926Y2396054D01*
X31264104Y2570308D01*
X31300900Y2755294D01*
X31300900Y2943906D01*
X31270925Y3094600D01*
X31300900Y3245294D01*
X31300900Y3433906D01*
X31270925Y3584600D01*
X31300900Y3735294D01*
X31300900Y3923906D01*
X31270925Y4074600D01*
X31300900Y4225294D01*
X31300900Y4413906D01*
X31270925Y4564600D01*
X31300900Y4715294D01*
X31300900Y4903906D01*
X31270925Y5054600D01*
X31300900Y5205294D01*
X31300900Y5393906D01*
X31270925Y5544600D01*
X31300900Y5695294D01*
X31300900Y5883906D01*
X31270925Y6034600D01*
X31300900Y6185294D01*
X31300900Y6373906D01*
X31270925Y6524600D01*
X31300900Y6675294D01*
X31300900Y6863906D01*
X31270925Y7014600D01*
X31300900Y7165294D01*
X31300900Y7353906D01*
X31264104Y7538892D01*
X31191926Y7713146D01*
X31087139Y7869971D01*
X30953771Y8003339D01*
X30796946Y8108126D01*
X30622692Y8180304D01*
X30437706Y8217100D01*
X30249094Y8217100D01*
X30098400Y8187125D01*
X29947706Y8217100D01*
X29759094Y8217100D01*
X29608400Y8187125D01*
X29457706Y8217100D01*
X29269094Y8217100D01*
X29118400Y8187125D01*
X28967706Y8217100D01*
X28779094Y8217100D01*
X28628400Y8187125D01*
X28477706Y8217100D01*
X28289094Y8217100D01*
X28138400Y8187125D01*
X27987706Y8217100D01*
X27799094Y8217100D01*
X27648400Y8187125D01*
X27497706Y8217100D01*
X27309094Y8217100D01*
X27158400Y8187125D01*
X27007706Y8217100D01*
X26819094Y8217100D01*
X26668400Y8187125D01*
X26517706Y8217100D01*
X26329094Y8217100D01*
X26178400Y8187125D01*
X26027706Y8217100D01*
X25839094Y8217100D01*
X25654108Y8180304D01*
X25479854Y8108126D01*
X25323029Y8003339D01*
X25189661Y7869971D01*
X25084874Y7713146D01*
X25012696Y7538892D01*
X24975900Y7353906D01*
X-15036967Y7353906D01*
X-15082862Y31632400D01*
X46446360Y31632400D01*
X46446360Y29632400D01*
X46462482Y29468711D01*
X46510228Y29311313D01*
X46587764Y29166254D01*
X46692109Y29039109D01*
X46819254Y28934764D01*
X46964313Y28857228D01*
X47121711Y28809482D01*
X47285400Y28793360D01*
X49285400Y28793360D01*
X49449089Y28809482D01*
X49606487Y28857228D01*
X49751546Y28934764D01*
X49878691Y29039109D01*
X49983036Y29166254D01*
X50060572Y29311313D01*
X50108318Y29468711D01*
X50111102Y29496987D01*
X52329592Y29496987D01*
X52425356Y29232586D01*
X52714971Y29091696D01*
X53026508Y29010016D01*
X53347995Y28990682D01*
X53667075Y29034439D01*
X53971488Y29139605D01*
X54145444Y29232586D01*
X54241208Y29496987D01*
X53285400Y30452795D01*
X52329592Y29496987D01*
X50111102Y29496987D01*
X50124440Y29632400D01*
X50124440Y30569805D01*
X51643682Y30569805D01*
X51687439Y30250725D01*
X51792605Y29946312D01*
X51885586Y29772356D01*
X52149987Y29676592D01*
X53105795Y30632400D01*
X53465005Y30632400D01*
X54420813Y29676592D01*
X54685214Y29772356D01*
X54826104Y30061971D01*
X54907784Y30373508D01*
X54927118Y30694995D01*
X54883361Y31014075D01*
X54778195Y31318488D01*
X54685214Y31492444D01*
X54420813Y31588208D01*
X53465005Y30632400D01*
X53105795Y30632400D01*
X52149987Y31588208D01*
X51885586Y31492444D01*
X51744696Y31202829D01*
X51663016Y30891292D01*
X51643682Y30569805D01*
X50124440Y30569805D01*
X50124440Y31632400D01*
X50111103Y31767813D01*
X52329592Y31767813D01*
X53285400Y30812005D01*
X54241208Y31767813D01*
X54145444Y32032214D01*
X53855829Y32173104D01*
X53544292Y32254784D01*
X53222805Y32274118D01*
X52903725Y32230361D01*
X52599312Y32125195D01*
X52425356Y32032214D01*
X52329592Y31767813D01*
X50111103Y31767813D01*
X50108318Y31796089D01*
X50060572Y31953487D01*
X49983036Y32098546D01*
X49878691Y32225691D01*
X49751546Y32330036D01*
X49606487Y32407572D01*
X49449089Y32455318D01*
X49285400Y32471440D01*
X47285400Y32471440D01*
X47121711Y32455318D01*
X46964313Y32407572D01*
X46819254Y32330036D01*
X46692109Y32225691D01*
X46587764Y32098546D01*
X46510228Y31953487D01*
X46462482Y31796089D01*
X46446360Y31632400D01*
X-15082862Y31632400D01*
X-15089574Y35182887D01*
X59390831Y35207715D01*
X59513767Y-16818687D01*
G37*
G04 #@! TD.AperFunction*
D13*
X59513767Y-16818687D02*
X-14991225Y-16843515D01*
X-15036967Y7353906D01*
X24975900Y7353906D01*
X24975900Y7165294D01*
X25005875Y7014600D01*
X24975900Y6863906D01*
X24975900Y6675294D01*
X25005875Y6524600D01*
X24975900Y6373906D01*
X24975900Y6185294D01*
X25005875Y6034600D01*
X24975900Y5883906D01*
X24975900Y5695294D01*
X25005875Y5544600D01*
X24975900Y5393906D01*
X24975900Y5205294D01*
X25005875Y5054600D01*
X24975900Y4903906D01*
X24975900Y4715294D01*
X25005875Y4564600D01*
X24975900Y4413906D01*
X24975900Y4225294D01*
X25005875Y4074600D01*
X24975900Y3923906D01*
X24975900Y3735294D01*
X25005875Y3584600D01*
X24975900Y3433906D01*
X24975900Y3245294D01*
X25005875Y3094600D01*
X24975900Y2943906D01*
X24975900Y2755294D01*
X25012696Y2570308D01*
X25084874Y2396054D01*
X25189661Y2239229D01*
X25323029Y2105861D01*
X25479854Y2001074D01*
X25654108Y1928896D01*
X25839094Y1892100D01*
X26027706Y1892100D01*
X26178400Y1922075D01*
X26329094Y1892100D01*
X26517706Y1892100D01*
X26668400Y1922075D01*
X26819094Y1892100D01*
X27007706Y1892100D01*
X27158400Y1922075D01*
X27309094Y1892100D01*
X27497706Y1892100D01*
X27648400Y1922075D01*
X27799094Y1892100D01*
X27987706Y1892100D01*
X28138400Y1922075D01*
X28289094Y1892100D01*
X28477706Y1892100D01*
X28628400Y1922075D01*
X28779094Y1892100D01*
X28967706Y1892100D01*
X29118400Y1922075D01*
X29269094Y1892100D01*
X29457706Y1892100D01*
X29608400Y1922075D01*
X29759094Y1892100D01*
X29947706Y1892100D01*
X30098400Y1922075D01*
X30249094Y1892100D01*
X30437706Y1892100D01*
X30622692Y1928896D01*
X30796946Y2001074D01*
X30953771Y2105861D01*
X31087139Y2239229D01*
X31191926Y2396054D01*
X31264104Y2570308D01*
X31300900Y2755294D01*
X31300900Y2943906D01*
X31270925Y3094600D01*
X31300900Y3245294D01*
X31300900Y3433906D01*
X31270925Y3584600D01*
X31300900Y3735294D01*
X31300900Y3923906D01*
X31270925Y4074600D01*
X31300900Y4225294D01*
X31300900Y4413906D01*
X31270925Y4564600D01*
X31300900Y4715294D01*
X31300900Y4903906D01*
X31270925Y5054600D01*
X31300900Y5205294D01*
X31300900Y5393906D01*
X31270925Y5544600D01*
X31300900Y5695294D01*
X31300900Y5883906D01*
X31270925Y6034600D01*
X31300900Y6185294D01*
X31300900Y6373906D01*
X31270925Y6524600D01*
X31300900Y6675294D01*
X31300900Y6863906D01*
X31270925Y7014600D01*
X31300900Y7165294D01*
X31300900Y7353906D01*
X31264104Y7538892D01*
X31191926Y7713146D01*
X31087139Y7869971D01*
X30953771Y8003339D01*
X30796946Y8108126D01*
X30622692Y8180304D01*
X30437706Y8217100D01*
X30249094Y8217100D01*
X30098400Y8187125D01*
X29947706Y8217100D01*
X29759094Y8217100D01*
X29608400Y8187125D01*
X29457706Y8217100D01*
X29269094Y8217100D01*
X29118400Y8187125D01*
X28967706Y8217100D01*
X28779094Y8217100D01*
X28628400Y8187125D01*
X28477706Y8217100D01*
X28289094Y8217100D01*
X28138400Y8187125D01*
X27987706Y8217100D01*
X27799094Y8217100D01*
X27648400Y8187125D01*
X27497706Y8217100D01*
X27309094Y8217100D01*
X27158400Y8187125D01*
X27007706Y8217100D01*
X26819094Y8217100D01*
X26668400Y8187125D01*
X26517706Y8217100D01*
X26329094Y8217100D01*
X26178400Y8187125D01*
X26027706Y8217100D01*
X25839094Y8217100D01*
X25654108Y8180304D01*
X25479854Y8108126D01*
X25323029Y8003339D01*
X25189661Y7869971D01*
X25084874Y7713146D01*
X25012696Y7538892D01*
X24975900Y7353906D01*
X-15036967Y7353906D01*
X-15082862Y31632400D01*
X46446360Y31632400D01*
X46446360Y29632400D01*
X46462482Y29468711D01*
X46510228Y29311313D01*
X46587764Y29166254D01*
X46692109Y29039109D01*
X46819254Y28934764D01*
X46964313Y28857228D01*
X47121711Y28809482D01*
X47285400Y28793360D01*
X49285400Y28793360D01*
X49449089Y28809482D01*
X49606487Y28857228D01*
X49751546Y28934764D01*
X49878691Y29039109D01*
X49983036Y29166254D01*
X50060572Y29311313D01*
X50108318Y29468711D01*
X50111102Y29496987D01*
X52329592Y29496987D01*
X52425356Y29232586D01*
X52714971Y29091696D01*
X53026508Y29010016D01*
X53347995Y28990682D01*
X53667075Y29034439D01*
X53971488Y29139605D01*
X54145444Y29232586D01*
X54241208Y29496987D01*
X53285400Y30452795D01*
X52329592Y29496987D01*
X50111102Y29496987D01*
X50124440Y29632400D01*
X50124440Y30569805D01*
X51643682Y30569805D01*
X51687439Y30250725D01*
X51792605Y29946312D01*
X51885586Y29772356D01*
X52149987Y29676592D01*
X53105795Y30632400D01*
X53465005Y30632400D01*
X54420813Y29676592D01*
X54685214Y29772356D01*
X54826104Y30061971D01*
X54907784Y30373508D01*
X54927118Y30694995D01*
X54883361Y31014075D01*
X54778195Y31318488D01*
X54685214Y31492444D01*
X54420813Y31588208D01*
X53465005Y30632400D01*
X53105795Y30632400D01*
X52149987Y31588208D01*
X51885586Y31492444D01*
X51744696Y31202829D01*
X51663016Y30891292D01*
X51643682Y30569805D01*
X50124440Y30569805D01*
X50124440Y31632400D01*
X50111103Y31767813D01*
X52329592Y31767813D01*
X53285400Y30812005D01*
X54241208Y31767813D01*
X54145444Y32032214D01*
X53855829Y32173104D01*
X53544292Y32254784D01*
X53222805Y32274118D01*
X52903725Y32230361D01*
X52599312Y32125195D01*
X52425356Y32032214D01*
X52329592Y31767813D01*
X50111103Y31767813D01*
X50108318Y31796089D01*
X50060572Y31953487D01*
X49983036Y32098546D01*
X49878691Y32225691D01*
X49751546Y32330036D01*
X49606487Y32407572D01*
X49449089Y32455318D01*
X49285400Y32471440D01*
X47285400Y32471440D01*
X47121711Y32455318D01*
X46964313Y32407572D01*
X46819254Y32330036D01*
X46692109Y32225691D01*
X46587764Y32098546D01*
X46510228Y31953487D01*
X46462482Y31796089D01*
X46446360Y31632400D01*
X-15082862Y31632400D01*
X-15089574Y35182887D01*
X59390831Y35207715D01*
X59513767Y-16818687D01*
G04 #@! TA.AperFunction,Conductor*
D14*
G36*
X59513767Y-16818687D02*
G01*
X-14991225Y-16843515D01*
X-15036967Y7353906D01*
X24975900Y7353906D01*
X24975900Y7165294D01*
X25005875Y7014600D01*
X24975900Y6863906D01*
X24975900Y6675294D01*
X25005875Y6524600D01*
X24975900Y6373906D01*
X24975900Y6185294D01*
X25005875Y6034600D01*
X24975900Y5883906D01*
X24975900Y5695294D01*
X25005875Y5544600D01*
X24975900Y5393906D01*
X24975900Y5205294D01*
X25005875Y5054600D01*
X24975900Y4903906D01*
X24975900Y4715294D01*
X25005875Y4564600D01*
X24975900Y4413906D01*
X24975900Y4225294D01*
X25005875Y4074600D01*
X24975900Y3923906D01*
X24975900Y3735294D01*
X25005875Y3584600D01*
X24975900Y3433906D01*
X24975900Y3245294D01*
X25005875Y3094600D01*
X24975900Y2943906D01*
X24975900Y2755294D01*
X25012696Y2570308D01*
X25084874Y2396054D01*
X25189661Y2239229D01*
X25323029Y2105861D01*
X25479854Y2001074D01*
X25654108Y1928896D01*
X25839094Y1892100D01*
X26027706Y1892100D01*
X26178400Y1922075D01*
X26329094Y1892100D01*
X26517706Y1892100D01*
X26668400Y1922075D01*
X26819094Y1892100D01*
X27007706Y1892100D01*
X27158400Y1922075D01*
X27309094Y1892100D01*
X27497706Y1892100D01*
X27648400Y1922075D01*
X27799094Y1892100D01*
X27987706Y1892100D01*
X28138400Y1922075D01*
X28289094Y1892100D01*
X28477706Y1892100D01*
X28628400Y1922075D01*
X28779094Y1892100D01*
X28967706Y1892100D01*
X29118400Y1922075D01*
X29269094Y1892100D01*
X29457706Y1892100D01*
X29608400Y1922075D01*
X29759094Y1892100D01*
X29947706Y1892100D01*
X30098400Y1922075D01*
X30249094Y1892100D01*
X30437706Y1892100D01*
X30622692Y1928896D01*
X30796946Y2001074D01*
X30953771Y2105861D01*
X31087139Y2239229D01*
X31191926Y2396054D01*
X31264104Y2570308D01*
X31300900Y2755294D01*
X31300900Y2943906D01*
X31270925Y3094600D01*
X31300900Y3245294D01*
X31300900Y3433906D01*
X31270925Y3584600D01*
X31300900Y3735294D01*
X31300900Y3923906D01*
X31270925Y4074600D01*
X31300900Y4225294D01*
X31300900Y4413906D01*
X31270925Y4564600D01*
X31300900Y4715294D01*
X31300900Y4903906D01*
X31270925Y5054600D01*
X31300900Y5205294D01*
X31300900Y5393906D01*
X31270925Y5544600D01*
X31300900Y5695294D01*
X31300900Y5883906D01*
X31270925Y6034600D01*
X31300900Y6185294D01*
X31300900Y6373906D01*
X31270925Y6524600D01*
X31300900Y6675294D01*
X31300900Y6863906D01*
X31270925Y7014600D01*
X31300900Y7165294D01*
X31300900Y7353906D01*
X31264104Y7538892D01*
X31191926Y7713146D01*
X31087139Y7869971D01*
X30953771Y8003339D01*
X30796946Y8108126D01*
X30622692Y8180304D01*
X30437706Y8217100D01*
X30249094Y8217100D01*
X30098400Y8187125D01*
X29947706Y8217100D01*
X29759094Y8217100D01*
X29608400Y8187125D01*
X29457706Y8217100D01*
X29269094Y8217100D01*
X29118400Y8187125D01*
X28967706Y8217100D01*
X28779094Y8217100D01*
X28628400Y8187125D01*
X28477706Y8217100D01*
X28289094Y8217100D01*
X28138400Y8187125D01*
X27987706Y8217100D01*
X27799094Y8217100D01*
X27648400Y8187125D01*
X27497706Y8217100D01*
X27309094Y8217100D01*
X27158400Y8187125D01*
X27007706Y8217100D01*
X26819094Y8217100D01*
X26668400Y8187125D01*
X26517706Y8217100D01*
X26329094Y8217100D01*
X26178400Y8187125D01*
X26027706Y8217100D01*
X25839094Y8217100D01*
X25654108Y8180304D01*
X25479854Y8108126D01*
X25323029Y8003339D01*
X25189661Y7869971D01*
X25084874Y7713146D01*
X25012696Y7538892D01*
X24975900Y7353906D01*
X-15036967Y7353906D01*
X-15082862Y31632400D01*
X46446360Y31632400D01*
X46446360Y29632400D01*
X46462482Y29468711D01*
X46510228Y29311313D01*
X46587764Y29166254D01*
X46692109Y29039109D01*
X46819254Y28934764D01*
X46964313Y28857228D01*
X47121711Y28809482D01*
X47285400Y28793360D01*
X49285400Y28793360D01*
X49449089Y28809482D01*
X49606487Y28857228D01*
X49751546Y28934764D01*
X49878691Y29039109D01*
X49983036Y29166254D01*
X50060572Y29311313D01*
X50108318Y29468711D01*
X50111102Y29496987D01*
X52329592Y29496987D01*
X52425356Y29232586D01*
X52714971Y29091696D01*
X53026508Y29010016D01*
X53347995Y28990682D01*
X53667075Y29034439D01*
X53971488Y29139605D01*
X54145444Y29232586D01*
X54241208Y29496987D01*
X53285400Y30452795D01*
X52329592Y29496987D01*
X50111102Y29496987D01*
X50124440Y29632400D01*
X50124440Y30569805D01*
X51643682Y30569805D01*
X51687439Y30250725D01*
X51792605Y29946312D01*
X51885586Y29772356D01*
X52149987Y29676592D01*
X53105795Y30632400D01*
X53465005Y30632400D01*
X54420813Y29676592D01*
X54685214Y29772356D01*
X54826104Y30061971D01*
X54907784Y30373508D01*
X54927118Y30694995D01*
X54883361Y31014075D01*
X54778195Y31318488D01*
X54685214Y31492444D01*
X54420813Y31588208D01*
X53465005Y30632400D01*
X53105795Y30632400D01*
X52149987Y31588208D01*
X51885586Y31492444D01*
X51744696Y31202829D01*
X51663016Y30891292D01*
X51643682Y30569805D01*
X50124440Y30569805D01*
X50124440Y31632400D01*
X50111103Y31767813D01*
X52329592Y31767813D01*
X53285400Y30812005D01*
X54241208Y31767813D01*
X54145444Y32032214D01*
X53855829Y32173104D01*
X53544292Y32254784D01*
X53222805Y32274118D01*
X52903725Y32230361D01*
X52599312Y32125195D01*
X52425356Y32032214D01*
X52329592Y31767813D01*
X50111103Y31767813D01*
X50108318Y31796089D01*
X50060572Y31953487D01*
X49983036Y32098546D01*
X49878691Y32225691D01*
X49751546Y32330036D01*
X49606487Y32407572D01*
X49449089Y32455318D01*
X49285400Y32471440D01*
X47285400Y32471440D01*
X47121711Y32455318D01*
X46964313Y32407572D01*
X46819254Y32330036D01*
X46692109Y32225691D01*
X46587764Y32098546D01*
X46510228Y31953487D01*
X46462482Y31796089D01*
X46446360Y31632400D01*
X-15082862Y31632400D01*
X-15089574Y35182887D01*
X59390831Y35207715D01*
X59513767Y-16818687D01*
G37*
G04 #@! TD.AperFunction*
M02*
