G04 #@! TF.GenerationSoftware,KiCad,Pcbnew,(5.1.9)-1*
G04 #@! TF.CreationDate,2022-02-07T19:04:33+01:00*
G04 #@! TF.ProjectId,AmplificadorV2,416d706c-6966-4696-9361-646f7256322e,rev?*
G04 #@! TF.SameCoordinates,Original*
G04 #@! TF.FileFunction,Soldermask,Bot*
G04 #@! TF.FilePolarity,Negative*
%FSLAX46Y46*%
G04 Gerber Fmt 4.6, Leading zero omitted, Abs format (unit mm)*
G04 Created by KiCad (PCBNEW (5.1.9)-1) date 2022-02-07 19:04:33*
%MOMM*%
%LPD*%
G01*
G04 APERTURE LIST*
%ADD10R,5.080000X1.500000*%
%ADD11C,2.000000*%
%ADD12R,2.000000X2.000000*%
%ADD13C,0.245000*%
G04 APERTURE END LIST*
D10*
X57302400Y9355400D03*
X57302400Y855400D03*
X-12776200Y855400D03*
X-12776200Y9355400D03*
D11*
X53285400Y30632400D03*
D12*
X48285400Y30632400D03*
D13*
X30343400Y2849600D03*
X30343400Y3339600D03*
X30343400Y3829600D03*
X30343400Y4319600D03*
X30343400Y4809600D03*
X30343400Y5299600D03*
X30343400Y5789600D03*
X30343400Y6279600D03*
X30343400Y6769600D03*
X30343400Y7259600D03*
X29853400Y2849600D03*
X29853400Y3339600D03*
X29853400Y3829600D03*
X29853400Y4319600D03*
X29853400Y4809600D03*
X29853400Y5299600D03*
X29853400Y5789600D03*
X29853400Y6279600D03*
X29853400Y6769600D03*
X29853400Y7259600D03*
X29363400Y2849600D03*
X29363400Y3339600D03*
X29363400Y3829600D03*
X29363400Y4319600D03*
X29363400Y4809600D03*
X29363400Y5299600D03*
X29363400Y5789600D03*
X29363400Y6279600D03*
X29363400Y6769600D03*
X29363400Y7259600D03*
X28873400Y2849600D03*
X28873400Y3339600D03*
X28873400Y3829600D03*
X28873400Y4319600D03*
X28873400Y4809600D03*
X28873400Y5299600D03*
X28873400Y5789600D03*
X28873400Y6279600D03*
X28873400Y6769600D03*
X28873400Y7259600D03*
X28383400Y2849600D03*
X28383400Y3339600D03*
X28383400Y3829600D03*
X28383400Y4319600D03*
X28383400Y4809600D03*
X28383400Y5299600D03*
X28383400Y5789600D03*
X28383400Y6279600D03*
X28383400Y6769600D03*
X28383400Y7259600D03*
X27893400Y2849600D03*
X27893400Y3339600D03*
X27893400Y3829600D03*
X27893400Y4319600D03*
X27893400Y4809600D03*
X27893400Y5299600D03*
X27893400Y5789600D03*
X27893400Y6279600D03*
X27893400Y6769600D03*
X27893400Y7259600D03*
X27403400Y2849600D03*
X27403400Y3339600D03*
X27403400Y3829600D03*
X27403400Y4319600D03*
X27403400Y4809600D03*
X27403400Y5299600D03*
X27403400Y5789600D03*
X27403400Y6279600D03*
X27403400Y6769600D03*
X27403400Y7259600D03*
X26913400Y2849600D03*
X26913400Y3339600D03*
X26913400Y3829600D03*
X26913400Y4319600D03*
X26913400Y4809600D03*
X26913400Y5299600D03*
X26913400Y5789600D03*
X26913400Y6279600D03*
X26913400Y6769600D03*
X26913400Y7259600D03*
X26423400Y2849600D03*
X26423400Y3339600D03*
X26423400Y3829600D03*
X26423400Y4319600D03*
X26423400Y4809600D03*
X26423400Y5299600D03*
X26423400Y5789600D03*
X26423400Y6279600D03*
X26423400Y6769600D03*
X26423400Y7259600D03*
X25933400Y2849600D03*
X25933400Y3339600D03*
X25933400Y3829600D03*
X25933400Y4319600D03*
X25933400Y4809600D03*
X25933400Y5299600D03*
X25933400Y5789600D03*
X25933400Y6279600D03*
X25933400Y6769600D03*
X25933400Y7259600D03*
M02*
